SplineFontDB: 3.0
FontName: Umpush-Light
FullName: Umpush Light
FamilyName: Umpush
Weight: Light
Copyright: Copyright (c) 2003 NECTEC. All rights reserved.\nCopyright (c) 2007 Widhaya Trisarnwadhana. All rights reserved.\nModified under GNU General Public License by TLWG.
Version: 0.9.16: 2014-02-20
ItalicAngle: 0
UnderlinePosition: -85
UnderlineWidth: 10
Ascent: 1638
Descent: 410
LayerCount: 2
Layer: 0 0 "Back"  1
Layer: 1 0 "Fore"  0
FSType: 0
OS2Version: 0
OS2_WeightWidthSlopeOnly: 0
OS2_UseTypoMetrics: 0
CreationTime: 1176605901
ModificationTime: 1392884050
PfmFamily: 33
TTFWeight: 300
TTFWidth: 5
LineGap: 0
VLineGap: 0
Panose: 2 11 3 4 2 2 2 2 2 4
OS2TypoAscent: 0
OS2TypoAOffset: 1
OS2TypoDescent: 0
OS2TypoDOffset: 1
OS2TypoLinegap: 0
OS2WinAscent: 0
OS2WinAOffset: 1
OS2WinDescent: 0
OS2WinDOffset: 1
HheadAscent: 0
HheadAOffset: 1
HheadDescent: 0
HheadDOffset: 1
OS2Vendor: 'PfEd'
Lookup: 4 0 1 "'liga' Standard Ligatures lookup 0"  {"'liga' Standard Ligatures lookup 0"  } ['liga' ('latn' <'dflt' > ) ]
Lookup: 6 0 0 "'ccmp' Thai Conditional Descender Removal"  {"'ccmp' Thai Conditional Descender Removal"  } ['ccmp' ('DFLT' <'dflt' > 'thai' <'KUY ' 'THA ' 'dflt' > ) ]
Lookup: 1 0 0 "'ccmp' Pali-Sanskrit Descender Removal"  {"'ccmp' Pali-Sanskrit Descender Removal" ("descless" ) } ['ccmp' ('thai' <'PAL ' 'SAN ' > ) ]
Lookup: 6 0 0 "'ccmp' Thai General Composition"  {"'ccmp' Thai Below Vowel Tone Reordering"  "'ccmp' Thai General Composition"  } ['ccmp' ('DFLT' <'dflt' > 'thai' <'KUY ' 'PAL ' 'SAN ' 'THA ' 'dflt' > ) ]
Lookup: 1 0 0 "Thai Descender Removal Single Substitution"  {"Thai Descender Removal Single Substitution" ("descless" ) } []
Lookup: 2 0 0 "Thai Sara Am Decomposition"  {"Thai Sara Am Decomposition"  } []
Lookup: 2 0 0 "Thai Tone Nikhahit Attachment"  {"Thai Tone Nikhahit Attachment"  } []
Lookup: 1 0 0 "Thai Sara Am Lakkhang"  {"Thai Sara Am Lakkhang"  } []
Lookup: 1 0 0 "Thai Tone Low Variant"  {"Thai Tone Low Variant" ("low" ) } []

StartChar: .notdef
Encoding: 65536 -1 0
Width: 1533
VWidth: 2045
Flags: W
HStem: 0 32<287 1247> 1248 32<287 1247>
VStem: 256 31<32 1248> 1247 31<32 1248>
LayerCount: 2
Fore
SplineSet
256 0 m 1
 256 1280 l 1
 1278 1280 l 1
 1278 0 l 1
 256 0 l 1
287 32 m 1
 1247 32 l 1
 1247 1248 l 1
 287 1248 l 1
 287 32 l 1
EndSplineSet
EndChar

StartChar: uni0E4D.high
Encoding: 63262 63262 2
Width: 0
VWidth: 2558
Flags: W
HStem: 2026 72<-293.4 -161.404> 2254 74<-294.288 -158.776>
VStem: -376 69<2113.96 2240.62> -147 70<2113.7 2240.41>
AnchorPoint: "AboveMark" -226 2512 basemark 0
AnchorPoint: "AboveMark" -226 2040 mark 0
LayerCount: 2
Fore
SplineSet
-376 2175 m 0
 -376 2258 -309 2328 -226 2328 c 0
 -145 2328 -77 2264 -77 2175 c 0
 -77 2094 -145 2026 -226 2026 c 0
 -306 2026 -376 2088 -376 2175 c 0
-307 2175 m 0
 -307 2135 -273 2098 -226 2098 c 0
 -188 2098 -147 2132 -147 2175 c 0
 -147 2224 -184 2254 -226 2254 c 0
 -282 2254 -307 2210 -307 2175 c 0
EndSplineSet
EndChar

StartChar: exclam
Encoding: 33 33 5
Width: 681
VWidth: 2045
Flags: W
HStem: 0 193<208 368> 1430 20G<215 361>
VStem: 215 146<0 193 869.212 1450>
LayerCount: 2
Fore
SplineSet
215 998 m 1
 215 1450 l 1
 361 1450 l 1
 361 998 l 1
 325 366 l 1
 250 366 l 1
 215 998 l 1
208 193 m 1
 368 193 l 1
 368 0 l 1
 208 0 l 1
 208 193 l 1
EndSplineSet
EndChar

StartChar: quotedbl
Encoding: 34 34 6
Width: 568
VWidth: 2045
Flags: W
HStem: 946 504<117 203 380 465>
VStem: 91 134<1067.57 1450> 354 134<1067.57 1450>
LayerCount: 2
Fore
SplineSet
117 946 m 1
 91 1217 l 1
 91 1450 l 1
 225 1450 l 1
 225 1217 l 1
 203 946 l 1
 117 946 l 1
380 946 m 1
 354 1217 l 1
 354 1450 l 1
 488 1450 l 1
 488 1217 l 1
 465 946 l 1
 380 946 l 1
EndSplineSet
EndChar

StartChar: numbersign
Encoding: 35 35 7
Width: 1137
VWidth: 2045
Flags: W
HStem: -9 21G<87 218.141 599 730.141> 387 124<21 169 322 681 834 1113> 951 124<21 287 440 799 952 1113> 1450 20G<390.848 522 902.848 1034>
DStem2: 87 -9 214 -9 0.203875 0.978997<25.8921 404.401 556.989 980.612 1133.2 1510.73> 599 -9 726 -9 0.203875 0.978997<25.8921 404.401 556.989 980.612 1133.2 1510.73>
LayerCount: 2
Back
SplineSet
21 387 m 1
 21 511 l 1
 1113 511 l 1
 1113 387 l 1
 21 387 l 1
21 951 m 1
 21 1075 l 1
 1113 1075 l 1
 1113 951 l 1
 21 951 l 1
726 -9 m 1
 599 -9 l 1
 907 1470 l 1
 1034 1470 l 1
 726 -9 l 1
214 -9 m 1
 87 -9 l 1
 395 1470 l 1
 522 1470 l 1
 214 -9 l 1
EndSplineSet
Fore
SplineSet
214 -9 m 1
 87 -9 l 1
 169 387 l 1
 21 387 l 1
 21 511 l 1
 195 511 l 1
 287 951 l 1
 21 951 l 1
 21 1075 l 1
 313 1075 l 1
 395 1470 l 1
 522 1470 l 1
 440 1075 l 1
 825 1075 l 1
 907 1470 l 1
 1034 1470 l 1
 952 1075 l 1
 1113 1075 l 1
 1113 951 l 1
 926 951 l 1
 834 511 l 1
 1113 511 l 1
 1113 387 l 1
 808 387 l 1
 726 -9 l 1
 599 -9 l 1
 681 387 l 1
 296 387 l 1
 214 -9 l 1
799 951 m 1
 414 951 l 1
 322 511 l 1
 707 511 l 1
 799 951 l 1
EndSplineSet
EndChar

StartChar: dollar
Encoding: 36 36 8
Width: 1137
VWidth: 2045
Flags: W
HStem: -16 138<364.591 484 630 759.008> 1268 138<357.736 484 630 760.522>
VStem: 76 146<267.002 417> 107 146<927.402 1173.08> 484 146<-118 -10.428 122 634 815 1268 1400.1 1488> 860 146<1050 1173.24> 894 146<244.391 516.88>
LayerCount: 2
Back
SplineSet
630 -118 m 1xc8
 484 -118 l 1
 484 1488 l 1
 630 1488 l 1
 630 -118 l 1xc8
557 -20 m 27
 304 -20 76 113 76 417 c 1
 222 417 l 1
 222 230 381 116 557 116 c 27
 726 116 894 201 894 390 c 3xea
 894 569 724 611 557 652 c 0
 339 706 107 777 107 1030 c 3
 107 1278 327 1410 557 1410 c 27
 781 1410 1006 1281 1006 1050 c 1
 860 1050 l 1xdc
 860 1213 704 1274 557 1274 c 27
 412 1274 253 1201 253 1059 c 3
 253 897 400 833 557 794 c 0
 734 750 1040 689 1040 397 c 3xda
 1040 109 806 -20 557 -20 c 27
EndSplineSet
Fore
SplineSet
630 -118 m 1xca
 484 -118 l 1
 484 -16 l 1
 262 8 76 143 76 417 c 1
 222 417 l 1xea
 222 256 339 149 484 122 c 1
 484 671 l 1
 290 724 107 805 107 1030 c 3
 107 1252 283 1381 484 1406 c 1
 484 1488 l 1
 630 1488 l 1
 630 1405 l 1
 827 1380 1006 1256 1006 1050 c 1
 860 1050 l 1xdc
 860 1186 751 1251 630 1269 c 1
 630 776 l 1
 807 731 1040 652 1040 397 c 3
 1040 137 850 7 630 -16 c 1
 630 -118 l 1xca
630 120 m 1
 771 141 894 228 894 390 c 3
 894 543 770 596 630 634 c 1
 630 120 l 1
484 1268 m 1
 363 1248 253 1177 253 1059 c 3xd8
 253 923 357 856 484 815 c 1
 484 1268 l 1
EndSplineSet
EndChar

StartChar: percent
Encoding: 37 37 9
Width: 1818
VWidth: 2045
Flags: W
HStem: -48 136<1284.59 1471.41> -9 21G<478 634.127> 588 136<1284.59 1471.41> 718 136<337.588 524.412> 1354 136<337.588 524.412>
VStem: 119 146<932.72 1275.28> 597 146<932.72 1275.28> 1066 146<166.72 509.28> 1544 146<166.72 509.28>
DStem2: 478 -9 624 -9 0.451731 0.892154<65.9527 1680.2>
LayerCount: 2
Fore
SplineSet
1378 -48 m 259xaf80
 1206 -48 1066 120 1066 338 c 259
 1066 556 1206 724 1378 724 c 259
 1550 724 1690 556 1690 338 c 259
 1690 120 1550 -48 1378 -48 c 259xaf80
1378 588 m 259
 1306 588 1212 510 1212 338 c 259
 1212 166 1306 88 1378 88 c 259
 1450 88 1544 166 1544 338 c 259
 1544 510 1450 588 1378 588 c 259
431 718 m 259x1f80
 259 718 119 886 119 1104 c 259
 119 1322 259 1490 431 1490 c 259
 603 1490 743 1322 743 1104 c 259
 743 886 603 718 431 718 c 259x1f80
431 1354 m 259
 359 1354 265 1276 265 1104 c 259
 265 932 359 854 431 854 c 259
 503 854 597 932 597 1104 c 259
 597 1276 503 1354 431 1354 c 259
1237 1490 m 1
 1383 1490 l 1
 624 -9 l 1
 478 -9 l 1x4f80
 1237 1490 l 1
EndSplineSet
EndChar

StartChar: ampersand
Encoding: 38 38 10
Width: 1364
VWidth: 2045
Flags: W
HStem: -12 136<388.093 730.496> 1344 136<488.309 763.148>
VStem: 87 146<276.24 557.34> 263 146<1051.91 1268.6> 838 146<1070.42 1271.86> 1077 152<533.997 679.15>
DStem2: 569 907 422 844 0.633615 -0.773648<-299.314 -44.4016 139.239 644.706>
LayerCount: 2
Fore
SplineSet
1213 -17 m 1
 1119 35 1040 99 979 173 c 1
 870 50 728 -12 552 -12 c 3
 196 -12 87 274 87 388 c 3
 87 574 182 759 422 844 c 1
 275 1013 263 1098 263 1153 c 3
 263 1315 408 1480 637 1480 c 3
 843 1480 984 1330 984 1168 c 3
 984 1041 871 903 652 795 c 1
 976 407 l 1
 1030 506 1061 606 1077 719 c 1
 1229 675 l 1
 1203 542 1154 416 1077 290 c 1
 1138 217 1225 146 1331 77 c 1
 1213 -17 l 1
838 1176 m 3
 838 1244 760 1344 627 1344 c 3
 501 1344 409 1255 409 1166 c 3
 409 1099 449 1049 569 907 c 1
 736 989 838 1088 838 1176 c 3
233 427 m 3
 233 328 311 124 555 124 c 3
 684 124 820 203 879 286 c 1
 523 730 l 1
 259 645 233 466 233 427 c 3
EndSplineSet
EndChar

StartChar: quotesingle
Encoding: 39 39 11
Width: 454
VWidth: 2045
Flags: W
HStem: 946 519<166 262>
VStem: 136 160<1104.47 1465>
LayerCount: 2
Fore
SplineSet
166 946 m 1
 136 1220 l 1
 136 1465 l 1
 296 1465 l 1
 296 1220 l 1
 262 946 l 1
 166 946 l 1
EndSplineSet
EndChar

StartChar: parenleft
Encoding: 40 40 12
Width: 681
VWidth: 2045
Flags: W
HStem: -430 21G<327.5 555>
VStem: 125 146<188.247 886.997>
LayerCount: 2
Fore
SplineSet
555 1489 m 1
 425 1292 271 963 271 532 c 3
 271 253 332 -62 555 -430 c 1
 479 -430 l 1
 176 -48 125 315 125 532 c 3
 125 932 286 1264 479 1489 c 1
 555 1489 l 1
EndSplineSet
EndChar

StartChar: parenright
Encoding: 41 41 13
Width: 681
VWidth: 2045
Flags: W
HStem: -430 21G<126 353.5>
VStem: 410 146<188.247 886.997>
LayerCount: 2
Fore
SplineSet
126 1489 m 1
 202 1489 l 1
 395 1264 556 932 556 532 c 3
 556 315 505 -48 202 -430 c 1
 126 -430 l 1
 349 -62 410 253 410 532 c 3
 410 963 256 1292 126 1489 c 1
EndSplineSet
EndChar

StartChar: asterisk
Encoding: 42 42 14
Width: 795
VWidth: 2045
Flags: W
HStem: 873 616
VStem: 335 116<1233.19 1489>
LayerCount: 2
Fore
SplineSet
70 1208 m 1
 105 1325 l 1
 351 1223 l 1
 344 1334 338 1423 335 1489 c 1
 451 1489 l 1
 448 1426 442 1339 433 1228 c 1
 506 1263 590 1296 683 1326 c 1
 720 1210 l 1
 623 1181 536 1158 457 1143 c 1
 500 1109 559 1042 636 942 c 1
 538 873 l 1
 475 956 426 1031 389 1097 c 1
 348 1025 300 952 245 878 c 1
 156 941 l 1
 223 1032 279 1099 326 1142 c 1
 70 1208 l 1
EndSplineSet
EndChar

StartChar: plus
Encoding: 43 43 15
Width: 1350
VWidth: 2045
Flags: W
HStem: 655 136<189 600 746 1157>
VStem: 600 146<237 655 791 1205>
LayerCount: 2
Fore
SplineSet
600 237 m 1
 600 655 l 1
 189 655 l 1
 189 791 l 1
 600 791 l 1
 600 1205 l 1
 746 1205 l 1
 746 791 l 1
 1157 791 l 1
 1157 655 l 1
 746 655 l 1
 746 237 l 1
 600 237 l 1
EndSplineSet
EndChar

StartChar: comma
Encoding: 44 44 16
Width: 568
VWidth: 2045
Flags: W
HStem: 0 205<204 299>
VStem: 204 183<0 205> 299 88<-158.875 0>
LayerCount: 2
Fore
SplineSet
204 0 m 1xc0
 204 205 l 1
 387 205 l 1
 387 0 l 2xc0
 387 -99 367 -228 220 -290 c 1
 186 -213 l 1
 256 -181 295 -125 299 0 c 1xa0
 204 0 l 1xc0
EndSplineSet
EndChar

StartChar: hyphen
Encoding: 45 45 17
Width: 681
VWidth: 2045
Flags: W
HStem: 462 136<64 617>
VStem: 64 553<462 598>
LayerCount: 2
Fore
SplineSet
64 462 m 1
 64 598 l 1
 617 598 l 1
 617 462 l 1
 64 462 l 1
EndSplineSet
EndChar

StartChar: period
Encoding: 46 46 18
Width: 568
VWidth: 2045
Flags: W
HStem: 0 196<186 369>
VStem: 186 183<0 196>
LayerCount: 2
Fore
SplineSet
186 0 m 1
 186 196 l 1
 369 196 l 1
 369 0 l 1
 186 0 l 1
EndSplineSet
EndChar

StartChar: slash
Encoding: 47 47 19
Width: 568
VWidth: 2045
Flags: W
HStem: -9 21G<-81 56.9215> 1448 20G<498.051 634>
DStem2: -81 -9 49 -9 0.369329 0.929299<48.0127 1589.37>
LayerCount: 2
Fore
SplineSet
-81 -9 m 1
 506 1468 l 1
 634 1468 l 1
 49 -9 l 1
 -81 -9 l 1
EndSplineSet
EndChar

StartChar: zero
Encoding: 48 48 20
Width: 1137
VWidth: 2045
Flags: W
HStem: -12 136<413.139 706.78> 1344 136<413.139 706.78>
VStem: 85 146<376.313 1091.69> 888 146<376.313 1091.69>
LayerCount: 2
Fore
SplineSet
888 734 m 3
 888 994 840 1344 560 1344 c 3
 280 1344 231 994 231 734 c 3
 231 474 280 124 560 124 c 3
 840 124 888 474 888 734 c 3
1034 734 m 3
 1034 384 960 -12 560 -12 c 3
 160 -12 85 384 85 734 c 3
 85 1084 160 1480 560 1480 c 3
 960 1480 1034 1084 1034 734 c 3
EndSplineSet
EndChar

StartChar: one
Encoding: 49 49 21
Width: 1137
VWidth: 2045
Flags: W
HStem: 0 21G<617 763> 1451 20G<552 763>
VStem: 563 200<1375.17 1471> 617 146<0 1300>
LayerCount: 2
Fore
SplineSet
223 1103 m 1xd0
 436 1211 541 1385 563 1471 c 1
 763 1471 l 1xe0
 763 0 l 1
 617 0 l 1
 617 1300 l 1
 500 1136 416 1060 223 997 c 1
 223 1103 l 1xd0
EndSplineSet
EndChar

StartChar: two
Encoding: 50 50 22
Width: 1137
VWidth: 2045
Flags: W
HStem: 0 136<259 1031> 1344 136<386.004 737.291>
VStem: 96 146<1039 1197.62> 881 146<896.424 1208.99>
DStem2: 197 326 373 292 0.771208 0.636584<-68.2244 881.597>
LayerCount: 2
Fore
SplineSet
572 1480 m 3
 869 1480 1027 1300 1027 1075 c 3
 1027 948 995 841 921 766 c 0
 769 612 591 472 373 292 c 16
 297 229 259 180 259 136 c 1
 1031 136 l 1
 1031 0 l 1
 61 0 l 1
 61 131 103 243 197 326 c 0
 462 561 519 581 765 809 c 0
 849 887 881 973 881 1078 c 3
 881 1205 761 1344 567 1344 c 3
 356 1344 242 1205 242 1039 c 1
 96 1039 l 1
 96 1300 285 1480 572 1480 c 3
EndSplineSet
EndChar

StartChar: three
Encoding: 51 51 23
Width: 1137
VWidth: 2045
Flags: W
HStem: -9 136<395.997 730.944> 708 136<442.783 683.71> 1069 21G<104 250> 1344 136<381.318 724.613>
VStem: 85 146<290.149 426> 104 146<1069 1212.11> 827 146<962.358 1248.72> 898 146<280.448 591.697>
LayerCount: 2
Fore
SplineSet
550 1480 m 3xf6
 762 1480 973 1338 973 1095 c 3xf6
 973 954 864 825 771 794 c 1
 825 783 1044 725 1044 449 c 3
 1044 166 816 -9 552 -9 c 3
 253 -9 89 220 85 426 c 1
 231 426 l 1
 231 331 331 127 552 127 c 3
 714 127 898 229 898 442 c 3xf9
 898 654 703 708 562 708 c 3
 520 708 479 706 441 693 c 1
 441 844 l 1
 750 844 827 978 827 1106 c 3
 827 1281 691 1344 543 1344 c 3
 365 1344 250 1213 250 1069 c 9
 104 1069 l 1
 104 1256 259 1480 550 1480 c 3xf6
EndSplineSet
EndChar

StartChar: four
Encoding: 52 52 24
Width: 1137
VWidth: 2045
Flags: W
HStem: 0 21G<696 842> 347 136<159 696 842 1040> 1451 20G<659.782 842>
VStem: 696 146<0 347 483 1282>
DStem2: 26 492 159 483 0.551353 0.834272<65.8214 1028.48>
LayerCount: 2
Fore
SplineSet
696 0 m 1
 696 347 l 1
 26 347 l 1
 26 492 l 1
 673 1471 l 1
 842 1471 l 1
 842 483 l 1
 1040 483 l 1
 1040 347 l 1
 842 347 l 1
 842 0 l 1
 696 0 l 1
696 483 m 1
 696 1282 l 1
 159 483 l 1
 696 483 l 1
EndSplineSet
EndChar

StartChar: five
Encoding: 53 53 25
Width: 1137
VWidth: 2045
Flags: W
HStem: -12 136<368.03 734.582> 847 136<376.825 746.629> 1314 136<377 988>
VStem: 85 146<268.969 411> 909 146<311.553 692.239>
DStem2: 116 704 292 877 0.188261 0.982119<6.29688 85.7225 203.041 648.229>
LayerCount: 2
Fore
SplineSet
909 517 m 3
 909 727 763 847 552 847 c 3
 422 847 324 789 259 683 c 1
 116 704 l 1
 259 1450 l 1
 988 1450 l 1
 988 1314 l 1
 377 1314 l 1
 292 877 l 1
 318 912 402 983 601 983 c 3
 834 983 1055 818 1055 509 c 3
 1055 212 866 -12 545 -12 c 3
 214 -12 91 231 85 411 c 1
 231 411 l 1
 253 260 313 124 568 124 c 3
 762 124 909 272 909 517 c 3
EndSplineSet
EndChar

StartChar: six
Encoding: 54 54 26
Width: 1137
VWidth: 2045
Flags: W
HStem: -12 136<415.408 746.569> 840 136<408.839 741.723> 1344 136<421.769 750.072>
VStem: 76 140<766 1059.27> 872 146<1103 1214.27> 897 146<287.217 668.128>
LayerCount: 2
Fore
SplineSet
577 -12 m 3xf4
 229 -12 76 296 76 673 c 3
 76 1084 181 1480 602 1480 c 3
 825 1480 1014 1334 1018 1103 c 1
 872 1103 l 1xf8
 866 1152 816 1344 592 1344 c 3
 291 1344 223 1052 216 766 c 1
 223 788 309 976 604 976 c 3
 809 976 1043 806 1043 491 c 3
 1043 253 904 -12 577 -12 c 3xf4
576 840 m 3
 379 840 253 699 253 489 c 3
 253 281 380 124 582 124 c 3
 832 124 897 340 897 480 c 3xf4
 897 673 786 840 576 840 c 3
EndSplineSet
EndChar

StartChar: seven
Encoding: 55 55 27
Width: 1137
VWidth: 2045
Flags: W
HStem: 0 21G<364 510> 1314 136<98 889>
VStem: 364 146<0 360.774>
LayerCount: 2
Fore
SplineSet
364 0 m 1
 365 168 382 682 889 1314 c 1
 98 1314 l 1
 98 1450 l 1
 1046 1450 l 1
 1046 1314 l 1
 520 703 510 126 510 0 c 1
 364 0 l 1
EndSplineSet
EndChar

StartChar: eight
Encoding: 56 56 28
Width: 1137
VWidth: 2045
Flags: W
HStem: -12 136<389.981 740.019> 727 136<412.153 717.847> 1344 136<411.951 718.049>
VStem: 81 146<274.957 569.79> 142 146<982.239 1232.52> 842 146<982.239 1232.52> 903 146<274.957 569.79>
LayerCount: 2
Fore
SplineSet
565 863 m 259xec
 404 863 288 989 288 1107 c 3
 288 1244 431 1344 565 1344 c 259
 699 1344 842 1244 842 1107 c 259
 842 989 726 863 565 863 c 259xec
565 124 m 259
 395 124 227 245 227 423 c 3
 227 583 375 727 565 727 c 259
 755 727 903 583 903 423 c 259xf2
 903 245 735 124 565 124 c 259
81 423 m 3
 81 211 246 -12 565 -12 c 3
 884 -12 1049 211 1049 423 c 3xf2
 1049 578 985 748 771 804 c 1
 917 858 988 958 988 1107 c 3
 988 1328 820 1480 565 1480 c 3
 310 1480 142 1328 142 1107 c 3xec
 142 958 215 858 361 804 c 1
 147 748 81 578 81 423 c 3
EndSplineSet
EndChar

StartChar: nine
Encoding: 57 57 29
Width: 1137
VWidth: 2045
Flags: W
HStem: -12 136<420.933 737.914> 495 136<432.71 734.757> 1344 136<431.081 732.133>
VStem: 113 146<814.898 1165.74> 139 146<263.077 369> 933 146<380.697 713>
LayerCount: 2
Fore
SplineSet
573 1344 m 259xf4
 413 1344 259 1190 259 988 c 259
 259 782 417 631 573 631 c 259
 760 631 906 790 906 988 c 259
 906 1171 773 1344 573 1344 c 259xf4
1079 748 m 3
 1079 353 971 -12 573 -12 c 3
 324 -12 156 154 139 369 c 9
 285 369 l 1xec
 305 239 420 124 573 124 c 3
 849 124 933 382 933 713 c 1
 870 578 782 495 573 495 c 3
 314 495 113 690 113 980 c 3
 113 1286 310 1480 573 1480 c 3
 877 1480 1079 1284 1079 748 c 3
EndSplineSet
EndChar

StartChar: colon
Encoding: 58 58 30
Width: 568
VWidth: 2045
Flags: W
HStem: 0 205<238 390> 856 204<238 390>
VStem: 238 152<0 205 856 1060>
LayerCount: 2
Fore
SplineSet
238 856 m 1
 238 1060 l 1
 390 1060 l 1
 390 856 l 1
 238 856 l 1
238 0 m 1
 238 205 l 1
 390 205 l 1
 390 0 l 1
 238 0 l 1
EndSplineSet
EndChar

StartChar: semicolon
Encoding: 59 59 31
Width: 568
VWidth: 2045
Flags: W
HStem: 856 204<220 388>
VStem: 220 168<0 205 856 1060> 291 97<-162.106 0>
LayerCount: 2
Fore
SplineSet
220 856 m 1xc0
 220 1060 l 1
 388 1060 l 1
 388 856 l 1
 220 856 l 1xc0
220 0 m 1
 220 205 l 1
 388 205 l 1
 388 0 l 2
 388 -159 323 -244 220 -290 c 1xc0
 177 -221 l 1
 283 -173 291 -49 291 0 c 1xa0
 220 0 l 1
EndSplineSet
EndChar

StartChar: less
Encoding: 60 60 32
Width: 1350
VWidth: 2045
Flags: W
DStem2: 174 785 320 723 0.913501 0.406837<108.147 1006.52> 320 723 174 663 0.912097 -0.409974<0 902.029>
LayerCount: 2
Fore
SplineSet
174 663 m 1
 174 785 l 1
 1144 1217 l 1
 1144 1081 l 1
 320 723 l 1
 1144 356 l 1
 1144 227 l 1
 174 663 l 1
EndSplineSet
EndChar

StartChar: equal
Encoding: 61 61 33
Width: 1350
VWidth: 2045
Flags: W
HStem: 437 136<189 1157> 877 136<189 1157>
LayerCount: 2
Fore
SplineSet
1157 877 m 1
 189 877 l 1
 189 1013 l 1
 1157 1013 l 1
 1157 877 l 1
1157 437 m 1
 189 437 l 1
 189 573 l 1
 1157 573 l 1
 1157 437 l 1
EndSplineSet
EndChar

StartChar: greater
Encoding: 62 62 34
Width: 1350
VWidth: 2045
Flags: W
DStem2: 189 1217 188 1081 0.913501 -0.406837<54.4164 951.875> 188 356 189 227 0.912097 0.409974<0 901.116>
LayerCount: 2
Fore
SplineSet
1159 663 m 1
 1159 785 l 1
 189 1217 l 1
 188 1081 l 1
 1011 723 l 1
 188 356 l 1
 189 227 l 1
 1159 663 l 1
EndSplineSet
EndChar

StartChar: question
Encoding: 63 63 35
Width: 1022
VWidth: 2045
Flags: W
HStem: 0 205<430 589> 1368 136<338.214 678.074>
VStem: 37 146<1045 1213.51> 430 159<0 205 361 571.913> 836 146<946.064 1218.19>
CounterMasks: 1 38
LayerCount: 2
Fore
SplineSet
511 1504 m 3
 777 1504 982 1336 982 1084 c 3
 982 707 582 779 582 361 c 9
 436 361 l 17
 436 815 836 799 836 1088 c 3
 836 1200 722 1368 514 1368 c 3
 285 1368 184 1202 183 1045 c 1
 37 1045 l 1
 49 1299 227 1504 511 1504 c 3
430 0 m 1
 430 205 l 1
 589 205 l 1
 589 0 l 1
 430 0 l 1
EndSplineSet
EndChar

StartChar: at
Encoding: 64 64 36
Width: 1635
VWidth: 2045
Flags: W
HStem: -430 124<601.352 1271.03> -12 124<554.624 827.514 1150.41 1357.76> 961 124<672.38 1001.06> 1040 20G<1177.25 1322> 1369 124<639.198 1147.81>
VStem: -88 127<200.391 774.432> 303 127<254.812 674.238> 1629 127<491.351 933.101>
LayerCount: 2
Fore
SplineSet
303 461 m 3xdf
 303 801 564 1085 808 1085 c 3xef
 943 1085 1074 1041 1153 938 c 1
 1182 1060 l 1
 1322 1060 l 1
 1159 257 l 2
 1151 217 1146 190 1146 175 c 3
 1146 141 1183 112 1223 112 c 3
 1498 112 1629 559 1629 709 c 3
 1629 1164 1199 1369 896 1369 c 3
 465 1369 39 1044 39 479 c 3
 39 -147 544 -306 933 -306 c 3
 1414 -306 1569 -102 1655 18 c 1
 1805 18 l 1
 1756 -83 1538 -430 929 -430 c 3
 448 -430 -88 -222 -88 468 c 3
 -88 1117 364 1493 914 1493 c 3
 1318 1493 1756 1248 1756 722 c 3
 1756 482 1583 -12 1154 -12 c 3
 1094 -12 982 24 982 145 c 1
 882 46 773 -12 656 -12 c 3
 508 -12 303 123 303 461 c 3xdf
823 961 m 3
 594 961 430 681 430 462 c 3
 430 192 586 112 686 112 c 3
 957 112 1097 473 1097 668 c 3
 1097 838 1042 961 823 961 c 3
EndSplineSet
EndChar

StartChar: A
Encoding: 65 65 37
Width: 1364
VWidth: 2045
Flags: W
HStem: 0 21G<-3 167.051 1195.43 1366> 467 136<402 945> 1430 20G<573.931 752.579>
DStem2: -3 0 159 0 0.374146 0.92737<60.6116 564.033 710.733 1413.78> 744 1450 665 1255 0.394225 -0.919014<148.064 857.644 1005.89 1513.91>
LayerCount: 2
Back
SplineSet
744 1450 m 1
 159 0 l 1
 -3 0 l 1
 582 1450 l 1
 744 1450 l 1
974 603 m 1
 1020 467 l 1
 318 467 l 1
 361 603 l 1
 974 603 l 1
744 1450 m 1
 1366 0 l 1
 1204 0 l 1
 582 1450 l 1
 744 1450 l 1
EndSplineSet
Fore
SplineSet
945 603 m 1
 665 1255 l 1
 402 603 l 1
 945 603 l 1
1004 467 m 1
 347 467 l 1
 159 0 l 1
 -3 0 l 1
 582 1450 l 1
 744 1450 l 1
 1366 0 l 1
 1204 0 l 1
 1004 467 l 1
EndSplineSet
EndChar

StartChar: B
Encoding: 66 66 38
Width: 1364
VWidth: 2045
Flags: W
HStem: 0 136<311 971.696> 687 136<311 926.093> 1314 136<311 917.671>
VStem: 165 146<136 687 823 1314> 1039 146<921.831 1207.74> 1110 146<265.837 559.27>
LayerCount: 2
Fore
SplineSet
1256 429 m 3xf4
 1256 265 1181 0 753 0 c 2
 165 0 l 1
 165 1450 l 1
 698 1450 l 2
 1131 1450 1185 1189 1185 1080 c 3xf8
 1185 1001 1152 856 980 772 c 1
 1175 713 1256 566 1256 429 c 3xf4
729 823 m 2
 855 823 1039 865 1039 1052 c 3
 1039 1209 962 1314 704 1314 c 2
 311 1314 l 1
 311 823 l 1
 729 823 l 2
1110 420 m 3xf4
 1110 612 925 687 750 687 c 2
 311 687 l 1
 311 136 l 1
 778 136 l 2
 1058 136 1110 327 1110 420 c 3xf4
EndSplineSet
EndChar

StartChar: C
Encoding: 67 67 39
Width: 1477
VWidth: 2045
Flags: W
HStem: -12 136<567.379 1026.14> 1344 136<562.982 1003.37>
VStem: 102 146<473.094 1008.74> 1226 146<1050 1141.69> 1250 146<344.504 480>
LayerCount: 2
Fore
SplineSet
787 124 m 3xf0
 1062 124 1203 248 1250 480 c 1
 1396 480 l 1xe8
 1341 206 1120 -12 817 -12 c 3
 328 -12 102 311 102 745 c 3
 102 1187 386 1480 793 1480 c 3
 1100 1480 1298 1305 1372 1050 c 1
 1226 1050 l 1
 1151 1283 937 1344 790 1344 c 3
 456 1344 248 1107 248 746 c 3
 248 383 431 124 787 124 c 3xf0
EndSplineSet
EndChar

StartChar: D
Encoding: 68 68 40
Width: 1477
VWidth: 2045
Flags: W
HStem: 0 136<314 922.019> 1314 136<314 942.408>
VStem: 168 146<136 1314> 1232 146<458.532 1021.42>
LayerCount: 2
Fore
SplineSet
672 1450 m 2
 1237 1450 1378 1147 1378 733 c 3
 1378 350 1241 0 695 0 c 2
 168 0 l 1
 168 1450 l 1
 672 1450 l 2
314 136 m 1
 689 136 l 2
 1126 136 1232 456 1232 736 c 3
 1232 1054 1125 1314 685 1314 c 2
 314 1314 l 1
 314 136 l 1
EndSplineSet
EndChar

StartChar: E
Encoding: 69 69 41
Width: 1209
VWidth: 2045
Flags: W
HStem: 0 136<237 1151> 668 136<237 950> 1314 136<237 1151>
VStem: 91 146<136 668 804 1314>
LayerCount: 2
Fore
SplineSet
91 0 m 1
 91 1450 l 1
 1151 1450 l 1
 1151 1314 l 1
 237 1314 l 1
 237 804 l 1
 950 804 l 1
 950 668 l 1
 237 668 l 1
 237 136 l 1
 1151 136 l 1
 1151 0 l 1
 91 0 l 1
EndSplineSet
EndChar

StartChar: F
Encoding: 70 70 42
Width: 1137
VWidth: 2045
Flags: W
HStem: 0 21G<91 237> 663 136<237 932> 1314 136<237 1079>
VStem: 91 146<0 663 799 1314>
LayerCount: 2
Fore
SplineSet
91 0 m 1
 91 1450 l 1
 1079 1450 l 1
 1079 1314 l 1
 237 1314 l 1
 237 799 l 1
 932 799 l 1
 932 663 l 1
 237 663 l 1
 237 0 l 1
 91 0 l 1
EndSplineSet
EndChar

StartChar: G
Encoding: 71 71 43
Width: 1590
VWidth: 2045
Flags: W
HStem: -12 136<610.542 1047.52> 1344 136<605.994 1050.58>
VStem: 148 146<477.943 1009.23> 1272 146<1050 1149.78> 1302 146<361.949 541>
LayerCount: 2
Fore
SplineSet
835 -12 m 3xf0
 1207 -12 1444 191 1448 539 c 1
 1448 677 l 1
 950 677 l 1
 950 541 l 1
 1302 541 l 1xe8
 1302 414 1223 124 815 124 c 3
 513 124 294 351 294 753 c 3
 294 1101 495 1344 827 1344 c 3
 1155 1344 1250 1135 1272 1050 c 1
 1418 1050 l 1
 1345 1304 1147 1480 839 1480 c 3
 434 1480 148 1189 148 745 c 3
 148 283 413 -12 835 -12 c 3xf0
EndSplineSet
EndChar

StartChar: H
Encoding: 72 72 44
Width: 1477
VWidth: 2045
Flags: W
HStem: 0 21G<165 311 1167 1313> 689 136<311 1167> 1430 20G<165 311 1167 1313>
VStem: 165 146<0 689 825 1450> 1167 146<0 689 825 1450>
LayerCount: 2
Fore
SplineSet
165 0 m 1
 165 1450 l 1
 311 1450 l 1
 311 825 l 1
 1167 825 l 1
 1167 1450 l 1
 1313 1450 l 1
 1313 0 l 1
 1167 0 l 1
 1167 689 l 1
 311 689 l 1
 311 0 l 1
 165 0 l 1
EndSplineSet
EndChar

StartChar: I
Encoding: 73 73 45
Width: 568
VWidth: 2045
Flags: W
HStem: 0 21G<223 369> 1430 20G<223 369>
VStem: 223 146<0 1450>
LayerCount: 2
Fore
SplineSet
223 0 m 1
 223 1450 l 1
 369 1450 l 1
 369 0 l 1
 223 0 l 1
EndSplineSet
EndChar

StartChar: J
Encoding: 74 74 46
Width: 1022
VWidth: 2045
Flags: W
HStem: -12 136<317.445 619.515> 1430 20G<718 864>
VStem: 64 146<244.484 452> 718 146<228.612 1450>
LayerCount: 2
Fore
SplineSet
718 1450 m 17
 864 1450 l 1
 864 453 l 2
 864 190 778 -12 463 -12 c 3
 73 -12 64 372 64 452 c 1
 210 452 l 17
 210 259 287 124 460 124 c 3
 643 124 718 230 718 405 c 10
 718 1450 l 17
EndSplineSet
EndChar

StartChar: K
Encoding: 75 75 47
Width: 1364
VWidth: 2045
Flags: W
HStem: 0 21G<149 295 1146.79 1345> 1430 20G<149 295 1101.91 1314>
VStem: 149 146<0 568 731 1450>
DStem2: 295 731 295 568 0.756105 0.65445<0 154.29 283.26 1098.12> 590 823 493 738 0.676008 -0.736894<0 995.169>
LayerCount: 2
Fore
SplineSet
149 0 m 1
 149 1450 l 1
 295 1450 l 1
 295 731 l 1
 1125 1450 l 1
 1314 1450 l 1
 590 823 l 1
 1345 0 l 1
 1165 0 l 1
 493 738 l 1
 295 568 l 1
 295 0 l 1
 149 0 l 1
EndSplineSet
EndChar

StartChar: L
Encoding: 76 76 48
Width: 1137
VWidth: 2045
Flags: W
HStem: 0 136<295 1058> 1430 20G<149 295>
VStem: 149 146<136 1450>
LayerCount: 2
Fore
SplineSet
149 0 m 1
 149 1450 l 1
 295 1450 l 1
 295 136 l 1
 1058 136 l 1
 1058 0 l 1
 149 0 l 1
EndSplineSet
EndChar

StartChar: M
Encoding: 77 77 49
Width: 1702
VWidth: 2045
Flags: W
HStem: 0 21G<152 298 787.301 911.734 1403 1549> 1430 20G<152 306.547 1394.47 1549>
VStem: 152 146<0 1145> 1403 146<0 1145>
DStem2: 298 1450 298 1145 0.392976 -0.919549<280.462 1407.21> 851 156 903 0 0.392375 0.919806<0 1126.28>
LayerCount: 2
Fore
SplineSet
152 0 m 1
 152 1450 l 1
 298 1450 l 1
 851 156 l 1
 1403 1450 l 1
 1549 1450 l 1
 1549 0 l 1
 1403 0 l 1
 1403 1145 l 1
 903 0 l 1
 796 0 l 1
 298 1145 l 1
 298 0 l 1
 152 0 l 1
EndSplineSet
EndChar

StartChar: N
Encoding: 78 78 50
Width: 1477
VWidth: 2045
Flags: W
HStem: 0 21G<156 302 1149.14 1309> 1430 20G<156 315.865 1163 1309>
VStem: 156 146<0 1242> 1163 146<208 1450>
DStem2: 302 1450 302 1242 0.569726 -0.821835<170.942 1511.25>
LayerCount: 2
Fore
SplineSet
156 0 m 1
 156 1450 l 1
 302 1450 l 1
 1163 208 l 1
 1163 1450 l 1
 1309 1450 l 1
 1309 0 l 1
 1163 0 l 1
 302 1242 l 1
 302 0 l 1
 156 0 l 1
EndSplineSet
EndChar

StartChar: O
Encoding: 79 79 51
Width: 1590
VWidth: 2045
Flags: W
HStem: -12 136<600.061 997.939> 1344 136<600.061 997.939>
VStem: 99 146<493.352 974.648> 1353 146<493.352 974.648>
LayerCount: 2
Fore
SplineSet
99 734 m 259
 99 1187 392 1480 799 1480 c 259
 1206 1480 1499 1187 1499 734 c 259
 1499 281 1206 -12 799 -12 c 259
 392 -12 99 281 99 734 c 259
799 1344 m 259
 503 1344 245 1087 245 734 c 259
 245 381 503 124 799 124 c 259
 1095 124 1353 381 1353 734 c 259
 1353 1087 1095 1344 799 1344 c 259
EndSplineSet
EndChar

StartChar: P
Encoding: 80 80 52
Width: 1248
VWidth: 2045
Flags: W
HStem: 0 21G<88 234> 580 136<234 884.811> 1314 136<234 903.34>
VStem: 88 146<0 580 716 1314> 1061 146<873.017 1181.67>
LayerCount: 2
Fore
SplineSet
88 0 m 1
 88 1450 l 1
 672 1450 l 2
 844 1450 1207 1438 1207 1026 c 3
 1207 758 1055 580 659 580 c 2
 234 580 l 1
 234 0 l 1
 88 0 l 1
662 716 m 2
 1009 716 1061 920 1061 1040 c 3
 1061 1150 1000 1314 659 1314 c 2
 234 1314 l 1
 234 716 l 1
 662 716 l 2
EndSplineSet
EndChar

StartChar: Q
Encoding: 81 81 53
Width: 1590
VWidth: 2045
Flags: W
HStem: -12 136<577.012 985.828 1279.72 1527.21> 341 136<654.352 975.223> 1344 136<582.061 979.939>
VStem: 81 146<497.273 974.648> 1335 146<496.154 974.648>
LayerCount: 2
Back
SplineSet
81 734 m 259
 81 1187 374 1480 781 1480 c 259
 1188 1480 1481 1187 1481 734 c 259
 1481 281 1188 -12 781 -12 c 259
 374 -12 81 281 81 734 c 259
781 1344 m 259
 485 1344 227 1087 227 734 c 259
 227 381 485 124 781 124 c 259
 1077 124 1335 381 1335 734 c 259
 1335 1087 1077 1344 781 1344 c 259
1392 124 m 3
 1463 124 1524 156 1552 194 c 1
 1634 79 l 1
 1579 18 1497 -12 1387 -12 c 3
 1062 -12 1170 341 781 341 c 3
 645 341 525 189 525 102 c 1
 408 147 l 1
 408 276 585 477 781 477 c 3
 1239 477 1173 124 1392 124 c 3
EndSplineSet
Fore
SplineSet
1392 124 m 3
 1463 124 1524 156 1552 194 c 1
 1634 79 l 1
 1579 18 1497 -12 1387 -12 c 3
 1270 -12 1209 34 1161 92 c 1
 1054 25 925 -12 781 -12 c 3
 374 -12 81 281 81 734 c 3
 81 1187 374 1480 781 1480 c 3
 1188 1480 1481 1187 1481 734 c 3
 1481 499 1402 307 1270 177 c 1
 1301 145 1338 124 1392 124 c 3
781 1344 m 3
 485 1344 227 1087 227 734 c 3
 227 532 312 362 439 253 c 1
 498 364 634 477 781 477 c 3
 1008 477 1107 391 1175 303 c 1
 1273 411 1335 561 1335 734 c 3
 1335 1087 1077 1344 781 1344 c 3
1071 214 m 1
 1015 283 939 341 781 341 c 3
 681 341 589 258 548 180 c 1
 620 144 699 124 781 124 c 3
 886 124 985 157 1071 214 c 1
EndSplineSet
EndChar

StartChar: R
Encoding: 82 82 54
Width: 1364
VWidth: 2045
Flags: W
HStem: 0 21G<98 244 1152.31 1325> 580 136<244 713> 1314 136<244 910.475>
VStem: 98 146<0 580 716 1314> 1068 146<848.466 1175.82>
DStem2: 863 595 713 580 0.613297 -0.789852<0 657.018>
LayerCount: 2
Fore
SplineSet
1214 1037 m 3
 1214 764 1068 640 863 595 c 1
 1325 0 l 1
 1168 0 l 1
 713 580 l 1
 244 580 l 1
 244 0 l 1
 98 0 l 1
 98 1450 l 1
 683 1450 l 2
 1124 1450 1214 1232 1214 1037 c 3
700 716 m 2
 968 716 1068 832 1068 1020 c 3
 1068 1138 1002 1314 695 1314 c 2
 244 1314 l 1
 244 716 l 1
 700 716 l 2
EndSplineSet
EndChar

StartChar: S
Encoding: 83 83 55
Width: 1248
VWidth: 2045
Flags: W
HStem: -12 136<409.557 897.3> 1344 136<392.658 824.624>
VStem: 46 146<315.797 501> 102 146<968.316 1219.97> 1022 146<1018 1158.8> 1066 146<270.289 524.268>
LayerCount: 2
Fore
SplineSet
625 1344 m 3xd4
 834 1344 999 1231 1022 1018 c 9
 1168 1018 l 1
 1151 1318 912 1480 606 1480 c 3
 239 1480 102 1239 102 1066 c 3xd8
 102 840 334 735 592 689 c 0
 978 621 1066 524 1066 414 c 3
 1066 317 1006 124 662 124 c 3
 263 124 192 351 192 501 c 9
 46 501 l 17xe4
 46 297 147 -12 689 -12 c 3
 1115 -12 1212 287 1212 429 c 3
 1212 560 1113 750 617 835 c 0
 436 866 248 932 248 1078 c 3
 248 1182 306 1344 625 1344 c 3xd4
EndSplineSet
EndChar

StartChar: T
Encoding: 84 84 56
Width: 1137
VWidth: 2045
Flags: W
HStem: 0 21G<494 640> 1314 136<18 494 640 1119>
VStem: 494 146<0 1314>
LayerCount: 2
Fore
SplineSet
494 0 m 1
 494 1314 l 1
 18 1314 l 1
 18 1450 l 1
 1119 1450 l 1
 1119 1314 l 1
 640 1314 l 1
 640 0 l 1
 494 0 l 1
EndSplineSet
EndChar

StartChar: U
Encoding: 85 85 57
Width: 1477
VWidth: 2045
Flags: W
HStem: -12 136<515.553 960.222> 1430 20G<162 308 1167 1313>
VStem: 162 146<340.73 1450> 1167 146<340.73 1450>
LayerCount: 2
Fore
SplineSet
738 124 m 3
 962 124 1167 218 1167 568 c 2
 1167 1450 l 1
 1313 1450 l 1
 1313 566 l 2
 1313 103 1044 -12 738 -12 c 3
 432 -12 162 103 162 566 c 2
 162 1450 l 1
 308 1450 l 1
 308 568 l 2
 308 218 514 124 738 124 c 3
EndSplineSet
EndChar

StartChar: V
Encoding: 86 86 58
Width: 1248
VWidth: 2045
Flags: W
HStem: 0 21G<553.386 690.697> 1430 20G<9 172.419 1090.27 1241>
DStem2: 165 1450 9 1450 0.355781 -0.934569<0 1313.98> 622 218 683 0 0.359152 0.933279<0 1320.76>
LayerCount: 2
Fore
SplineSet
561 0 m 1
 9 1450 l 1
 165 1450 l 1
 622 218 l 1
 1098 1450 l 1
 1241 1450 l 1
 683 0 l 1
 561 0 l 1
EndSplineSet
EndChar

StartChar: W
Encoding: 87 87 59
Width: 1818
VWidth: 2045
Flags: W
HStem: 0 21G<430.317 578.663 1256.45 1405.46> 1430 20G<24 176.563 851.372 1001.6 1644.93 1796>
DStem2: 171 1450 24 1450 0.273319 -0.961923<0 1272.52> 512 224 573 0 0.272446 0.962171<0 1078.41> 996 1450 921 1229 0.267361 -0.963597<192.903 1273.07> 1339 224 1400 0 0.263455 0.964672<0 1264.62>
LayerCount: 2
Fore
SplineSet
436 0 m 1
 24 1450 l 1
 171 1450 l 1
 512 224 l 1
 857 1450 l 1
 996 1450 l 1
 1339 224 l 1
 1650 1450 l 1
 1796 1450 l 1
 1400 0 l 1
 1262 0 l 1
 921 1229 l 1
 573 0 l 1
 436 0 l 1
EndSplineSet
EndChar

StartChar: X
Encoding: 88 88 60
Width: 1248
VWidth: 2045
Flags: W
HStem: 0 21G<9 199.912 1055.06 1244> 1430 20G<76 265.593 1014.5 1204>
DStem2: 9 0 186 0 0.574976 0.81817<101.771 874.055 1055.69 1772.25> 253 1450 76 1450 0.559612 -0.828754<0 701.575 885.559 1658.34>
LayerCount: 2
Fore
SplineSet
9 0 m 1
 540 740 l 1
 76 1450 l 1
 253 1450 l 1
 627 856 l 1
 1028 1450 l 1
 1204 1450 l 1
 713 740 l 1
 1244 0 l 1
 1069 0 l 1
 627 634 l 1
 186 0 l 1
 9 0 l 1
EndSplineSet
EndChar

StartChar: Y
Encoding: 89 89 61
Width: 1248
VWidth: 2045
Flags: W
HStem: 0 21G<542 688> 1430 20G<6 195.756 1053.27 1241>
VStem: 542 146<0 621>
DStem2: 183 1450 6 1450 0.542957 -0.83976<0 821.941> 625 757 688 621 0.554932 0.831896<0 821.229>
LayerCount: 2
Fore
SplineSet
542 0 m 1
 542 621 l 1
 6 1450 l 1
 183 1450 l 1
 625 757 l 1
 1066 1450 l 1
 1241 1450 l 1
 688 621 l 1
 688 0 l 1
 542 0 l 1
EndSplineSet
EndChar

StartChar: Z
Encoding: 90 90 62
Width: 1248
VWidth: 2045
Flags: W
HStem: 0 136<233 1198> 1314 136<46 1035>
LayerCount: 2
Fore
SplineSet
41 0 m 1
 41 144 l 1
 1035 1314 l 1
 46 1314 l 1
 46 1450 l 1
 1212 1450 l 1
 1212 1314 l 1
 233 136 l 1
 1198 136 l 1
 1198 0 l 1
 41 0 l 1
EndSplineSet
EndChar

StartChar: bracketleft
Encoding: 91 91 63
Width: 681
VWidth: 2045
Flags: W
HStem: -408 136<285 535> 1329 136<285 535>
VStem: 139 396<-408 -272 1329 1465> 139 146<-272 1329>
LayerCount: 2
Fore
SplineSet
139 -408 m 1xe0
 139 1465 l 1
 535 1465 l 1
 535 1329 l 1xe0
 285 1329 l 1
 285 -272 l 1xd0
 535 -272 l 1
 535 -408 l 1
 139 -408 l 1xe0
EndSplineSet
EndChar

StartChar: backslash
Encoding: 92 92 64
Width: 568
VWidth: 2045
Flags: W
VStem: 0 531
DStem2: 107 1489 0 1489 0.269842 -0.962905<0 1542.41>
LayerCount: 2
Fore
SplineSet
424 -24 m 1
 0 1489 l 1
 107 1489 l 1
 531 -24 l 1
 424 -24 l 1
EndSplineSet
EndChar

StartChar: bracketright
Encoding: 93 93 65
Width: 681
VWidth: 2045
Flags: W
HStem: -408 136<146 396> 1329 136<146 396>
VStem: 146 396<-408 -272 1329 1465> 396 146<-272 1329>
LayerCount: 2
Fore
SplineSet
542 -408 m 1xe0
 146 -408 l 1
 146 -272 l 1xe0
 396 -272 l 1
 396 1329 l 1xd0
 146 1329 l 1
 146 1465 l 1
 542 1465 l 1
 542 -408 l 1xe0
EndSplineSet
EndChar

StartChar: asciicircum
Encoding: 94 94 66
Width: 1350
VWidth: 2045
Flags: W
DStem2: 238 689 375 689 0.400399 0.916341<54.8546 786.467> 735 1490 662 1362 0.404231 -0.914657<87.5673 817.529>
LayerCount: 2
Fore
SplineSet
375 689 m 1
 238 689 l 1
 588 1490 l 1
 735 1490 l 1
 1089 689 l 1
 945 689 l 1
 662 1362 l 1
 375 689 l 1
EndSplineSet
EndChar

StartChar: underscore
Encoding: 95 95 67
Width: 1022
VWidth: 2045
Flags: W
HStem: -408 94<-30 1055>
LayerCount: 2
Fore
SplineSet
-30 -408 m 1
 -30 -314 l 1
 1055 -314 l 1
 1055 -408 l 1
 -30 -408 l 1
EndSplineSet
EndChar

StartChar: grave
Encoding: 96 96 68
Width: 681
VWidth: 2045
Flags: W
HStem: 1193 281
VStem: 134 339
LayerCount: 2
Fore
SplineSet
473 1193 m 1
 366 1193 l 1
 134 1474 l 1
 337 1474 l 1
 473 1193 l 1
EndSplineSet
EndChar

StartChar: a
Encoding: 97 97 69
Width: 1137
VWidth: 2045
Flags: W
HStem: -12 124<288.091 696.969> 961 124<364.423 769.868>
VStem: 75 127<186.507 401.171> 105 127<756.742 836.117> 867 127<278.875 468 650.338 675 687 869.262>
LayerCount: 2
Fore
SplineSet
232 739 m 1xd8
 270 875 363 961 555 961 c 3
 755 961 867 885 867 757 c 2
 867 675 l 2
 867 652 764 633 549 609 c 0
 221 573 75 479 75 290 c 3xe8
 75 95 222 -12 436 -12 c 3
 625 -12 785 52 867 131 c 1
 872 80 884 36 902 0 c 1
 1052 0 l 1
 998 91 994 141 994 445 c 2
 994 687 l 2
 994 890 984 1085 582 1085 c 3
 303 1085 155 986 105 759 c 1
 232 739 l 1xd8
482 112 m 3
 362 112 202 153 202 287 c 3
 202 449 388 489 553 504 c 0
 650 513 756 533 867 566 c 1
 867 468 l 2
 867 214 708 112 482 112 c 3
EndSplineSet
EndChar

StartChar: b
Encoding: 98 98 70
Width: 1248
VWidth: 2045
Flags: W
HStem: -12 124<463.868 786.759> 961 124<470.729 794.957> 1444 20G<171 298>
VStem: 171 127<-2 142 300.379 766.384 918 1464> 965 127<311.492 761.145>
LayerCount: 2
Fore
SplineSet
628 112 m 259
 831 112 965 288 965 538 c 259
 965 700 899 961 628 961 c 259
 462 961 298 832 298 538 c 259
 298 304 401 112 628 112 c 259
1092 545 m 3
 1092 200 915 -12 620 -12 c 3
 414 -12 305 129 298 142 c 1
 298 -2 l 1
 171 -2 l 1
 171 1464 l 1
 298 1464 l 1
 298 918 l 1
 377 1027 491 1085 642 1085 c 3
 942 1085 1092 831 1092 545 c 3
EndSplineSet
EndChar

StartChar: c
Encoding: 99 99 71
Width: 1137
VWidth: 2045
Flags: W
HStem: -12 124<397.841 769.241> 961 124<398.905 762.899>
VStem: 95 127<309.492 767.668> 891 127<238.778 402 695 828.975>
LayerCount: 2
Fore
SplineSet
1018 402 m 1
 1018 190 870 -12 594 -12 c 3
 315 -12 95 184 95 527 c 3
 95 881 282 1085 579 1085 c 3
 929 1085 1017 851 1017 695 c 1
 891 695 l 1
 873 833 797 961 585 961 c 3
 351 961 222 808 222 532 c 3
 222 247 375 112 576 112 c 3
 816 112 878 234 891 402 c 1
 1018 402 l 1
EndSplineSet
EndChar

StartChar: d
Encoding: 100 100 72
Width: 1248
VWidth: 2045
Flags: W
HStem: -12 124<462.266 777.566> 961 124<453.724 779.486>
VStem: 156 127<315.237 762.496> 946 127<294.961 768.415>
LayerCount: 2
Fore
SplineSet
616 112 m 259
 413 112 283 296 283 537 c 259
 283 693 345 961 616 961 c 259
 808 961 946 817 946 537 c 259
 946 192 751 112 616 112 c 259
156 547 m 3
 156 208 321 -12 633 -12 c 3
 840 -12 939 131 946 144 c 1
 946 0 l 1
 1073 0 l 1
 1073 1465 l 1
 946 1465 l 1
 946 920 l 1
 869 1029 756 1085 604 1085 c 3
 254 1085 156 770 156 547 c 3
EndSplineSet
EndChar

StartChar: e
Encoding: 101 101 73
Width: 1137
VWidth: 2045
Flags: W
HStem: -12 124<381.254 768.652> 494 124<216 915> 961 124<392.912 759.958>
VStem: 75 138<284.562 494 618 777.696>
LayerCount: 2
Fore
SplineSet
570 1085 m 3
 867 1085 1052 893 1052 494 c 1
 213 494 l 1
 213 304 287 112 582 112 c 3
 700 112 843 148 915 329 c 1
 1046 329 l 1
 978 -6 647 -12 579 -12 c 3
 169 -12 75 273 75 512 c 3
 75 898 282 1085 570 1085 c 3
915 618 m 1
 893 904 722 961 573 961 c 3
 398 961 222 850 216 618 c 1
 915 618 l 1
EndSplineSet
EndChar

StartChar: f
Encoding: 102 102 74
Width: 568
VWidth: 2045
Flags: W
HStem: 0 21G<177 304> 936 124<18 177 304 535> 1391 124<375.342 637.565>
VStem: 177 127<0 936 1060 1316.64>
LayerCount: 2
Fore
SplineSet
500 1391 m 3
 451 1391 304 1366 304 1170 c 2
 304 1060 l 1
 535 1060 l 1
 535 936 l 1
 304 936 l 1
 304 0 l 1
 177 0 l 1
 177 936 l 1
 18 936 l 1
 18 1060 l 1
 177 1060 l 1
 177 1175 l 2
 177 1447 353 1515 486 1515 c 3
 537 1515 589 1506 640 1488 c 1
 640 1363 l 1
 587 1382 541 1391 500 1391 c 3
EndSplineSet
EndChar

StartChar: g
Encoding: 103 103 75
Width: 1248
VWidth: 2045
Flags: W
HStem: -435 124<415.388 800.501> -12 124<455.348 774.162> 961 124<457.001 775.717>
VStem: 149 127<314.248 757.151> 186 127<-210.902 -74> 959 127<-133.837 145 318.47 757.771>
LayerCount: 2
Fore
SplineSet
614 112 m 259xf4
 390 112 276 314 276 540 c 259
 276 757 393 961 614 961 c 259
 813 961 959 791 959 540 c 259
 959 198 739 112 614 112 c 259xf4
604 -311 m 3
 422 -311 329 -240 313 -74 c 9
 186 -74 l 1xec
 186 -194 246 -435 617 -435 c 3
 1026 -435 1086 -185 1086 133 c 2
 1086 1060 l 1
 959 1060 l 1
 959 932 l 1
 885 1027 779 1085 616 1085 c 3
 316 1085 149 849 149 537 c 3
 149 242 314 -12 593 -12 c 3
 753 -12 882 55 959 187 c 1
 959 145 l 2
 959 -141 884 -311 604 -311 c 3
EndSplineSet
EndChar

StartChar: h
Encoding: 104 104 76
Width: 1137
VWidth: 2045
Flags: W
HStem: 0 21G<134 261 873 1000> 961 124<423.342 767.001> 1445 20G<134 261>
VStem: 134 127<0 785.691 900 1465> 873 127<0 850.979>
LayerCount: 2
Fore
SplineSet
873 666 m 2
 873 901 739 961 595 961 c 3
 306 961 261 679 261 634 c 2
 261 0 l 1
 134 0 l 1
 134 1465 l 1
 261 1465 l 1
 261 900 l 1
 368 1070 546 1085 599 1085 c 3
 920 1085 1000 847 1000 665 c 2
 1000 0 l 1
 873 0 l 1
 873 666 l 2
EndSplineSet
EndChar

StartChar: i
Encoding: 105 105 77
Width: 454
VWidth: 2045
Flags: W
HStem: 0 21G<159 286> 1040 20G<159 286> 1258 207<159 286>
VStem: 159 127<0 1060 1258 1465>
LayerCount: 2
Fore
SplineSet
159 1258 m 1
 159 1465 l 1
 286 1465 l 1
 286 1258 l 1
 159 1258 l 1
159 0 m 1
 159 1060 l 1
 286 1060 l 1
 286 0 l 1
 159 0 l 1
EndSplineSet
EndChar

StartChar: j
Encoding: 106 106 78
Width: 454
VWidth: 2045
Flags: W
HStem: -429 124<-92.5075 125.332> 1040 20G<188 315> 1258 207<188 315>
VStem: 188 127<-236.633 1060 1258 1465>
LayerCount: 2
Fore
SplineSet
188 1258 m 1
 188 1465 l 1
 315 1465 l 1
 315 1258 l 1
 188 1258 l 1
315 -57 m 2
 315 -250 260 -429 40 -429 c 3
 -1 -429 -46 -423 -95 -411 c 1
 -95 -296 l 1
 -37 -305 -17 -305 3 -305 c 3
 59 -305 188 -298 188 -54 c 2
 188 1060 l 1
 315 1060 l 1
 315 -57 l 2
EndSplineSet
EndChar

StartChar: k
Encoding: 107 107 79
Width: 1022
VWidth: 2045
Flags: W
HStem: 0 21G<136 263 855.028 1015> 1040 20G<800.786 974> 1445 20G<136 263>
VStem: 136 127<0 378 533 1465>
DStem2: 263 533 263 378 0.721671 0.692236<0 176.324 293.045 768.223> 553 654 468 574 0.576977 -0.81676<16.2977 716.486>
LayerCount: 2
Fore
SplineSet
136 0 m 1
 136 1465 l 1
 263 1465 l 1
 263 533 l 1
 822 1060 l 1
 974 1060 l 1
 553 654 l 1
 1015 0 l 1
 869 0 l 1
 468 574 l 1
 263 378 l 1
 263 0 l 1
 136 0 l 1
EndSplineSet
EndChar

StartChar: l
Encoding: 108 108 80
Width: 454
VWidth: 2045
Flags: W
HStem: 0 21G<162 289> 1445 20G<162 289>
VStem: 162 127<0 1465>
LayerCount: 2
Fore
SplineSet
162 0 m 1
 162 1465 l 1
 289 1465 l 1
 289 0 l 1
 162 0 l 1
EndSplineSet
EndChar

StartChar: m
Encoding: 109 109 81
Width: 1702
VWidth: 2045
Flags: W
HStem: 961 124<426.493 718.101 1063.89 1368.03>
VStem: 134 127<574 788.607> 790 127<610 800.595> 1446 127<662 875.916>
CounterMasks: 1 70
LayerCount: 2
Fore
SplineSet
1203 961 m 3
 1382 961 1446 885 1446 662 c 2
 1446 0 l 1
 1573 0 l 1
 1573 728 l 2
 1573 988 1436 1085 1243 1085 c 3
 1142 1085 1008 1059 905 876 c 1
 873 976 789 1085 616 1085 c 3
 466 1085 364 1033 261 870 c 1
 261 1062 l 1
 134 1062 l 1
 134 0 l 1
 261 0 l 1
 261 574 l 2
 261 875 449 961 575 961 c 3
 702 961 790 909 790 683 c 2
 790 0 l 1
 917 0 l 1
 917 610 l 2
 917 892 1120 961 1203 961 c 3
EndSplineSet
EndChar

StartChar: n
Encoding: 110 110 82
Width: 1137
VWidth: 2045
Flags: W
HStem: 0 21G<134 261 873 1000> 961 124<428.93 763.402> 1043 20G<134 261>
VStem: 134 127<0 763.787 885 1063> 873 127<0 843.415>
LayerCount: 2
Fore
SplineSet
873 636 m 2xd8
 873 807 817 961 595 961 c 3xd8
 329 961 261 711 261 532 c 2
 261 0 l 1
 134 0 l 1
 134 1063 l 1
 261 1063 l 1xb8
 261 885 l 1
 353 1062 485 1085 599 1085 c 3
 941 1085 1000 828 1000 665 c 2
 1000 0 l 1
 873 0 l 1
 873 636 l 2xd8
EndSplineSet
EndChar

StartChar: o
Encoding: 111 111 83
Width: 1137
VWidth: 2045
Flags: W
HStem: -12 124<380.395 747.605> 961 124<380.395 747.605>
VStem: 67 127<322.27 752.241> 934 127<320.515 750.519>
LayerCount: 2
Fore
SplineSet
194 535 m 259
 194 291 325 112 564 112 c 259
 803 112 934 291 934 535 c 259
 934 779 803 961 564 961 c 259
 325 961 194 779 194 535 c 259
564 1085 m 3
 870 1085 1061 879 1061 528 c 3
 1061 177 870 -12 564 -12 c 3
 258 -12 67 181 67 532 c 3
 67 883 258 1085 564 1085 c 3
EndSplineSet
EndChar

StartChar: p
Encoding: 112 112 84
Width: 1248
VWidth: 2045
Flags: W
HStem: -12 124<459.334 783.537> 961 124<455.612 772.798>
VStem: 162 127<-390 156 310.08 778.734 932 1075> 953 127<311.314 759.566>
LayerCount: 2
Fore
SplineSet
619 961 m 259
 484 961 289 881 289 538 c 259
 289 267 430 112 619 112 c 259
 889 112 953 375 953 538 c 259
 953 839 775 961 619 961 c 259
1080 529 m 3
 1080 227 926 -12 631 -12 c 3
 480 -12 367 46 289 156 c 1
 289 -390 l 1
 162 -390 l 1
 162 1075 l 1
 289 1075 l 1
 289 932 l 1
 300 943 386 1085 601 1085 c 3
 913 1085 1080 868 1080 529 c 3
EndSplineSet
EndChar

StartChar: q
Encoding: 113 113 85
Width: 1248
VWidth: 2045
Flags: W
HStem: -12 124<460.833 784.974> 961 124<468.071 788.853>
VStem: 163 127<309.297 759.402> 956 127<-390 156 309.636 777.854 932 1075>
LayerCount: 2
Fore
SplineSet
625 961 m 259
 487 961 290 860 290 538 c 259
 290 380 354 112 625 112 c 259
 814 112 956 266 956 538 c 259
 956 879 761 961 625 961 c 259
163 529 m 3
 163 868 331 1085 643 1085 c 3
 858 1085 945 943 956 932 c 1
 956 1075 l 1
 1083 1075 l 1
 1083 -390 l 1
 956 -390 l 1
 956 156 l 1
 878 46 764 -12 613 -12 c 3
 253 -12 163 320 163 529 c 3
EndSplineSet
EndChar

StartChar: r
Encoding: 114 114 86
Width: 681
VWidth: 2045
Flags: W
HStem: 0 21G<133 260> 952 124<378.104 675.314>
VStem: 133 127<0 812.395 918 1062>
LayerCount: 2
Fore
SplineSet
260 918 m 1
 359 1054 459 1076 539 1076 c 3
 602 1076 658 1060 709 1027 c 1
 659 906 l 1
 597 937 550 952 518 952 c 3
 346 952 260 820 260 556 c 2
 260 0 l 1
 133 0 l 1
 133 1062 l 1
 260 1062 l 1
 260 918 l 1
EndSplineSet
EndChar

StartChar: s
Encoding: 115 115 87
Width: 1022
VWidth: 2045
Flags: W
HStem: -12 124<310.941 706.156> 492 124<309.905 719.399> 961 124<297.768 683.825>
VStem: 64 127<224.298 358> 93 127<690.954 889.282> 777 127<764 875.672> 817 127<201.308 409.063>
LayerCount: 2
Fore
SplineSet
505 961 m 259xea
 727 961 777 834 777 764 c 257
 904 764 l 257
 904 848 859 1085 470 1085 c 3
 285 1085 93 980 93 774 c 3xec
 93 555 289 498 521 492 c 256
 697 487 817 417 817 305 c 259
 817 169 648 112 496 112 c 3
 319 112 196 205 191 358 c 257
 64 358 l 257xf2
 64 62 342 -12 534 -12 c 3
 724 -12 944 102 944 325 c 259
 944 548 730 608 517 616 c 256
 271 625 220 721 220 795 c 259
 220 857 267 961 505 961 c 259xea
EndSplineSet
EndChar

StartChar: t
Encoding: 116 116 88
Width: 568
VWidth: 2045
Flags: W
HStem: -12 124<319.519 539.822> 936 124<18 167 294 497>
VStem: 167 127<137.572 936 1060 1432>
LayerCount: 2
Fore
SplineSet
412 -12 m 3
 230 -12 167 56 167 311 c 2
 167 936 l 1
 18 936 l 1
 18 1060 l 1
 167 1060 l 1
 167 1432 l 1
 294 1432 l 1
 294 1060 l 1
 497 1060 l 1
 497 936 l 1
 294 936 l 1
 294 313 l 2
 294 134 326 112 448 112 c 3
 475 112 504 118 537 124 c 1
 553 3 l 1
 506 -7 459 -12 412 -12 c 3
EndSplineSet
EndChar

StartChar: u
Encoding: 117 117 89
Width: 1137
VWidth: 2045
Flags: W
HStem: -12 124<364.741 702.028> 1040 20G<104 231 842 969>
VStem: 104 127<240.86 1060> 842 127<0 121 246.912 1060>
LayerCount: 2
Fore
SplineSet
842 121 m 1
 735 5 691 -12 537 -12 c 3
 191 -12 104 218 104 399 c 2
 104 1060 l 1
 231 1060 l 1
 231 405 l 2
 231 173 414 112 534 112 c 3
 735 112 842 259 842 400 c 2
 842 1060 l 1
 969 1060 l 1
 969 0 l 1
 842 0 l 1
 842 121 l 1
EndSplineSet
EndChar

StartChar: v
Encoding: 118 118 90
Width: 1022
VWidth: 2045
Flags: W
HStem: 0 21G<442.981 583.981> 1040 20G<26 169.938 855.308 999>
DStem2: 162 1060 26 1060 0.372145 -0.928174<0 965.056> 518 163 576 0 0.370635 0.928779<0 960.983>
LayerCount: 2
Fore
SplineSet
451 0 m 1
 26 1060 l 1
 162 1060 l 1
 518 163 l 1
 863 1060 l 1
 999 1060 l 1
 576 0 l 1
 451 0 l 1
EndSplineSet
EndChar

StartChar: w
Encoding: 119 119 91
Width: 1477
VWidth: 2045
Flags: W
HStem: 0 21G<324.868 478.609 968.092 1121.53> 1040 20G<6 144.842 640.537 783.975 1281.63 1409>
DStem2: 139 1060 6 1060 0.293135 -0.956071<0 934.397> 401 163 473 0 0.263481 0.964664<0 765.278> 778 1060 717 870 0.28627 -0.958149<164.586 936.18> 1046 163 1116 0 0.266424 0.963856<0 928.787>
LayerCount: 2
Fore
SplineSet
717 870 m 17
 473 0 l 1
 331 0 l 1
 6 1060 l 1
 139 1060 l 1
 401 163 l 1
 646 1060 l 1
 778 1060 l 1
 1046 163 l 1
 1287 1060 l 1
 1409 1060 l 1
 1116 0 l 1
 974 0 l 9
 717 870 l 17
EndSplineSet
EndChar

StartChar: x
Encoding: 120 120 92
Width: 1022
VWidth: 2045
Flags: W
HStem: 0 21G<15 179.624 841.86 1007> 1040 20G<44 215.501 817.698 980>
DStem2: 201 1060 44 1060 0.608589 -0.793486<0 507.482 657.135 1240.33>
LayerCount: 2
Fore
SplineSet
15 0 m 1
 433 553 l 1
 44 1060 l 1
 201 1060 l 1
 499 649 l 1
 834 1060 l 1
 980 1060 l 1
 567 562 l 1
 1007 0 l 1
 857 0 l 1
 505 465 l 1
 165 0 l 1
 15 0 l 1
EndSplineSet
EndChar

StartChar: y
Encoding: 121 121 93
Width: 1022
VWidth: 2045
Flags: W
HStem: -435 124<126.386 353.984> 1040 20G<34 181.42 870.829 1005>
DStem2: 174 1060 34 1060 0.352657 -0.935753<0 1028.04> 532 95 592 -95 0.336698 0.941613<0 1025.15>
LayerCount: 2
Fore
SplineSet
127 -420 m 1
 113 -296 l 1
 148 -305 181 -311 213 -311 c 3
 352 -311 444 -222 444 -60 c 3
 444 -38 433 1 412 57 c 2
 34 1060 l 1
 174 1060 l 1
 532 95 l 1
 878 1060 l 1
 1005 1060 l 1
 592 -95 l 2
 538 -245 444 -435 208 -435 c 3
 182 -435 156 -430 127 -420 c 1
EndSplineSet
EndChar

StartChar: z
Encoding: 122 122 94
Width: 1022
VWidth: 2045
Flags: W
HStem: 0 124<186 979> 936 124<61 791>
DStem2: 40 124 186 124 0.683822 0.729649<99.8379 1106.03>
LayerCount: 2
Fore
SplineSet
40 0 m 1
 40 124 l 1
 791 936 l 1
 61 936 l 1
 61 1060 l 1
 947 1060 l 1
 947 936 l 1
 186 124 l 1
 979 124 l 1
 979 0 l 1
 40 0 l 1
EndSplineSet
EndChar

StartChar: braceleft
Encoding: 123 123 95
Width: 681
VWidth: 2045
Flags: W
HStem: -430 124<429.399 634> 449 163<58 182.375> 1366 124<430.837 634>
VStem: 264 127<-263.348 363.602 695.27 1326.43>
LayerCount: 2
Fore
SplineSet
391 80 m 3
 391 -227 392 -306 552 -306 c 2
 634 -306 l 1
 634 -430 l 1
 579 -430 l 2
 279 -430 266 -275 264 48 c 0
 262 295 253 444 58 449 c 1
 58 612 l 1
 256 615 262 784 264 997 c 0
 266 1286 260 1490 560 1490 c 2
 634 1490 l 1
 634 1366 l 1
 552 1366 l 2
 396 1366 391 1268 391 1080 c 3
 391 768 390 629 184 530 c 1
 355 458 391 321 391 80 c 3
EndSplineSet
EndChar

StartChar: bar
Encoding: 124 124 96
Width: 454
VWidth: 2045
Flags: W
HStem: -430 21G<161 288>
VStem: 161 127<-430 1489>
LayerCount: 2
Fore
SplineSet
161 -430 m 1
 161 1489 l 1
 288 1489 l 1
 288 -430 l 1
 161 -430 l 1
EndSplineSet
EndChar

StartChar: braceright
Encoding: 125 125 97
Width: 681
VWidth: 2045
Flags: W
HStem: -430 124<58 262.601> 449 163<509.625 634> 1366 124<58 261.163>
VStem: 301 127<-263.348 363.602 695.27 1326.43>
LayerCount: 2
Fore
SplineSet
301 80 m 3
 301 321 337 458 508 530 c 1
 302 629 301 768 301 1080 c 3
 301 1268 296 1366 140 1366 c 2
 58 1366 l 1
 58 1490 l 1
 132 1490 l 2
 432 1490 426 1286 428 997 c 0
 430 784 436 615 634 612 c 1
 634 449 l 1
 439 444 430 295 428 48 c 0
 426 -275 413 -430 113 -430 c 2
 58 -430 l 1
 58 -306 l 1
 140 -306 l 2
 300 -306 301 -227 301 80 c 3
EndSplineSet
EndChar

StartChar: asciitilde
Encoding: 126 126 98
Width: 1350
VWidth: 2045
Flags: W
HStem: 565 124<768.347 1076.9> 698 124<281.578 611.713>
LayerCount: 2
Fore
SplineSet
431 698 m 3
 327 698 266 653 171 562 c 1
 171 704 l 1
 242 783 334 822 448 822 c 3
 641 822 800 689 936 689 c 3
 1038 689 1142 771 1192 825 c 1
 1192 680 l 1
 1105 599 1025 565 916 565 c 3
 715 565 599 698 431 698 c 3
EndSplineSet
EndChar

StartChar: exclamdown
Encoding: 161 161 100
Width: 681
VWidth: 2045
Flags: W
HStem: 0 21G<213 362> 1064 20G<247.861 326.171> 1257 193<206 369>
VStem: 213 149<0 577.307 1257 1450>
LayerCount: 2
Fore
SplineSet
362 452 m 1
 362 0 l 1
 213 0 l 1
 213 452 l 1
 249 1084 l 1
 325 1084 l 1
 362 452 l 1
369 1257 m 1
 206 1257 l 1
 206 1450 l 1
 369 1450 l 1
 369 1257 l 1
EndSplineSet
EndChar

StartChar: cent
Encoding: 162 162 101
Width: 1178
VWidth: 2045
Flags: W
HStem: -9 126<426.378 546 673 862.011> 71 160<911.408 974> 976 125<420.792 546 673 873.698> 1446 20G<546 673>
VStem: 113 127<319.946 777.274> 546 127<-369 -11 117 976 1104 1466>
LayerCount: 2
Back
SplineSet
610 -12 m 3xbc
 297 -12 113 213.86 113 544 c 3
 113 868.729 317.7 1105 610 1105 c 27
 755.433 1105 845.636 1092.16 974 1024 c 1
 974 863 l 1
 964 863 l 1
 902.796 941.859 769.197 981 610 981 c 3
 389.991 981 240 828.086 240 544 c 3
 240 278.812 386.891 112 610 112 c 3xbc
 766.82 112 885.153 153.22 964 231 c 1
 974 231 l 1
 974 71 l 1x7c
 807.521 -7.07324 737.409 -12 610 -12 c 3xbc
673 -369 m 1
 546 -369 l 1
 546 1466 l 1
 673 1466 l 1
 673 -369 l 1
EndSplineSet
Fore
SplineSet
673 -369 m 1x7c
 546 -369 l 1
 546 -9 l 1xbc
 272 20 113 237 113 544 c 3
 113 844 288 1069 546 1101 c 1
 546 1466 l 1
 673 1466 l 1
 673 1104 l 1
 784 1100 865 1082 974 1024 c 1
 974 863 l 1
 964 863 l 1
 911 931 804 970 673 979 c 1
 673 114 l 1
 799 124 896 164 964 231 c 1
 974 231 l 1
 974 71 l 1
 837 7 765 -8 673 -11 c 1
 673 -369 l 1x7c
546 117 m 1
 546 976 l 1
 361 949 240 800 240 544 c 3
 240 305 359 146 546 117 c 1
EndSplineSet
EndChar

StartChar: sterling
Encoding: 163 163 102
Width: 1115
VWidth: 2045
Flags: W
HStem: 0 160<88 170.123> 0 124<228 1031> 620 124<130 322 449 846> 1305 165<911.249 1000> 1392 124<561.015 915.86>
VStem: 322 127<358.902 620 744 1274.49>
LayerCount: 2
Fore
SplineSet
449 553 m 2x2c
 449 371 345 204 228 134 c 1
 228 124 l 1
 1031 124 l 1
 1031 0 l 1x6c
 88 0 l 1
 88 160 l 1
 251 209 322 403 322 620 c 1
 130 620 l 1
 130 744 l 1
 322 744 l 1
 322 1071 l 2
 322 1341 459 1516 707 1516 c 3xac
 795 1516 843 1512 1000 1470 c 1
 1000 1305 l 1
 991 1305 l 1x34
 920 1352 830 1392 726 1392 c 3
 628 1392 449 1355 449 1093 c 2
 449 744 l 1
 846 744 l 1
 846 620 l 1
 449 620 l 1
 449 553 l 2x2c
EndSplineSet
EndChar

StartChar: currency
Encoding: 164 164 103
Width: 1115
VWidth: 2045
Flags: W
HStem: 326 124<431.063 688.937> 873 124<429.813 690.187>
VStem: 226 127<528.784 794.594> 767 127<528.784 794.612>
DStem2: 171 1157 64 1051 0.707506 -0.706707<0 315.362 936.852 1250.87> 64 272 171 163 0.705509 0.708701<0 315.284 937.207 1250.16>
LayerCount: 2
Fore
SplineSet
894 662 m 3
 894 592 873 536 843 486 c 1
 1055 272 l 1
 950 166 l 1
 734 378 l 1
 684 348 630 326 560 326 c 3
 490 326 436 349 386 379 c 1
 171 163 l 1
 64 272 l 1
 277 486 l 1
 247 536 226 592 226 662 c 3
 226 732 247 784 277 834 c 1
 64 1051 l 1
 171 1157 l 1
 386 942 l 1
 436 972 490 997 560 997 c 3
 630 997 684 976 734 946 c 1
 947 1157 l 1
 1055 1051 l 1
 843 837 l 1
 873 787 894 732 894 662 c 3
560 450 m 3
 679 450 767 543 767 662 c 3
 767 781 679 873 560 873 c 3
 441 873 353 781 353 662 c 3
 353 543 441 450 560 450 c 3
EndSplineSet
EndChar

StartChar: yen
Encoding: 165 165 104
Width: 1115
VWidth: 2045
Flags: W
HStem: 0 21G<495 622> 447 124<125 495 622 991>
VStem: 495 127<0 447 571 657>
DStem2: 265 1489 87 1489 0.443764 -0.896144<0 704.442> 560 849 619 677 0.448973 0.893545<0 705.214>
LayerCount: 2
Fore
SplineSet
1027 1489 m 1
 619 677 l 1
 619 571 l 1
 991 571 l 1
 991 447 l 1
 622 447 l 1
 622 0 l 1
 495 0 l 1
 495 447 l 1
 125 447 l 1
 125 571 l 1
 499 571 l 1
 499 657 l 1
 87 1489 l 1
 265 1489 l 1
 560 849 l 1
 857 1489 l 1
 1027 1489 l 1
EndSplineSet
EndChar

StartChar: brokenbar
Encoding: 166 166 105
Width: 780
VWidth: 2045
Flags: W
VStem: 328 127<-393 405 758 1556>
LayerCount: 2
Fore
SplineSet
455 758 m 1
 328 758 l 1
 328 1556 l 1
 455 1556 l 1
 455 758 l 1
455 -393 m 1
 328 -393 l 1
 328 405 l 1
 455 405 l 1
 455 -393 l 1
EndSplineSet
EndChar

StartChar: section
Encoding: 167 167 106
Width: 1115
VWidth: 2045
Flags: W
HStem: -378 136<276.571 703.485> 1374 136<409.382 849.583>
VStem: 140 146<440.821 685.197> 170 146<1044.94 1290.5> 800 146<-156.534 85.8097> 830 146<431.269 693.15>
DStem2: 514 966 447 842 0.958112 -0.286392<-63.1281 337.495> 485 348 464 206 0.954204 -0.299156<-183.179 221.818>
LayerCount: 2
Back
SplineSet
666 314 m 1x09
 789 401 810 482 810 556 c 0
 810 642 780 719 625 766 c 2
 450 819 l 1
 385 780 308 698 308 578 c 0
 308 443 384 403 491 369 c 2
 666 314 l 1x09
489 -385 m 0x92
 366 -385 274 -365 171 -326 c 1
 171 -133 l 1
 183 -133 l 1x42
 352 -218 461 -220 504 -220 c 0
 627 -220 774 -179 774 -36 c 0
 774 75 714 120 593 154 c 2
 460 192 l 2
 288 242 119 305 119 532 c 0x8a
 119 605 143 753 317 858 c 1
 317 864 l 1
 252 901 148 977 148 1146 c 0
 148 1295 242 1518 628 1518 c 0x94
 723 1518 825 1503 945 1462 c 1
 945 1267 l 1
 936 1267 l 1x24
 832 1320 739 1353 607 1353 c 0
 495 1353 340 1317 340 1175 c 0
 340 1064 391 1015 518 980 c 2
 656 942 l 2
 855 887 996 807 998 601 c 1x15
 998 407 854 310 799 278 c 1
 799 269 l 1
 870 232 968 158 968 -9 c 0
 968 -159 866 -385 489 -385 c 0x92
EndSplineSet
Fore
SplineSet
670 290 m 1xe4
 798 381 830 472 830 556 c 3
 830 650 793 738 631 787 c 2
 447 842 l 1
 374 798 286 714 286 578 c 3
 286 431 376 383 485 348 c 2
 670 290 l 1xe4
489 -378 m 3
 374 -378 288 -360 192 -325 c 1
 192 -162 l 1
 354 -240 461 -242 504 -242 c 3
 627 -242 800 -200 800 -36 c 3
 800 87 721 133 597 168 c 2
 464 206 l 2
 291 256 140 321 140 532 c 3xe8
 140 617 191 758 359 865 c 1
 280 911 170 967 170 1146 c 3
 170 1285 253 1510 628 1510 c 3
 717 1510 813 1497 924 1461 c 1
 924 1297 l 1
 826 1345 733 1374 607 1374 c 3
 496 1374 316 1338 316 1175 c 3
 316 1054 383 1002 514 966 c 2
 652 928 l 2
 850 873 976 793 976 601 c 3xd4
 976 401 829 318 759 266 c 1
 843 221 946 169 946 -9 c 3xc8
 946 -149 855 -378 489 -378 c 3
EndSplineSet
EndChar

StartChar: dieresis
Encoding: 168 168 107
Width: 1115
VWidth: 2045
Flags: W
HStem: 1315 171<265 442 677 854>
VStem: 265 177<1315 1486> 677 177<1315 1486>
LayerCount: 2
Fore
SplineSet
854 1315 m 1
 677 1315 l 1
 677 1486 l 1
 854 1486 l 1
 854 1315 l 1
442 1315 m 1
 265 1315 l 1
 265 1486 l 1
 442 1486 l 1
 442 1315 l 1
EndSplineSet
EndChar

StartChar: copyright
Encoding: 169 169 108
Width: 1898
VWidth: 2045
Flags: W
HStem: -209 111<703.212 1196.69> 180 124<788.357 1158.11> 255 156<1194.42 1273> 911 158<1196.59 1273> 1018 124<791.981 1159> 1408 111<703.212 1196.69>
VStem: 85 117<401.904 908.096> 531 127<444.143 881.613> 1697 117<401.904 908.096>
LayerCount: 2
Fore
SplineSet
1814 655 m 3x8780
 1814 180 1438 -209 950 -209 c 3
 462 -209 85 180 85 655 c 3
 85 1130 462 1519 950 1519 c 3
 1438 1519 1814 1130 1814 655 c 3x8780
1697 655 m 3
 1697 1093 1353 1408 950 1408 c 3
 547 1408 202 1093 202 655 c 3
 202 217 547 -98 950 -98 c 3
 1353 -98 1697 217 1697 655 c 3
985 304 m 3xcf80
 1115 304 1233 389 1256 411 c 1
 1273 411 l 1
 1273 255 l 1xa780
 1142 200 1089 180 982 180 c 3
 778 180 531 276 531 660 c 3
 531 958 704 1142 982 1142 c 3xcf80
 1098 1142 1202 1107 1273 1069 c 1
 1273 911 l 1
 1256 911 l 1x9780
 1206 957 1093 1018 985 1018 c 3
 820 1018 658 970 658 660 c 3
 658 352 820 304 985 304 c 3xcf80
EndSplineSet
EndChar

StartChar: ordfeminine
Encoding: 170 170 109
Width: 1007
VWidth: 2045
Flags: W
HStem: 541 124<290.817 636.564> 1333 141<189 344.792> 1395 124<252.184 693.716>
VStem: 113 127<714.393 964.916> 746 127<565 657 757.641 1057 1184 1341.72>
LayerCount: 2
Fore
SplineSet
482 1519 m 3xb8
 773 1519 872 1390 873 1193 c 1
 873 565 l 1
 746 565 l 1
 746 657 l 1
 688 613 614 541 402 541 c 3
 245 541 113 656 113 840 c 3
 113 1115 345 1167 746 1184 c 1
 746 1304 745 1395 482 1395 c 3xb8
 426 1395 341 1385 204 1333 c 1
 189 1333 l 1
 189 1474 l 1xd8
 189 1474 367 1519 482 1519 c 3xb8
460 665 m 3
 540 665 623 668 746 802 c 1
 746 1057 l 1
 556 1045 l 2
 271 1027 240 938 240 849 c 3
 240 740 277 665 460 665 c 3
EndSplineSet
EndChar

StartChar: guillemotleft
Encoding: 171 171 110
Width: 1170
VWidth: 2045
Flags: W
DStem2: 104 698 282 652 0.753585 0.657351<103.9 546.598> 282 652 104 607 0.752851 -0.65819<0 442.702> 555 695 726 652 0.760245 0.649636<102.068 519.766> 726 652 555 610 0.757939 -0.652325<0 418.352>
LayerCount: 2
Fore
SplineSet
1043 190 m 1
 555 610 l 1
 555 695 l 1
 1043 1112 l 1
 1043 924 l 1
 726 652 l 1
 1043 379 l 1
 1043 190 l 1
613 162 m 1
 104 607 l 1
 104 698 l 1
 613 1142 l 1
 613 946 l 1
 282 652 l 1
 613 358 l 1
 613 162 l 1
EndSplineSet
EndChar

StartChar: logicalnot
Encoding: 172 172 111
Width: 1486
VWidth: 2045
Flags: W
HStem: 625 136<157 1176>
VStem: 1176 146<57 625>
LayerCount: 2
Fore
SplineSet
1322 57 m 1
 1176 57 l 1
 1176 625 l 1
 157 625 l 1
 157 761 l 1
 1322 761 l 1
 1322 57 l 1
EndSplineSet
EndChar

StartChar: registered
Encoding: 174 174 113
Width: 1898
VWidth: 2045
Flags: W
HStem: -209 111<703.212 1203.68> 569 124<776 992> 1006 124<776 1141.29> 1408 111<703.566 1199.5>
VStem: 85 117<401.718 907.516> 649 127<214 569 693 1006> 1175 127<741.372 970.597> 1697 117<408.066 904.482>
DStem2: 1101 615 992 569 0.653276 -0.75712<0 417.928>
LayerCount: 2
Fore
SplineSet
1814 655 m 3
 1814 154 1417 -209 950 -209 c 3
 462 -209 85 179 85 655 c 3
 85 1130 464 1519 950 1519 c 3
 1446 1519 1814 1122 1814 655 c 3
1697 655 m 3
 1697 1082 1360 1408 950 1408 c 3
 547 1408 202 1090 202 655 c 3
 202 217 547 -98 950 -98 c 3
 1356 -98 1697 220 1697 655 c 3
1302 879 m 3
 1302 733 1204 656 1101 615 c 1
 1447 214 l 1
 1276 214 l 1
 992 569 l 1
 776 569 l 1
 776 214 l 1
 649 214 l 1
 649 1130 l 1
 959 1130 l 2
 1062 1130 1302 1117 1302 879 c 3
968 693 m 2
 1128 693 1175 762 1175 867 c 3
 1175 1006 1054 1006 986 1006 c 2
 776 1006 l 1
 776 693 l 1
 968 693 l 2
EndSplineSet
EndChar

StartChar: macron
Encoding: 175 175 114
Width: 1115
VWidth: 2045
Flags: W
HStem: 1658 130<-15 1133>
LayerCount: 2
Fore
SplineSet
1133 1658 m 1
 -15 1658 l 1
 -15 1788 l 1
 1133 1788 l 1
 1133 1658 l 1
EndSplineSet
EndChar

StartChar: degree
Encoding: 176 176 115
Width: 961
VWidth: 2045
Flags: W
HStem: 755 124<339.738 626.152> 1389 124<334.605 626.77>
VStem: 101 127<988.709 1280.58> 736 127<989.486 1279.59>
LayerCount: 2
Fore
SplineSet
482 1513 m 3
 708 1513 863 1342 863 1134 c 3
 863 928 705 755 482 755 c 3
 273 755 101 912 101 1134 c 3
 101 1343 254 1513 482 1513 c 3
482 879 m 3
 637 879 736 1004 736 1134 c 3
 736 1267 637 1389 482 1389 c 3
 317 1389 228 1259 228 1134 c 3
 228 996 334 879 482 879 c 3
EndSplineSet
EndChar

StartChar: plusminus
Encoding: 177 177 116
Width: 1486
VWidth: 2045
Flags: W
HStem: 159 136<162 672 818 1326> 739 136<162 672 818 1326>
VStem: 672 146<295 739 875 1402>
LayerCount: 2
Fore
SplineSet
1326 159 m 1
 162 159 l 1
 162 295 l 1
 672 295 l 1
 672 739 l 1
 162 739 l 1
 162 875 l 1
 672 875 l 1
 672 1402 l 1
 818 1402 l 1
 818 875 l 1
 1326 875 l 1
 1326 739 l 1
 818 739 l 1
 818 295 l 1
 1326 295 l 1
 1326 159 l 1
EndSplineSet
EndChar

StartChar: uni00B2
Encoding: 178 178 117
Width: 1007
Flags: W
HStem: 566 124<364 819> 1394 124<388.071 637.984>
VStem: 207 127<1210 1337.02> 692 127<1121.57 1340.78>
LayerCount: 2
Fore
SplineSet
516 1394 m 3
 442 1394 334 1358 334 1210 c 1
 207 1210 l 1
 207 1397 327 1518 518 1518 c 3
 686 1518 819 1416 819 1232 c 3
 819 1059 669 958 544 851 c 0
 486 801 410 730 364 690 c 1
 819 690 l 1
 819 566 l 1
 185 566 l 1
 185 702 294 804 434 921 c 0
 571 1036 692 1124 692 1235 c 3
 692 1334 604 1394 516 1394 c 3
EndSplineSet
EndChar

StartChar: uni00B3
Encoding: 179 179 118
Width: 1007
Flags: W
HStem: 559 124<365.678 624.157> 1015 104<405.413 568.75> 1394 124<369.949 610.325>
VStem: 184 127<739.984 864 1230 1331.31> 641 127<1184.78 1362.12> 686 127<744.901 970.882>
LayerCount: 2
Fore
SplineSet
488 1394 m 3xf8
 377 1394 336 1328 322 1230 c 1
 195 1230 l 1
 195 1395 317 1518 485 1518 c 3
 635 1518 768 1417 768 1265 c 3xf8
 768 1187 724 1119 667 1079 c 1
 761 1043 813 972 813 861 c 3
 813 685 671 559 490 559 c 3
 312 559 184 683 184 864 c 1
 311 864 l 1
 311 760 370 683 490 683 c 3
 613 683 686 761 686 858 c 3xf4
 686 954 627 1015 505 1015 c 3
 473 1015 434 1007 404 998 c 1
 404 1122 l 1
 418 1121 433 1119 447 1119 c 3
 513 1119 641 1184 641 1268 c 3
 641 1338 590 1394 488 1394 c 3xf8
EndSplineSet
EndChar

StartChar: acute
Encoding: 180 180 119
Width: 1115
VWidth: 2045
Flags: W
HStem: 1302 373
VStem: 472 373
LayerCount: 2
Fore
SplineSet
845 1675 m 1
 574 1302 l 1
 472 1302 l 1
 652 1675 l 1
 845 1675 l 1
EndSplineSet
EndChar

StartChar: mu
Encoding: 181 181 120
Width: 1160
VWidth: 2045
Flags: W
HStem: -12 124<419.482 731.22> 1040 20G<136 263 898 1025>
VStem: 136 127<-411 115 231.736 1060> 898 127<0 104 233.604 1060>
LayerCount: 2
Fore
SplineSet
576 112 m 3
 666 112 810 183 898 275 c 1
 898 1060 l 1
 1025 1060 l 1
 1025 0 l 1
 898 0 l 1
 898 104 l 1
 781 -8 646 -12 576 -12 c 3
 479 -12 359 8 263 115 c 1
 263 -411 l 1
 136 -411 l 1
 136 1060 l 1
 263 1060 l 1
 263 275 l 1
 328 199 469 112 576 112 c 3
EndSplineSet
EndChar

StartChar: paragraph
Encoding: 182 182 121
Width: 1115
VWidth: 2045
Flags: W
HStem: 1365 124<654 853>
VStem: 58 596<840.574 1261.49> 526 128<-362 592> 853 127<-362 1365>
LayerCount: 2
Fore
SplineSet
58 1050 m 3xd0
 58 1341 253 1489 571 1489 c 2
 980 1489 l 1
 980 -362 l 1
 853 -362 l 1
 853 1365 l 1
 654 1365 l 1
 654 -362 l 1
 526 -362 l 1
 526 592 l 1xb0
 245 600 58 769 58 1050 c 3xd0
EndSplineSet
EndChar

StartChar: periodcentered
Encoding: 183 183 122
Width: 722
VWidth: 2045
Flags: W
HStem: 831 285<242 482>
VStem: 242 240<831 1116>
LayerCount: 2
Fore
SplineSet
482 831 m 1
 242 831 l 1
 242 1116 l 1
 482 1116 l 1
 482 831 l 1
EndSplineSet
EndChar

StartChar: cedilla
Encoding: 184 184 123
Width: 1115
VWidth: 2045
Flags: W
HStem: -435 124<296.111 593.261> -411 133<290 436.061>
VStem: 644 127<-255.703 20>
LayerCount: 2
Fore
SplineSet
439 -311 m 3xa0
 578 -311 644 -266 644 -107 c 3
 644 11 641 -56 641 20 c 1
 765 20 l 1
 767 6 771 -66 771 -89 c 3
 771 -356 592 -435 467 -435 c 3xa0
 396 -435 324 -421 290 -411 c 1
 290 -278 l 1
 299 -278 l 1x60
 333 -295 376 -311 439 -311 c 3xa0
EndSplineSet
EndChar

StartChar: uni0E01
Encoding: 3585 3585 124
Width: 1248
VWidth: 2045
Flags: W
HStem: 0 21G<250 363 985 1098> 764 112<239 250 363 476> 1142 112<424.277 778.185>
VStem: 250 113<0 764> 985 113<0 933.432>
LayerCount: 2
Fore
SplineSet
985 764 m 2
 985 976 810 1142 604 1142 c 256
 487 1142 312 1086 239 876 c 9
 476 876 l 1
 476 764 l 1
 363 764 l 17
 363 0 l 17
 250 0 l 9
 250 764 l 9
 110 764 l 1
 110 1039 335 1254 604 1254 c 256
 874 1254 1098 1037 1098 764 c 2
 1098 0 l 1
 985 0 l 1
 985 764 l 2
EndSplineSet
EndChar

StartChar: uni0E02
Encoding: 3586 3586 125
Width: 1173
VWidth: 2045
Flags: W
HStem: 0 112<348 460 573 912> 749 112<224.981 373.254> 1142 112<354.038 537.026>
VStem: 102 111<872.63 1016.35> 383 114<871.92 1019.17> 460 113<112 664.79> 610 114<794.249 1070.41> 912 113<112 1254>
LayerCount: 2
Fore
SplineSet
610 946 m 0xf7
 610 1055 523 1142 412 1142 c 0
 391 1142 371 1139 351 1133 c 1
 410 1119 497 1054 497 944 c 0xfb
 497 838 411 749 300 749 c 0
 187 749 102 839 102 944 c 0
 102 1113 237 1254 412 1254 c 0
 589 1254 724 1113 724 942 c 0
 724 719 573 710 573 498 c 2
 573 112 l 17
 912 112 l 25
 912 1254 l 1
 1025 1254 l 1
 1025 0 l 9
 348 0 l 1
 348 112 l 1
 460 112 l 25
 460 498 l 2
 460 758 610 753 610 946 c 0xf7
299 1030 m 0
 250 1030 213 990 213 946 c 0
 213 901 250 861 299 861 c 0
 343 861 383 896 383 946 c 0
 383 990 348 1030 299 1030 c 0
EndSplineSet
EndChar

StartChar: uni0E03
Encoding: 3587 3587 126
Width: 1248
VWidth: 2045
Flags: W
HStem: 0 112<421 534 647 985> 633 113<250.56 398.352> 914 110<250.038 398.361> 1234 20G<311 372.771 577.711 628.5 985 1098>
VStem: 85 154<757.326 1009.82> 409 113<755.281 903.749> 534 113<112 664.485> 690 114<803.115 1095.79> 985 113<112 1254>
LayerCount: 2
Fore
SplineSet
804 950 m 0
 804 730 645 710 647 498 c 1
 647 112 l 1
 985 112 l 1
 985 1254 l 25
 1098 1254 l 17
 1098 0 l 1
 421 0 l 1
 421 112 l 1
 534 112 l 1
 534 498 l 2
 534 752 688 770 690 934 c 17
 693 1065 631 1118 613 1124 c 1
 476 1039 l 1
 326 1130 l 17
 307 1126 221 1076 198 976 c 1
 247 1008 289 1024 325 1024 c 0
 436 1024 522 935 522 827 c 0
 522 719 434 633 325 633 c 0
 229 633 85 690 85 922 c 0
 85 1018 113 1094 169 1149 c 0
 225 1204 282 1239 340 1254 c 1
 476 1171 l 1
 610 1254 l 1
 647 1241 688 1206 735 1152 c 1
 781 1097 804 1030 804 950 c 0
325 914 m 0
 275 914 239 874 239 829 c 0
 239 779 281 746 325 746 c 0
 374 746 409 783 409 829 c 0
 409 878 370 914 325 914 c 0
EndSplineSet
EndChar

StartChar: uni0E04
Encoding: 3588 3588 127
Width: 1301
VWidth: 2045
Flags: W
HStem: 0 21G<171 290.992 1018 1131> 547 115<573.065 723.808> 828 111<574.095 722.148> 1142 112<477.667 824.333>
VStem: 171 113<290 947.846> 733 112<673.12 816.604> 1018 113<0 947.846>
DStem2: 284 290 284 0 0.330009 0.943978<0 377.745>
LayerCount: 2
Fore
SplineSet
651 1254 m 0
 914 1254 1131 1044 1131 776 c 2
 1131 0 l 1
 1018 0 l 1
 1018 776 l 2
 1018 990 846 1142 651 1142 c 0
 456 1142 284 990 284 776 c 2
 284 290 l 17
 463 816 l 17
 478 854 537 939 648 939 c 0
 759 939 845 852 845 744 c 0
 845 630 754 547 648 547 c 0
 559 547 510 601 499 615 c 9
 284 0 l 9
 171 0 l 17
 171 776 l 2
 171 1044 388 1254 651 1254 c 0
648 828 m 0
 600 828 564 789 564 744 c 0
 564 699 600 662 648 662 c 0
 692 662 733 695 733 744 c 0
 733 789 697 828 648 828 c 0
EndSplineSet
EndChar

StartChar: uni0E05
Encoding: 3589 3589 128
Width: 1301
VWidth: 2045
Flags: W
HStem: 0 21G<175 295.196 1018 1131> 526 111<578.584 724.986> 807 108<578.22 724.743> 1234 20G<369 449.993 854.272 932.5>
VStem: 175 113<290 1063.84> 736 113<647.679 797.015> 1018 113<0 1063.62>
DStem2: 288 290 288 0 0.338551 0.940948<0 356.278> 419 1254 409 1130 0.840954 -0.541106<39.1312 278.49> 653 1103 653 973 0.839941 0.542678<0 238.115>
LayerCount: 2
Fore
SplineSet
409 1130 m 17
 366 1109 287 1048 288 927 c 1
 288 290 l 17
 467 791 l 17
 480 832 541 915 652 915 c 0
 760 915 849 830 849 720 c 0
 849 612 761 526 652 526 c 0
 558 526 518 581 501 592 c 9
 288 0 l 1
 175 0 l 9
 175 927 l 2
 175 1123 319 1226 419 1254 c 9
 653 1103 l 1
 885 1254 l 17
 980 1227 1131 1123 1131 927 c 2
 1131 0 l 1
 1018 0 l 1
 1018 927 l 2
 1018 1049 935 1110 896 1130 c 9
 653 973 l 1
 409 1130 l 17
652 807 m 0
 602 807 568 766 568 722 c 0
 568 673 607 637 652 637 c 0
 702 637 736 678 736 722 c 0
 736 771 697 807 652 807 c 0
EndSplineSet
EndChar

StartChar: uni0E06
Encoding: 3590 3590 129
Width: 1519
VWidth: 2045
Flags: W
HStem: 0 113<423.479 571.446> 281 110<423.158 572.247> 633 113<299.374 446.693> 914 110<298.712 446.336> 1234 20G<360 421.53 626.47 677 1235 1348>
VStem: 134 154<757.326 1009.82> 300 112<124.025 269.115> 457 113<755.712 904.264> 582 113<126.956 215.922 373 664.718> 740 113<803.551 1093.95> 1235 113<112 1254>
DStem2: 695 329 695 218 0.927288 -0.374349<41.5528 581.969>
LayerCount: 2
Fore
SplineSet
374 914 m 0
 321 914 288 872 288 829 c 0
 288 779 328 746 374 746 c 0
 423 746 457 783 457 829 c 0
 457 874 424 914 374 914 c 0
300 196 m 0
 300 303 387 391 497 391 c 0
 528 391 556 385 582 373 c 9
 582 498 l 2
 582 752 737 770 740 934 c 16
 742 1065 680 1118 662 1124 c 1
 524 1039 l 1
 375 1130 l 17
 356 1126 270 1076 247 976 c 1
 296 1008 338 1024 374 1024 c 0
 482 1024 570 936 570 828 c 0
 570 720 482 633 374 633 c 0
 278 633 134 690 134 922 c 0
 134 1018 162 1094 218 1149 c 0
 274 1204 331 1239 389 1254 c 1
 524 1171 l 1
 659 1254 l 1
 695 1241 736 1206 784 1152 c 1
 830 1097 853 1030 853 950 c 0
 853 731 695 710 695 498 c 2
 695 329 l 25
 1235 112 l 9
 1235 1254 l 1
 1348 1254 l 1
 1348 0 l 1
 1235 0 l 1
 695 218 l 17
 695 27 552 0 498 0 c 0
 386 0 300 88 300 196 c 0
497 281 m 0
 449 281 412 244 412 198 c 0
 412 149 452 113 497 113 c 0
 546 113 582 153 582 198 c 0
 582 248 542 281 497 281 c 0
EndSplineSet
EndChar

StartChar: uni0E07
Encoding: 3591 3591 130
Width: 977
VWidth: 2045
Flags: W
HStem: 861 112<532.993 679.813> 1142 112<532.104 678.749>
VStem: 408 113<983.636 1130.78> 690 113<982.66 1131.38>
DStem2: 166 704 84 625 0.69611 -0.717935<0 755.318>
LayerCount: 2
Fore
SplineSet
408 1058 m 0
 408 944 499 861 605 861 c 0
 636 861 664 867 690 879 c 1
 690 160 l 9
 166 704 l 1
 84 625 l 1
 690 0 l 17
 803 0 l 1
 803 1057 l 2
 803 1171 712 1254 606 1254 c 0
 496 1254 408 1167 408 1058 c 0
607 973 m 0
 558 973 521 1013 521 1058 c 0
 521 1102 558 1142 607 1142 c 0
 655 1142 690 1102 690 1058 c 0
 690 1013 655 973 607 973 c 0
EndSplineSet
EndChar

StartChar: uni0E08
Encoding: 3592 3592 131
Width: 1202
VWidth: 2045
Flags: W
HStem: 0 21G<796.979 918.12> 523 111<495.442 642.69> 801 112<493.977 642.318> 1142 112<394.203 741.997>
VStem: 74 113<764 936.189> 373 111<644.911 790.426> 949 113<621.488 936.189>
DStem2: 763 755 688 562 0.197122 -0.980379<174.429 483.623> 859 281 914 0 0.201778 0.979431<0 489.715>
LayerCount: 2
Fore
SplineSet
568 1142 m 256
 358 1142 187 973 187 764 c 9
 74 764 l 17
 74 1020 284 1254 568 1254 c 256
 853 1254 1062 1019 1062 764 c 16
 1062 730 1058 697 1051 665 c 10
 914 0 l 1
 801 0 l 1
 688 562 l 17
 654 536 615 523 570 523 c 0
 460 523 373 610 373 718 c 0
 373 827 462 913 571 913 c 0
 672 913 746 837 763 755 c 2
 859 281 l 25
 943 686 l 2
 947 705 949 731 949 764 c 8
 949 973 778 1142 568 1142 c 256
570 801 m 0
 520 801 484 763 484 718 c 0
 484 673 519 634 568 634 c 0
 617 634 653 672 653 718 c 0
 653 763 618 801 570 801 c 0
EndSplineSet
EndChar

StartChar: uni0E09
Encoding: 3593 3593 132
Width: 1293
VWidth: 2045
Flags: W
HStem: 0 113<971.203 1115.93> 396 112<297.797 447.881> 674 112<298.573 445.881> 1142 112<431.848 780.153>
VStem: 130 108<891.752 961.593> 175 113<519.128 662.936> 457 113<127 414 517.024 662.812> 848 112<123.787 184> 988 113<384 937.07> 1128 115<123.54 271.432>
DStem2: 570 127 570 0 0.838092 0.545529<0 264.085>
LayerCount: 2
Fore
SplineSet
605 1142 m 280xf7c0
 416 1142 275 1007 238 864 c 9
 130 896 l 17xfbc0
 179 1080 360 1254 605 1254 c 280
 893 1254 1101 1020 1101 764 c 2
 1101 384 l 17
 1132 375 1243 328 1243 196 c 0
 1243 88 1156 0 1046 0 c 0
 932 0 852 90 848 184 c 1
 570 0 l 1
 457 0 l 1
 457 414 l 17
 432 402 403 396 372 396 c 0
 261 396 175 485 175 591 c 0
 175 698 262 785 372 786 c 1
 492 786 570 689 570 591 c 2
 570 127 l 1
 951 375 l 2
 962 381 974 384 988 384 c 9
 988 764 l 2
 988 975 816 1142 605 1142 c 280xf7c0
374 674 m 0
 324 674 288 636 288 590 c 0xf7c0
 288 541 328 508 374 508 c 0
 422 508 457 545 457 590 c 0
 457 636 422 674 374 674 c 0
1044 281 m 0
 995 281 960 244 960 198 c 0
 960 149 999 113 1044 113 c 0
 1094 113 1128 154 1128 198 c 0
 1128 244 1093 281 1044 281 c 0
EndSplineSet
EndChar

StartChar: uni0E0A
Encoding: 3594 3594 133
Width: 1192
VWidth: 2045
Flags: W
HStem: 0 112<348 460 573 912> 749 112<224.981 373.254> 1142 112<354.038 536.192>
VStem: 102 111<872.63 1016.35> 383 114<871.92 1019.17> 460 113<112 703.449> 610 114<824.675 1070.01> 912 113<112 923.855> 1025 112<1258.17 1447>
LayerCount: 2
Fore
SplineSet
1137 1447 m 17xf280
 1137 1190 972 1047 933 1018 c 1
 953 1001 1024 946 1025 837 c 1xf3
 1025 0 l 1
 348 0 l 1
 348 112 l 1
 460 112 l 1
 460 589 l 2xf680
 460 794 610 790 610 946 c 0
 610 1058 520 1142 412 1142 c 0
 391 1142 371 1139 351 1133 c 1
 410 1119 497 1054 497 944 c 0xfa
 497 838 411 749 300 749 c 0
 187 749 102 839 102 944 c 0
 102 1113 237 1254 412 1254 c 0
 588 1254 724 1113 724 946 c 0
 724 731 573 739 573 589 c 2
 573 112 l 1
 912 112 l 1
 912 837 l 2xf7
 912 897 864 949 799 949 c 1
 799 1060 l 1
 922 1132 1024 1268 1025 1447 c 9
 1137 1447 l 17xf280
299 1030 m 0
 250 1030 213 990 213 946 c 0
 213 901 250 861 299 861 c 0
 343 861 383 896 383 946 c 0xfa
 383 990 348 1030 299 1030 c 0
EndSplineSet
EndChar

StartChar: uni0E0B
Encoding: 3595 3595 134
Width: 1192
VWidth: 2045
Flags: W
HStem: 0 112<363 476 589 927> 633 113<193.285 341.058> 914 110<193.239 340.655> 1234 20G<221 316.289 519.711 585.5>
VStem: 29 154<760.302 1010.7> 351 114<755.918 902.167> 476 113<112 681.372> 646 110<815.559 1076.42> 927 113<112 926.204> 1040 113<1258.17 1447>
LayerCount: 2
Fore
SplineSet
948 1018 m 1xff40
 1010 965 1040 909 1040 837 c 2xff80
 1040 0 l 1xff40
 363 0 l 1
 363 112 l 1
 476 112 l 1
 476 548 l 2
 476 778 646 765 646 944 c 0
 646 1052 579 1106 555 1124 c 1
 418 1039 l 1
 268 1130 l 17
 216 1106 164 1051 148 985 c 1
 183 1011 223 1024 268 1024 c 0
 378 1024 465 937 465 828 c 0
 465 721 378 633 268 633 c 0
 128 633 29 778 29 927 c 0
 29 1105 158 1223 284 1254 c 1
 418 1171 l 1
 552 1254 l 1
 619 1225 756 1131 756 946 c 0
 756 712 587 726 589 548 c 1
 589 112 l 1
 927 112 l 1
 927 837 l 2xff80
 927 897 879 949 814 949 c 1
 814 1060 l 1
 937 1132 1040 1268 1040 1447 c 9
 1153 1447 l 17
 1153 1190 987 1047 948 1018 c 1xff40
267 914 m 0
 217 914 183 873 183 829 c 0
 183 783 218 746 267 746 c 0
 316 746 351 783 351 829 c 0
 351 878 312 914 267 914 c 0
EndSplineSet
EndChar

StartChar: uni0E0C
Encoding: 3596 3596 135
Width: 1863
VWidth: 2045
Flags: W
HStem: 0 112<374.501 523.299 884.658 1033.52> 279 112<372.846 523.39 884.746 984.786> 1142 112<424.785 778.585>
VStem: 250 113<122.997 268.654> 534 113<123.8 267.816> 761 113<123.11 268.347> 985 113<764 932.23> 1043 113<121.459 197.105>
DStem2: 1098 349 1156 199 0.900526 -0.434803<117.451 517.476>
LayerCount: 2
Fore
SplineSet
958 0 m 0xfe
 1064 0 1156 78 1156 199 c 9xfd
 1564 0 l 1
 1677 0 l 9
 1677 1254 l 9
 1564 1254 l 17
 1564 124 l 25
 1098 349 l 9
 1098 764 l 2
 1098 1034 876 1254 604 1254 c 256
 336 1254 110 1040 110 764 c 1
 250 764 l 17
 250 196 l 18
 250 85 340 0 448 0 c 0
 562 0 647 90 647 197 c 0
 647 302 562 391 448 391 c 0
 417 391 389 385 363 373 c 9
 363 764 l 9
 476 764 l 1
 476 876 l 1
 239 876 l 17
 315 1087 486 1142 604 1142 c 256
 810 1142 985 976 985 764 c 2
 985 390 l 17
 977 391 968 391 957 391 c 0
 850 391 761 305 761 196 c 0
 761 88 848 0 958 0 c 0xfe
959 112 m 0
 911 112 874 149 874 195 c 0
 874 245 915 279 959 279 c 0
 1008 279 1043 240 1043 195 c 0
 1043 149 1008 112 959 112 c 0
448 112 m 0
 400 112 363 149 363 195 c 0
 363 245 404 279 448 279 c 0
 498 279 534 239 534 195 c 0
 534 145 492 112 448 112 c 0
EndSplineSet
EndChar

StartChar: uni0E0D
Encoding: 3597 3597 136
Width: 1864
VWidth: 2045
Flags: W
HStem: -548 149<1034.39 1323.84> -231 112<1031.7 1179.46> 0 112<373.641 523.099 1098 1565> 279 112<374.009 523.423> 764 112<240 251 364 476> 1142 112<424.175 780.412>
VStem: 251 113<125.058 268.581 373 764> 534 113<123.11 267.934> 909 113<-389.145 -242.346> 985 113<112 934.233> 1191 115<-388.254 -243.031> 1565 113<-264.545 -101 112 1254>
LayerCount: 2
Fore
SplineSet
1232 -450 m 1xffb0
 1394 -438 1565 -301 1565 -101 c 9
 1678 -101 l 17
 1678 -347 1475 -548 1226 -548 c 0
 981 -548 909 -414 909 -326 c 0
 909 -197 1003 -119 1106 -119 c 0
 1215 -119 1306 -209 1306 -323 c 1
 1307 -370 1283 -413 1232 -450 c 1xffb0
1106 -231 m 0
 1062 -231 1022 -266 1022 -316 c 0
 1022 -366 1062 -399 1106 -399 c 0
 1155 -399 1191 -360 1191 -316 c 0
 1191 -271 1155 -231 1106 -231 c 0
604 1254 m 256
 873 1254 1098 1039 1098 764 c 2
 1098 112 l 1
 1565 112 l 1
 1565 1254 l 1
 1678 1254 l 1
 1678 0 l 17
 985 0 l 1
 985 764 l 2xff70
 985 973 814 1142 604 1142 c 256
 486 1142 316 1087 240 876 c 1
 476 876 l 1
 476 764 l 1
 364 764 l 1
 364 373 l 1
 391 385 419 391 449 391 c 0
 561 391 647 303 647 196 c 0
 647 88 561 0 448 0 c 0
 334 0 251 90 251 196 c 2
 251 764 l 1
 110 764 l 1
 110 1034 332 1254 604 1254 c 256
449 279 m 0
 400 279 364 240 364 195 c 0
 364 145 404 112 449 112 c 0
 497 112 534 149 534 195 c 0
 534 245 493 279 449 279 c 0
EndSplineSet
Substitution2: "'ccmp' Pali-Sanskrit Descender Removal" uni0E0D.descless
Substitution2: "Thai Descender Removal Single Substitution" uni0E0D.descless
EndChar

StartChar: uni0E0E
Encoding: 3598 3598 137
Width: 1373
VWidth: 2045
Flags: W
HStem: -541 112<574.497 724.852> -261 111<575.802 724.023> 0 112<219.484 367.558> 279 112<219.558 368.497> 764 112<338 378 491 604> 1142 112<522.357 877.185>
VStem: 96 113<123.164 267.898> 378 113<123.822 269.387 373 764> 451 113<-417.63 -271.378> 1084 113<-379 933.432>
AnchorPoint: "BelowBase" 1144 -625 basechar 0
LayerCount: 2
Fore
SplineSet
703 1254 m 256xff40
 973 1254 1197 1037 1197 764 c 2
 1197 -426 l 17
 1024 -597 l 17
 849 -424 l 17
 790 -483 l 2
 750 -522 703 -541 649 -541 c 0
 537 -541 451 -452 451 -345 c 0xfec0
 451 -233 541 -150 650 -150 c 0
 704 -150 751 -169 790 -207 c 2
 849 -266 l 9
 928 -187 l 1
 1009 -266 l 1
 930 -344 l 25
 1024 -438 l 9
 1084 -379 l 9
 1084 764 l 2
 1084 976 909 1142 703 1142 c 256
 587 1142 408 1085 338 876 c 9
 604 876 l 1
 604 764 l 1
 491 764 l 17
 491 196 l 2
 491 87 404 0 294 0 c 0
 182 0 96 88 96 196 c 0
 96 303 183 391 293 391 c 0
 324 391 353 385 378 373 c 9
 378 764 l 9
 209 764 l 1
 209 1034 431 1254 703 1254 c 256xff40
650 -261 m 0
 597 -261 564 -303 564 -346 c 0
 564 -396 604 -429 650 -429 c 0
 698 -429 735 -392 735 -346 c 0
 735 -303 701 -261 650 -261 c 0
294 279 m 0
 245 279 209 240 209 195 c 0
 209 145 249 112 294 112 c 0
 343 112 378 149 378 195 c 0xff40
 378 244 339 279 294 279 c 0
EndSplineSet
EndChar

StartChar: uni0E0F
Encoding: 3599 3599 138
Width: 1373
VWidth: 2045
Flags: W
HStem: -571 112<332.465 481.693> -292 112<332.558 480.683> 0 112<219.484 367.558> 279 112<219.558 368.497> 764 112<338 378 491 604> 1142 112<522.357 877.185>
VStem: 96 113<123.164 267.898> 209 113<-448.267 -303.326> 378 113<123.822 269.387 373 764> 1084 113<-387 933.432>
AnchorPoint: "BelowBase" 1105 -625 basechar 0
LayerCount: 2
Fore
SplineSet
209 -376 m 0xfdc0
 209 -268 296 -180 406 -180 c 0
 461 -180 507 -199 546 -237 c 2
 607 -296 l 9
 686 -218 l 1
 765 -296 l 1
 686 -375 l 25
 758 -447 l 1
 890 -314 l 25
 1024 -447 l 9
 1084 -387 l 9
 1084 764 l 2
 1084 976 909 1142 703 1142 c 256
 587 1142 408 1085 338 876 c 9
 604 876 l 1
 604 764 l 1
 491 764 l 17
 491 196 l 2
 491 87 404 0 294 0 c 0
 182 0 96 88 96 196 c 0xfec0
 96 303 183 391 293 391 c 0
 324 391 353 385 378 373 c 9
 378 764 l 9
 209 764 l 1
 209 1034 431 1254 703 1254 c 256
 973 1254 1197 1037 1197 764 c 2
 1197 -432 l 17
 1024 -604 l 17
 890 -473 l 25
 758 -604 l 1
 607 -455 l 17
 546 -514 l 2
 507 -552 461 -571 406 -571 c 0
 296 -571 209 -484 209 -376 c 0xfdc0
407 -292 m 0
 358 -292 322 -331 322 -376 c 0xfdc0
 322 -426 362 -459 407 -459 c 0
 456 -459 491 -422 491 -376 c 0
 491 -327 452 -292 407 -292 c 0
294 279 m 0
 245 279 209 240 209 195 c 0xfec0
 209 145 249 112 294 112 c 0
 343 112 378 149 378 195 c 0
 378 244 339 279 294 279 c 0
EndSplineSet
EndChar

StartChar: uni0E10
Encoding: 3600 3600 139
Width: 1192
VWidth: 2045
Flags: W
HStem: -733 112<162.832 312.068> -453 112<162.646 312.714 752.538 913.218> -187 112<758.025 907.945> 0 21G<701.675 817.356> 296 112<416.385 565.096> 574 112<416.55 563.641> 764 112<247 810.359> 1142 112<434.444 789.98>
VStem: 43 109<-609.663 -463.958> 293 113<418.789 563.582> 634 113<-343.352 -198.311> 837 113<564.764 737.139> 918 113<-548 -449 -344.41 -200.507>
DStem2: 758 266 813 0 0.212831 0.977089<0 387.744>
LayerCount: 2
Fore
SplineSet
832 -355 m 0xffe8
 886 -355 918 -310 918 -270 c 24
 918 -226 881 -187 832 -187 c 0
 783 -187 747 -226 747 -270 c 0
 747 -315 783 -355 832 -355 c 0xffe8
438 -616 m 0
238 -453 m 0
 194 -453 152 -486 152 -536 c 0
 152 -580 188 -621 238 -621 c 0
 287 -621 323 -581 323 -536 c 0
 323 -486 283 -453 238 -453 c 0
834 -75 m 0
 947 -75 1031 -165 1031 -272 c 2
 1031 -595 l 1
 857 -766 l 17
 723 -634 l 25
 592 -766 l 1
 439 -616 l 17
 378 -675 l 2
 339 -714 293 -733 239 -733 c 0
 131 -733 43 -646 43 -537 c 0
 43 -428 131 -341 240 -341 c 0
 293 -341 339 -360 378 -399 c 2
 439 -459 l 9
 518 -379 l 1
 598 -459 l 1
 518 -538 l 25
 592 -607 l 1
 724 -476 l 25
 857 -607 l 9
 918 -548 l 1
 918 -449 l 17
 891 -461 863 -467 832 -467 c 0
 720 -467 634 -378 634 -271 c 0
 634 -163 720 -75 834 -75 c 0
117 764 m 1
 117 1019 325 1254 611 1254 c 256
 810 1254 960 1143 1040 1006 c 9
 944 949 l 17
 844 1122 681 1142 611 1142 c 256
 427 1142 290 1015 247 876 c 1
 724 876 l 2
 845 876 950 783 950 652 c 16
 950 634 948 619 945 606 c 10
 813 0 l 1
 707 0 l 1
 617 338 l 17
 590 310 548 296 491 296 c 0
 380 296 293 385 293 491 c 0
 293 598 380 686 491 686 c 0
 565 686 653 646 685 529 c 2
 758 266 l 17
 835 631 l 18
 836 634 837 638 837 646 c 0xfff0
 837 710 793 764 724 764 c 2
 117 764 l 1
489 574 m 0
 440 574 406 537 406 491 c 0
 406 442 443 408 489 408 c 0
 533 408 575 441 575 491 c 0
 575 541 533 574 489 574 c 0
EndSplineSet
Substitution2: "'ccmp' Pali-Sanskrit Descender Removal" uni0E10.descless
Substitution2: "Thai Descender Removal Single Substitution" uni0E10.descless
EndChar

StartChar: uni0E11
Encoding: 3601 3601 140
Width: 1573
VWidth: 2045
Flags: W
HStem: 0 21G<534 654.858 1287 1400> 633 113<250.56 398.352> 914 110<250.038 397.949> 1142 112<1084.66 1262.62>
VStem: 85 154<757.326 1009.82> 409 113<755.281 904.171> 534 113<308 663.364> 690 114<802.338 1095.79> 1287 113<0 1116.47>
DStem2: 647 308 647 0 0.365679 0.930741<0 951.457>
LayerCount: 2
Fore
SplineSet
325 914 m 0
 275 914 239 874 239 829 c 0
 239 779 281 746 325 746 c 0
 374 746 409 783 409 829 c 0
 409 878 370 914 325 914 c 0
1287 1027 m 18
 1287 1091 1236 1142 1174 1142 c 24
 1110 1142 1078 1096 1067 1069 c 2
 647 0 l 1
 534 0 l 1
 534 498 l 2
 534 752 688 770 690 934 c 17
 693 1065 631 1118 613 1124 c 1
 476 1039 l 1
 326 1130 l 17
 307 1126 221 1076 198 976 c 1
 247 1008 289 1024 325 1024 c 0
 434 1024 522 937 522 827 c 0
 522 719 434 633 325 633 c 0
 229 633 85 690 85 922 c 0
 85 1018 113 1094 169 1149 c 0
 225 1204 282 1239 340 1254 c 1
 476 1171 l 1
 610 1254 l 1
 647 1241 688 1206 735 1152 c 1
 781 1097 804 1030 804 950 c 0
 804 729 645 708 647 498 c 1
 647 308 l 17
 964 1115 l 2
 981 1158 1048 1254 1173 1254 c 24
 1301 1254 1400 1152 1400 1030 c 2
 1400 0 l 1
 1287 0 l 1
 1287 1027 l 18
EndSplineSet
EndChar

StartChar: uni0E12
Encoding: 3602 3602 141
Width: 1916
VWidth: 2045
Flags: W
HStem: 0 112<922.135 1071.3> 279 112<922.565 1022.12> 820 112<568.246 716.63> 1234 20G<344.5 426.113 857.285 938 1618 1730>
VStem: 149 113<160 1063.84> 445 113<662.104 809.095> 727 113<662.231 808.385> 799 113<122.642 268.476> 1023 113<390 1058.25> 1081 113<121.985 197.15> 1618 112<124 1254>
DStem2: 262 160 262 0 0.656179 0.754606<0 512.508> 393 1254 384 1130 0.855154 -0.518375<35.2716 292.063> 643 1103 643 973 0.854262 0.519842<0 254.584> 1136 349 1194 199 0.906135 -0.422988<116.004 531.93>
LayerCount: 2
Fore
SplineSet
642 820 m 0xfe20
 598 820 558 785 558 736 c 0
 558 685 598 652 642 652 c 0
 691 652 727 691 727 736 c 0
 727 780 691 820 642 820 c 0xfe20
890 1254 m 17
 986 1227 1136 1124 1136 929 c 2
 1136 349 l 17xfea0
 1618 124 l 25
 1618 1254 l 9
 1730 1254 l 17
 1730 0 l 17
 1618 0 l 1
 1194 199 l 17xfc60
 1194 78 1102 0 996 0 c 0
 885 0 799 88 799 196 c 0
 799 303 886 391 997 391 c 0
 1005 391 1014 391 1023 390 c 9
 1023 929 l 2xfda0
 1023 1050 938 1111 901 1130 c 9
 643 973 l 1
 384 1130 l 17
 339 1108 262 1049 262 927 c 2
 262 160 l 25
 598 547 l 1
 502 567 445 652 445 737 c 0
 445 843 531 932 642 932 c 0
 755 932 840 842 840 737 c 0
 840 689 821 643 782 598 c 2
 262 0 l 17
 149 0 l 9
 149 927 l 2
 149 1123 296 1226 393 1254 c 9
 643 1103 l 1
 890 1254 l 17
996 279 m 0
 946 279 912 241 912 195 c 0
 912 149 946 112 996 112 c 0
 1044 112 1081 149 1081 195 c 0xfd60
 1081 241 1044 279 996 279 c 0
EndSplineSet
EndChar

StartChar: uni0E13
Encoding: 3603 3603 142
Width: 1898
VWidth: 2045
Flags: W
HStem: 0 112<373.072 523.229 1499 1648.33> 279 112<373.009 523.119> 764 112<239 250 363 476> 1142 112<424.376 778.185>
VStem: 250 113<125.058 268.581 373 764> 534 112<123.164 267.486> 985 113<131 933.432> 1518 113<362.219 1254> 1659 113<122.642 267.553>
DStem2: 1098 131 1098 0 0.851424 0.524477<0 259.902>
LayerCount: 2
Fore
SplineSet
1574 0 m 0
 1466 0 1386 81 1378 172 c 9
 1098 0 l 1
 985 0 l 9
 985 764 l 2
 985 976 810 1142 604 1142 c 256
 485 1142 315 1087 239 876 c 9
 476 876 l 1
 476 764 l 1
 363 764 l 17
 363 373 l 17
 390 385 418 391 448 391 c 0
 562 391 646 301 646 196 c 0
 646 88 562 0 448 0 c 0
 334 0 250 90 250 196 c 10
 250 764 l 9
 110 764 l 1
 110 1039 335 1254 604 1254 c 256
 874 1254 1098 1037 1098 764 c 2
 1098 131 l 25
 1473 362 l 2
 1487 371 1502 377 1518 382 c 9
 1518 1254 l 9
 1631 1254 l 17
 1631 382 l 17
 1684 367 1772 307 1772 196 c 0
 1772 88 1685 0 1574 0 c 0
1575 112 m 0
 1624 112 1659 149 1659 195 c 0
 1659 244 1620 279 1575 279 c 0
 1525 279 1489 239 1489 195 c 0
 1489 145 1531 112 1575 112 c 0
448 279 m 0
 399 279 363 240 363 195 c 0
 363 145 403 112 448 112 c 0
 492 112 534 145 534 195 c 0
 534 240 496 279 448 279 c 0
EndSplineSet
EndChar

StartChar: uni0E14
Encoding: 3604 3604 143
Width: 1301
VWidth: 2045
Flags: W
HStem: 0 21G<165 294.823 1012 1125> 820 112<568.452 716.56> 1142 112<476.339 817.491>
VStem: 165 113<160 947.846> 445 113<662.172 809.077> 727 112<662.509 809.113> 1012 113<0 947.846>
DStem2: 278 160 278 0 0.643702 0.765276<0 502.147>
LayerCount: 2
Fore
SplineSet
642 932 m 0
 755 932 839 839 839 743 c 0
 839 693 820 645 781 598 c 2
 278 0 l 1
 165 0 l 1
 165 776 l 2
 165 1040 378 1254 644 1254 c 0
 905 1254 1125 1047 1125 776 c 2
 1125 0 l 1
 1012 0 l 1
 1012 776 l 2
 1012 990 840 1142 645 1142 c 0
 452 1142 276 990 278 776 c 1
 278 160 l 1
 598 547 l 1
 507 566 445 645 445 736 c 0
 445 844 532 932 642 932 c 0
642 820 m 0
 598 820 558 785 558 736 c 0
 558 685 598 652 642 652 c 0
 691 652 727 691 727 736 c 0
 727 780 691 820 642 820 c 0
EndSplineSet
EndChar

StartChar: uni0E15
Encoding: 3605 3605 144
Width: 1301
VWidth: 2045
Flags: W
HStem: 0 21G<165 294.856 1008 1121> 820 112<568.246 716.63> 1234 20G<359 439.993 844.272 922.5>
VStem: 165 113<160 1063.84> 445 113<662.104 809.095> 727 113<662.406 808.385> 1008 113<0 1063.62>
DStem2: 278 160 278 0 0.644451 0.764646<0 502.142> 409 1254 399 1130 0.840954 -0.541106<39.1312 278.49> 643 1103 643 973 0.839941 0.542678<0 238.115>
LayerCount: 2
Fore
SplineSet
642 932 m 0
 755 932 840 842 840 737 c 0
 840 690 821 643 782 598 c 2
 278 0 l 17
 165 0 l 9
 165 927 l 2
 165 1123 309 1226 409 1254 c 9
 643 1103 l 1
 875 1254 l 17
 970 1227 1121 1123 1121 927 c 2
 1121 0 l 1
 1008 0 l 1
 1008 927 l 2
 1008 1049 925 1110 886 1130 c 9
 643 973 l 1
 399 1130 l 17
 356 1109 277 1048 278 927 c 1
 278 160 l 25
 598 547 l 1
 502 567 445 652 445 737 c 0
 445 843 531 932 642 932 c 0
642 820 m 0
 598 820 558 785 558 736 c 0
 558 685 598 652 642 652 c 0
 691 652 727 691 727 736 c 0
 727 780 691 820 642 820 c 0
EndSplineSet
EndChar

StartChar: uni0E16
Encoding: 3606 3606 145
Width: 1248
VWidth: 2045
Flags: W
HStem: 0 112<373.072 523.229> 279 112<373.009 523.119> 764 112<239 250 363 476> 1142 112<424.277 778.185>
VStem: 250 113<125.058 268.581 373 764> 534 112<123.164 267.486> 985 113<0 933.432>
LayerCount: 2
Fore
SplineSet
448 112 m 0
 492 112 534 145 534 195 c 0
 534 240 496 279 448 279 c 0
 399 279 363 240 363 195 c 0
 363 145 403 112 448 112 c 0
985 764 m 2
 985 976 810 1142 604 1142 c 256
 487 1142 312 1086 239 876 c 9
 476 876 l 1
 476 764 l 1
 363 764 l 17
 363 373 l 17
 390 385 418 391 448 391 c 0
 562 391 646 301 646 196 c 0
 646 88 562 0 448 0 c 0
 334 0 250 90 250 196 c 10
 250 764 l 9
 110 764 l 1
 110 1039 335 1254 604 1254 c 256
 874 1254 1098 1037 1098 764 c 2
 1098 0 l 1
 985 0 l 1
 985 764 l 2
EndSplineSet
EndChar

StartChar: uni0E17
Encoding: 3607 3607 146
Width: 1338
VWidth: 2045
Flags: W
HStem: 861 112<185.295 332.23> 1142 112<184.648 331.394 878.234 1056.93>
VStem: 61 113<983.339 1131.27> 343 113<983.651 1131.38> 1079 113<1027 1120.47>
DStem2: 456 308 456 0 0.354285 0.935138<0 944.024>
LayerCount: 2
Fore
SplineSet
61 1058 m 0
 61 945 151 861 259 861 c 0
 290 861 318 867 343 879 c 1
 343 0 l 1
 456 0 l 1
 861 1069 l 2
 875 1108 915 1142 968 1142 c 24
 1029 1142 1079 1095 1079 1027 c 10
 1079 0 l 1
 1192 0 l 1
 1192 1030 l 2
 1192 1150 1097 1254 967 1254 c 24
 842 1254 772 1155 758 1115 c 2
 456 308 l 1
 456 1057 l 2
 456 1171 365 1254 258 1254 c 0
 149 1254 61 1167 61 1058 c 0
258 973 m 0
 214 973 174 1008 174 1058 c 0
 174 1102 209 1142 258 1142 c 0
 307 1142 343 1102 343 1058 c 0
 343 1013 307 973 258 973 c 0
EndSplineSet
EndChar

StartChar: uni0E18
Encoding: 3608 3608 147
Width: 1120
VWidth: 2045
Flags: W
HStem: 0 112<204 317 430 820> 764 112<232 317 430 798> 1142 112<415.633 773.94>
VStem: 317 113<112 764> 820 113<112 738.047>
LayerCount: 2
Fore
SplineSet
820 652 m 10
 820 714 773 764 707 764 c 2
 430 764 l 17
 430 112 l 17
 820 112 l 25
 820 652 l 10
102 764 m 1
 102 1034 324 1254 596 1254 c 256
 792 1254 944 1143 1024 1009 c 9
 927 953 l 17
 865 1055 749 1142 596 1142 c 256
 433 1142 283 1041 232 876 c 9
 707 876 l 2
 839 876 933 773 933 652 c 18
 933 0 l 9
 204 0 l 1
 204 112 l 1
 317 112 l 25
 317 764 l 25
 102 764 l 1
EndSplineSet
EndChar

StartChar: uni0E19
Encoding: 3609 3609 148
Width: 1338
VWidth: 2045
Flags: W
HStem: 0 112<991.283 1140.65> 861 112<192.612 341.095> 1142 112<192.764 339.859>
VStem: 69 113<984.667 1131.19> 351 113<124 879 982.644 1130.55> 867 113<122.997 196> 1009 113<363.96 1254> 1150 112<122.024 267.553>
DStem2: 464 124 464 0 0.902927 0.429793<0 394.825>
LayerCount: 2
Fore
SplineSet
1064 0 m 24
 957 0 867 85 867 196 c 9
 464 0 l 17
 351 0 l 1
 351 879 l 1
 324 867 296 861 265 861 c 0
 155 861 69 949 69 1058 c 0
 69 1169 157 1254 266 1254 c 0
 375 1254 463 1169 464 1057 c 1
 464 124 l 9
 964 362 l 2
 988 373 1003 380 1009 382 c 9
 1009 1254 l 9
 1122 1254 l 17
 1122 382 l 17
 1178 367 1262 307 1262 196 c 0
 1262 85 1173 0 1064 0 c 24
1066 112 m 0
 1115 112 1150 149 1150 195 c 0
 1150 244 1111 279 1066 279 c 0
 1016 279 980 239 980 195 c 0
 980 145 1022 112 1066 112 c 0
267 1142 m 0
 218 1142 182 1102 182 1058 c 0
 182 1013 218 973 267 973 c 0
 311 973 351 1008 351 1058 c 0
 351 1102 316 1142 267 1142 c 0
EndSplineSet
EndChar

StartChar: uni0E1A
Encoding: 3610 3610 149
Width: 1391
VWidth: 2045
Flags: W
HStem: 0 112<277 390 503 1101> 861 112<232.176 380.013> 1142 112<232.606 379.352>
VStem: 108 113<983.742 1131.7> 390 113<112 879 982.66 1129.73> 1101 113<112 1254>
LayerCount: 2
Fore
SplineSet
306 1254 m 0
 415 1254 503 1167 503 1057 c 2
 503 112 l 1
 1101 112 l 25
 1101 1254 l 25
 1214 1254 l 25
 1214 0 l 9
 277 0 l 1
 277 112 l 1
 390 112 l 17
 390 879 l 1
 364 867 336 861 305 861 c 0
 198 861 108 945 108 1058 c 0
 108 1171 199 1254 306 1254 c 0
306 1142 m 0
 257 1142 221 1103 221 1058 c 0
 221 1012 257 973 306 973 c 0
 357 973 390 1013 390 1058 c 0
 390 1103 355 1142 306 1142 c 0
EndSplineSet
EndChar

StartChar: uni0E1B
Encoding: 3611 3611 150
Width: 1391
VWidth: 2045
Flags: W
HStem: 0 112<277 390 503 1101> 861 112<232.176 380.013> 1142 112<232.606 379.352>
VStem: 108 113<983.742 1131.7> 390 113<112 879 982.66 1129.73> 1101 113<112 1832>
AnchorPoint: "AboveBase" 987 1370 basechar 0
LayerCount: 2
Fore
SplineSet
306 1254 m 0
 415 1254 503 1167 503 1057 c 2
 503 112 l 1
 1101 112 l 25
 1101 1832 l 25
 1214 1832 l 25
 1214 0 l 9
 277 0 l 1
 277 112 l 1
 390 112 l 17
 390 879 l 1
 364 867 336 861 305 861 c 0
 198 861 108 945 108 1058 c 0
 108 1171 199 1254 306 1254 c 0
306 1142 m 0
 257 1142 221 1103 221 1058 c 0
 221 1012 257 973 306 973 c 0
 357 973 390 1013 390 1058 c 0
 390 1103 355 1142 306 1142 c 0
EndSplineSet
EndChar

StartChar: uni0E1C
Encoding: 3612 3612 151
Width: 1290
VWidth: 2045
Flags: W
HStem: 0 21G<162 289.313 1016.69 1145> 861 112<286.65 433.114> 1142 112<286.589 434.012>
VStem: 162 112<172 881 983.651 1127.97> 445 113<983.842 1130.78> 1032 113<172 1254>
DStem2: 274 172 274 0 0.607926 0.793993<0 486.864> 653 665 653 495 0.607926 -0.793993<134.979 621.843>
LayerCount: 2
Fore
SplineSet
558 1058 m 0
 558 945 468 861 360 861 c 0
 329 861 301 868 274 881 c 1
 274 172 l 25
 653 665 l 1
 1032 172 l 25
 1032 1254 l 9
 1145 1254 l 25
 1145 0 l 9
 1032 0 l 17
 653 495 l 25
 274 0 l 9
 162 0 l 25
 162 1054 l 18
 162 1166 251 1254 360 1254 c 0
 470 1254 558 1167 558 1058 c 0
360 973 m 0
 409 973 445 1013 445 1058 c 0
 445 1102 409 1142 360 1142 c 0
 316 1142 276 1107 276 1058 c 0
 276 1013 311 973 360 973 c 0
EndSplineSet
EndChar

StartChar: uni0E1D
Encoding: 3613 3613 152
Width: 1290
VWidth: 2045
Flags: W
HStem: 0 21G<162 289.251 1016.75 1145> 861 112<286.65 433.114> 1142 112<286.589 434.012>
VStem: 162 112<165 881 983.651 1127.97> 445 113<983.842 1130.78> 1032 113<163 1832>
DStem2: 274 165 274 0 0.601014 0.799238<0 493.132> 653 669 653 497 0.599494 -0.800379<137.665 632.2>
AnchorPoint: "AboveBase" 930 1370 basechar 0
LayerCount: 2
Fore
SplineSet
558 1058 m 0
 558 945 468 861 360 861 c 0
 329 861 301 868 274 881 c 1
 274 165 l 25
 653 669 l 1
 1032 163 l 25
 1032 1832 l 9
 1145 1832 l 25
 1145 0 l 9
 1032 0 l 17
 653 497 l 25
 274 0 l 9
 162 0 l 25
 162 1054 l 18
 162 1166 251 1254 360 1254 c 0
 470 1254 558 1167 558 1058 c 0
360 973 m 0
 409 973 445 1013 445 1058 c 0
 445 1102 409 1142 360 1142 c 0
 316 1142 276 1107 276 1058 c 0
 276 1013 311 973 360 973 c 0
EndSplineSet
EndChar

StartChar: uni0E1E
Encoding: 3614 3614 153
Width: 1470
VWidth: 2045
Flags: W
HStem: 0 21G<345 464.774 1170.21 1290> 861 112<184.187 332.314> 1142 112<182.288 331.704>
VStem: 61 111<984.667 1129.34> 345 113<350 881 984.595 1127.97> 1177 113<350 1254>
DStem2: 458 350 458 0 0.320781 0.947153<0 787.639> 871 1254 817 1060 0.321582 -0.946882<166.33 954.385>
LayerCount: 2
Fore
SplineSet
258 1254 m 0
 368 1254 457 1166 458 1054 c 1
 458 350 l 25
 764 1254 l 9
 871 1254 l 17
 1177 350 l 25
 1177 1254 l 9
 1290 1254 l 25
 1290 0 l 9
 1177 0 l 17
 817 1060 l 25
 458 0 l 9
 345 0 l 25
 345 881 l 1
 318 868 290 861 259 861 c 0
 147 861 61 949 61 1058 c 0
 61 1171 152 1254 258 1254 c 0
258 1142 m 0
 209 1142 172 1102 172 1058 c 0
 172 1013 209 973 258 973 c 0
 302 973 342 1008 342 1058 c 0
 342 1102 307 1142 258 1142 c 0
EndSplineSet
EndChar

StartChar: uni0E1F
Encoding: 3615 3615 154
Width: 1470
VWidth: 2045
Flags: W
HStem: 0 21G<345 464.774 1170.21 1290> 861 112<184.187 332.314> 1142 112<182.288 331.704>
VStem: 61 111<984.667 1129.34> 345 113<350 881 984.595 1127.97> 1177 113<350 1832>
DStem2: 458 350 458 0 0.320781 0.947153<0 787.639> 871 1254 817 1060 0.321582 -0.946882<166.33 954.385>
AnchorPoint: "AboveBase" 1035 1370 basechar 0
LayerCount: 2
Fore
SplineSet
258 1254 m 0
 368 1254 457 1166 458 1054 c 1
 458 350 l 25
 764 1254 l 9
 871 1254 l 17
 1177 350 l 25
 1177 1832 l 9
 1290 1832 l 25
 1290 0 l 9
 1177 0 l 17
 817 1060 l 25
 458 0 l 9
 345 0 l 25
 345 881 l 1
 318 868 290 861 259 861 c 0
 147 861 61 949 61 1058 c 0
 61 1171 152 1254 258 1254 c 0
258 1142 m 0
 209 1142 172 1102 172 1058 c 0
 172 1013 209 973 258 973 c 0
 302 973 342 1008 342 1058 c 0
 342 1102 307 1142 258 1142 c 0
EndSplineSet
EndChar

StartChar: uni0E20
Encoding: 3616 3616 155
Width: 1373
VWidth: 2045
Flags: W
HStem: 0 112<219.883 367.764> 279 112<219.558 368.107> 1142 112<523.181 877.585>
VStem: 96 113<123.11 268.141> 378 113<124.234 269.552> 1084 113<764 932.23>
LayerCount: 2
Fore
SplineSet
294 112 m 0
 246 112 209 149 209 195 c 0
 209 245 250 279 294 279 c 0
 343 279 378 240 378 195 c 0
 378 149 343 112 294 112 c 0
294 0 m 0
 405 0 491 88 491 196 c 2
 491 764 l 25
 604 764 l 1
 604 876 l 1
 338 876 l 17
 408 1085 587 1142 703 1142 c 256
 909 1142 1084 976 1084 764 c 2
 1084 0 l 1
 1197 0 l 1
 1197 764 l 2
 1197 1034 975 1254 703 1254 c 256
 435 1254 209 1038 209 764 c 1
 378 764 l 25
 378 373 l 1
 351 385 323 391 293 391 c 0
 183 391 96 304 96 196 c 0
 96 88 183 0 294 0 c 0
EndSplineSet
EndChar

StartChar: uni0E21
Encoding: 3617 3617 156
Width: 1355
VWidth: 2045
Flags: W
HStem: 0 113<255.754 403.233> 281 110<255.64 404.883> 862 114<255.633 404.974> 1143 111<255.146 403.107>
VStem: 133 111<124.025 269.321 985.958 1130.97> 415 112<123.651 215.922 373 881 986.187 1130.97> 1067 113<112 1253>
DStem2: 527 329 527 218 0.927288 -0.374349<41.5528 581.969>
LayerCount: 2
Fore
SplineSet
330 1254 m 0
 437 1254 527 1170 527 1057 c 2
 527 329 l 25
 1067 112 l 9
 1067 1253 l 1
 1180 1253 l 1
 1180 0 l 1
 1067 0 l 1
 527 218 l 17
 527 196 l 2
 527 86 439 0 330 0 c 0
 219 0 133 88 133 196 c 0
 133 304 221 391 329 391 c 0
 360 391 388 385 415 373 c 9
 415 881 l 1
 388 868 360 862 329 862 c 0
 221 862 133 949 133 1058 c 0
 133 1165 218 1254 330 1254 c 0
329 1143 m 0
 280 1143 244 1104 244 1059 c 0
 244 1009 286 976 329 976 c 0
 379 976 415 1014 415 1059 c 0
 415 1104 377 1143 329 1143 c 0
329 281 m 0
 281 281 244 244 244 198 c 0
 244 149 284 113 329 113 c 0
 379 113 415 153 415 198 c 0
 415 248 373 281 329 281 c 0
EndSplineSet
EndChar

StartChar: uni0E22
Encoding: 3618 3618 157
Width: 1248
VWidth: 2045
Flags: W
HStem: 0 112<345 954> 622 112<372.234 681> 861 112<291.68 436.723> 1142 112<293.162 436.94>
VStem: 112 169<878.779 1129.95> 232 113<112 598.805> 448 113<983.133 1131.89> 954 113<112 1254>
LayerCount: 2
Fore
SplineSet
457 622 m 18xfb
 392 622 345 570 345 511 c 10
 345 112 l 25
 954 112 l 25
 954 1254 l 25
 1067 1254 l 25
 1067 0 l 9
 232 0 l 9
 232 511 l 2xf7
 232 570 252 622 293 665 c 1
 218 694 112 779 112 971 c 8
 112 1138 209 1251 364 1254 c 1
 471 1254 561 1170 561 1058 c 0
 561 944 470 861 364 861 c 16
 315 861 273 874 238 900 c 1
 243 862 282 734 457 734 c 10
 681 734 l 17
 681 622 l 1
 457 622 l 18xfb
364 973 m 0
 408 973 448 1008 448 1058 c 0
 448 1102 413 1142 364 1142 c 0
 316 1142 281 1102 281 1058 c 0xfb
 281 1013 316 973 364 973 c 0
EndSplineSet
EndChar

StartChar: uni0E23
Encoding: 3619 3619 158
Width: 1002
VWidth: 2045
Flags: W
HStem: 0 112<426.259 574.334> 279 112<426.558 575.189> 834 112<211 557.005> 1142 112<345.129 665.2>
VStem: 303 113<123.164 267.898> 585 113<123.822 269.387 373 808.047> 803 108<938.814 1003.64>
LayerCount: 2
Fore
SplineSet
79 834 m 1
 79 1060 262 1254 502 1254 c 0
 713 1254 867 1110 911 942 c 9
 803 918 l 17
 779 1003 683 1142 503 1142 c 0
 328 1142 237 1010 211 946 c 9
 472 946 l 1
 602 943 698 844 698 722 c 26
 698 196 l 2
 698 87 611 0 500 0 c 0
 389 0 303 88 303 196 c 0
 303 303 390 391 500 391 c 0
 530 391 558 385 585 373 c 1
 585 722 l 26
 585 780 536 834 472 834 c 2
 79 834 l 1
501 279 m 0
 452 279 416 240 416 195 c 0
 416 145 456 112 501 112 c 0
 550 112 585 149 585 195 c 0
 585 244 546 279 501 279 c 0
EndSplineSet
EndChar

StartChar: uni0E24
Encoding: 3620 3620 159
Width: 1248
VWidth: 2045
Flags: W
HStem: 0 112<353.072 503.229> 279 112<353.009 503.119> 764 112<219 230 343 456> 1142 112<404.376 758.185>
VStem: 230 113<125.058 268.581 373 764> 514 112<123.164 267.486> 965 113<-548 933.432>
LayerCount: 2
Fore
SplineSet
428 112 m 0
 472 112 514 145 514 195 c 0
 514 240 476 279 428 279 c 0
 379 279 343 240 343 195 c 0
 343 145 383 112 428 112 c 0
965 764 m 2
 965 976 790 1142 584 1142 c 256
 465 1142 295 1087 219 876 c 9
 456 876 l 1
 456 764 l 1
 343 764 l 17
 343 373 l 17
 370 385 398 391 428 391 c 0
 542 391 626 301 626 196 c 0
 626 88 542 0 428 0 c 0
 314 0 230 90 230 196 c 10
 230 764 l 9
 90 764 l 1
 90 1039 315 1254 584 1254 c 256
 854 1254 1078 1037 1078 764 c 2
 1078 -548 l 1
 965 -548 l 1
 965 764 l 2
EndSplineSet
EndChar

StartChar: uni0E25
Encoding: 3621 3621 160
Width: 1263
VWidth: 2045
Flags: W
HStem: 0 112<378.309 528.323> 279 112<378.125 528.511> 752 112<468.332 770.862> 1142 112<417.367 768.185>
VStem: 100 113<764 934.233> 255 113<125.058 268.783 373 635.09> 539 113<123.11 267.587> 975 113<0 549.016 686 933.432>
LayerCount: 2
Fore
SplineSet
454 112 m 0
 502 112 539 149 539 195 c 0
 539 241 502 279 454 279 c 0
 405 279 368 241 368 195 c 0
 368 145 408 112 454 112 c 0
594 864 m 256
 776 864 905 770 975 686 c 1
 975 764 l 2
 975 976 800 1142 594 1142 c 256
 383 1142 213 971 213 764 c 9
 100 764 l 17
 100 1039 325 1254 594 1254 c 256
 864 1254 1088 1037 1088 764 c 2
 1088 0 l 1
 975 0 l 1
 975 372 l 2
 975 591 797 752 594 752 c 256
 467 752 397 642 382 566 c 0
 368 490 368 401 368 373 c 17
 395 385 423 391 453 391 c 0
 568 391 652 301 652 196 c 0
 652 88 566 0 454 0 c 0
 339 0 255 90 255 196 c 10
 255 375 l 2
 255 782 458 864 594 864 c 256
EndSplineSet
EndChar

StartChar: uni0E26
Encoding: 3622 3622 161
Width: 1373
VWidth: 2045
Flags: W
HStem: 0 112<219.883 367.764> 279 112<219.558 368.107> 1142 112<523.181 877.585>
VStem: 96 113<123.11 268.141> 378 113<124.234 269.552> 1084 113<764 932.23>
LayerCount: 2
Fore
SplineSet
294 112 m 0
 246 112 209 149 209 195 c 0
 209 245 250 279 294 279 c 0
 343 279 378 240 378 195 c 0
 378 149 343 112 294 112 c 0
294 0 m 0
 405 0 491 88 491 196 c 2
 491 764 l 25
 604 764 l 1
 604 876 l 1
 338 876 l 17
 408 1085 587 1142 703 1142 c 256
 909 1142 1084 976 1084 764 c 2
 1084 -548 l 1
 1197 -548 l 1
 1197 764 l 2
 1197 1034 975 1254 703 1254 c 256
 435 1254 209 1038 209 764 c 1
 378 764 l 25
 378 373 l 1
 351 385 323 391 293 391 c 0
 183 391 96 304 96 196 c 0
 96 88 183 0 294 0 c 0
EndSplineSet
EndChar

StartChar: uni0E27
Encoding: 3623 3623 162
Width: 1122
VWidth: 2045
Flags: W
HStem: 0 112<678.236 826.117> 279 112<678.666 827.319> 1142 112<364.706 687.671>
VStem: 102 113<834 988.02> 555 113<122.642 268.383> 837 113<123.822 268.654 373 987.947>
LayerCount: 2
Fore
SplineSet
752 279 m 0
 703 279 668 240 668 195 c 0
 668 149 703 112 752 112 c 0
 800 112 837 149 837 195 c 0
 837 245 796 279 752 279 c 0
555 196 m 0
 555 303 642 391 753 391 c 0
 784 391 812 385 837 373 c 1
 837 832 l 2
 837 1011 696 1142 526 1142 c 0
 346 1142 215 1001 215 834 c 9
 102 834 l 17
 102 1066 294 1254 526 1254 c 0
 755 1254 950 1068 950 832 c 2
 950 196 l 2
 950 87 863 0 752 0 c 0
 641 0 555 88 555 196 c 0
EndSplineSet
EndChar

StartChar: uni0E28
Encoding: 3624 3624 163
Width: 1301
VWidth: 2045
Flags: W
HStem: 0 21G<171 290.992 1018 1131> 547 115<573.065 722.629> 828 111<574.375 721.125> 1142 112<477.667 826.167>
VStem: 171 113<290 947.846> 733 112<673.883 817.21> 1018 113<0 944.513> 1043 113<1149.57 1332>
DStem2: 284 290 284 0 0.330009 0.943978<0 377.745>
LayerCount: 2
Fore
SplineSet
651 1142 m 0xfc
 456 1142 284 990 284 776 c 2
 284 290 l 1
 463 816 l 1
 478 854 537 939 648 939 c 0
 749 939 836 971 909 1036 c 1
 871 1075 780 1142 651 1142 c 0xfc
651 1254 m 0
 817 1254 929 1173 982 1121 c 1
 1023 1183 1043 1253 1043 1332 c 1
 1156 1332 l 1xfd
 1156 1212 1112 1103 1057 1033 c 9
 1089 976 1131 904 1131 776 c 2
 1131 0 l 1
 1018 0 l 1
 1018 776 l 2xfe
 1018 837 1004 894 976 947 c 1
 893 879 829 863 811 855 c 1
 834 823 845 786 845 743 c 0
 845 635 759 547 648 547 c 0
 559 547 510 601 499 615 c 1
 284 0 l 1
 171 0 l 1
 171 776 l 2
 171 1044 388 1254 651 1254 c 0
648 828 m 0
 600 828 564 789 564 744 c 0
 564 699 600 662 648 662 c 0
 692 662 733 695 733 744 c 0
 733 789 697 828 648 828 c 0
EndSplineSet
EndChar

StartChar: uni0E29
Encoding: 3625 3625 164
Width: 1483
VWidth: 2045
Flags: W
HStem: 0 112<277 390 503 1122> 432 150<705.052 994.24> 749 112<702.132 852.928> 861 112<232.176 380.013> 1142 112<232.606 379.352>
VStem: 108 113<983.742 1131.7> 390 113<112 879 982.66 1129.73> 579 113<592.351 737.932> 863 113<592.497 737.424> 1122 226<684.762 879> 1122 113<112 492 597.203 639.835 879 1254>
LayerCount: 2
Fore
SplineSet
1348 879 m 17xefc0
 1348 731 1280 632 1235 583 c 9
 1235 0 l 9
 277 0 l 1
 277 112 l 1
 390 112 l 17
 390 879 l 1
 364 867 336 861 305 861 c 0xdfa0
 198 861 108 945 108 1058 c 0
 108 1171 199 1254 306 1254 c 0
 415 1254 503 1167 503 1057 c 2
 503 112 l 1
 1122 112 l 17
 1122 492 l 17
 1053 452 977 432 896 432 c 0
 653 432 579 566 579 656 c 0
 579 783 672 861 778 861 c 0
 892 861 976 771 976 665 c 0
 976 620 962 581 933 547 c 1
 1003 553 1066 581 1122 630 c 9
 1122 1254 l 9
 1235 1254 l 17
 1235 879 l 9xefa0
 1348 879 l 17xefc0
306 1142 m 0
 257 1142 221 1103 221 1058 c 0
 221 1012 257 973 306 973 c 0
 357 973 390 1013 390 1058 c 0
 390 1103 355 1142 306 1142 c 0
778 749 m 0xef80
 729 749 692 712 692 666 c 0
 692 620 729 582 778 582 c 0
 826 582 863 620 863 666 c 0
 863 716 823 749 778 749 c 0xef80
EndSplineSet
EndChar

StartChar: uni0E2A
Encoding: 3626 3626 165
Width: 1263
VWidth: 2045
Flags: W
HStem: 0 112<388.309 538.323> 279 112<388.125 538.511> 752 112<479.357 782.319> 1142 112<427.367 782.305>
VStem: 110 113<764 934.233> 265 113<125.058 268.783 373 635.09> 549 113<123.11 267.587> 985 113<0 549.016 686 880.218> 1055 113<1118.75 1311>
LayerCount: 2
Fore
SplineSet
464 112 m 0xfe
 512 112 549 149 549 195 c 0
 549 241 512 279 464 279 c 0
 415 279 378 241 378 195 c 0
 378 145 418 112 464 112 c 0xfe
265 375 m 2
 265 782 468 864 604 864 c 0
 710 864 819 899 913 985 c 1
 848 1075 738 1142 604 1142 c 256
 393 1142 223 971 223 764 c 9
 110 764 l 17
 110 1039 335 1254 604 1254 c 256
 765 1254 903 1176 986 1072 c 9
 1018 1127 1055 1197 1055 1311 c 9
 1168 1311 l 17xfe80
 1168 1167 1116 1056 1052 970 c 1
 1083 907 1098 838 1098 764 c 2
 1098 0 l 1
 985 0 l 1
 985 372 l 2xff
 985 591 807 752 604 752 c 256
 477 752 407 642 392 566 c 0
 378 490 378 401 378 373 c 17
 405 385 433 391 463 391 c 0
 578 391 662 301 662 196 c 0
 662 88 576 0 464 0 c 0
 349 0 265 90 265 196 c 10
 265 375 l 2
967 882 m 1
 941 861 889 823 842 804 c 9
 877 781 927 756 985 686 c 1
 985 764 l 2xff
 985 805 979 844 967 882 c 1
EndSplineSet
EndChar

StartChar: uni0E2B
Encoding: 3627 3627 166
Width: 1338
VWidth: 2045
Flags: W
HStem: 0 21G<343 466.686 1079 1192> 831 142<922.474 1056.25> 861 112<184.935 332.23> 1142 112<185.277 332.012 923.271 1068.18>
VStem: 61 113<984.172 1132.11> 343 113<218 879 983.651 1129.73> 799 113<982.399 1132.1> 1079 113<0 808.922 982.66 1131.78>
DStem2: 456 218 456 0 0.471252 0.881998<0 771.849>
LayerCount: 2
Fore
SplineSet
1192 1058 m 0xbf
 1192 984 1155 928 1107 896 c 1
 1131 875 1192 825 1192 719 c 2
 1192 0 l 1
 1079 0 l 1
 1079 717 l 18
 1079 756 1052 831 967 831 c 24xdf
 919 831 893 817 861 758 c 2
 456 0 l 1
 343 0 l 1
 343 879 l 1
 318 867 290 861 259 861 c 0
 147 861 61 949 61 1058 c 0
 61 1171 152 1254 258 1254 c 0
 368 1254 456 1167 456 1057 c 2
 456 218 l 1
 758 804 l 1
 788 860 811 889 860 915 c 9
 819 956 799 1000 799 1058 c 0
 799 1171 891 1254 996 1254 c 0
 1102 1254 1192 1169 1192 1058 c 0xbf
996 1142 m 0
 945 1142 912 1102 912 1058 c 0
 912 1012 947 973 996 973 c 0
 1046 973 1079 1013 1079 1058 c 0
 1079 1103 1044 1142 996 1142 c 0
258 1142 m 0
 214 1142 174 1107 174 1058 c 0
 174 1013 209 973 258 973 c 0xbf
 307 973 343 1013 343 1058 c 0
 343 1102 307 1142 258 1142 c 0
EndSplineSet
EndChar

StartChar: uni0E2C
Encoding: 3628 3628 167
Width: 1445
VWidth: 2045
Flags: W
HStem: 0 21G<345 464.774 1170.21 1290> 861 112<184.187 332.314> 1142 112<182.288 331.704> 1229 112<1016.71 1166.99> 1509 112<1017.17 1166.36>
VStem: 61 111<984.667 1129.34> 345 113<350 881 984.595 1127.97> 893 113<1352.52 1497.76> 1177 113<350 1248>
DStem2: 458 350 458 0 0.320781 0.947153<0 787.639> 871 1254 817 1060 0.321582 -0.946882<166.33 954.385>
AnchorPoint: "AboveBase" 829 1370 basechar 0
LayerCount: 2
Fore
SplineSet
1092 1509 m 0xdf80
 1043 1509 1006 1469 1006 1424 c 0
 1006 1380 1043 1341 1092 1341 c 0
 1141 1341 1177 1380 1177 1424 c 0
 1177 1469 1141 1509 1092 1509 c 0xdf80
1090 1621 m 0
 1200 1621 1282 1534 1290 1441 c 9
 1381 1494 l 9
 1438 1397 l 17
 1290 1311 l 25
 1290 0 l 9
 1177 0 l 17
 817 1060 l 25
 458 0 l 9
 345 0 l 25
 345 881 l 1
 318 868 290 861 259 861 c 0
 147 861 61 949 61 1058 c 0
 61 1171 152 1254 258 1254 c 0
 368 1254 457 1166 458 1054 c 1
 458 350 l 25
 764 1254 l 9
 871 1254 l 17xef80
 1177 350 l 17
 1177 1248 l 1
 1150 1235 1122 1229 1092 1229 c 0
 978 1229 893 1318 893 1425 c 0
 893 1534 980 1621 1090 1621 c 0
258 1142 m 0
 209 1142 172 1102 172 1058 c 0
 172 1013 209 973 258 973 c 0
 302 973 342 1008 342 1058 c 0
 342 1102 307 1142 258 1142 c 0
EndSplineSet
EndChar

StartChar: uni0E2D
Encoding: 3629 3629 168
Width: 1230
VWidth: 2045
Flags: W
HStem: 0 112<427 970> 468 112<439.704 588.433> 749 112<440.862 586.808> 1142 112<417.649 760.831>
VStem: 95 113<764 933.432> 314 113<112 488 591.648 736.656> 598 112<589.893 738.035> 970 113<112 936.629>
LayerCount: 2
Fore
SplineSet
588 1254 m 256
 868 1254 1081 1030 1083 764 c 1
 1083 0 l 9
 314 0 l 9
 314 662 l 18
 314 776 407 861 514 861 c 0
 623 861 710 774 710 664 c 0
 710 551 620 468 512 468 c 0
 483 468 454 475 427 488 c 1
 427 112 l 25
 970 112 l 17
 970 764 l 2
 970 974 797 1142 588 1142 c 256
 381 1142 206 972 208 764 c 9
 95 764 l 17
 95 1037 318 1254 588 1254 c 256
514 580 m 0
 558 580 598 615 598 664 c 0
 598 709 563 749 514 749 c 0
 470 749 430 714 430 664 c 0
 430 620 465 580 514 580 c 0
EndSplineSet
EndChar

StartChar: uni0E2E
Encoding: 3630 3630 169
Width: 1192
VWidth: 2045
Flags: W
HStem: 0 112<299 880> 402 112<311.343 460.805> 680 112<313.776 460.302> 882 103<286.436 704.072> 1142 109<293.997 677.1>
VStem: 149 122<1012.62 1109.89> 186 113<112 420 524.926 665.142> 470 112<523.374 668.678> 880 113<112 938.618>
LayerCount: 2
Fore
SplineSet
582 597 m 0xfb80
 582 485 492 402 384 402 c 0
 355 402 326 408 299 420 c 1
 299 112 l 1xfb80
 880 112 l 1
 880 764 l 2
 880 895 814 976 814 976 c 1
 706 907 621 882 470 882 c 0
 331 882 149 939 149 1059 c 0xfd80
 149 1174 335 1251 491 1251 c 0
 617 1251 703 1227 750 1184 c 0
 796 1142 824 1122 834 1124 c 0
 854 1128 884 1174 924 1261 c 1
 1021 1205 l 1
 970 1147 930 1094 903 1045 c 1
 891 1036 992 989 993 764 c 1
 993 0 l 9
 186 0 l 1
 186 594 l 2
 186 711 283 792 386 792 c 0
 500 792 582 700 582 597 c 0xfb80
271 1058 m 0xfd80
 271 995 444 985 500 985 c 0
 616 985 675 1006 744 1054 c 1
 688 1102 592 1142 491 1142 c 256
 365 1142 271 1108 271 1058 c 0xfd80
386 514 m 0
 434 514 470 551 470 596 c 0
 470 647 430 680 386 680 c 0
 338 680 302 641 302 596 c 0
 302 551 338 514 386 514 c 0
EndSplineSet
EndChar

StartChar: uni0E2F
Encoding: 3631 3631 170
Width: 1120
VWidth: 2045
Flags: W
HStem: 0 21G<848 961> 764 112<386.815 641.556> 1142 112<218.621 367.406>
VStem: 95 113<984.711 1130.76> 378 113<984.352 1130.16> 848 113<0 942 1080.93 1254>
LayerCount: 2
Fore
SplineSet
491 1058 m 0
 491 952 420 903 383 882 c 1
 408 878 436 876 467 876 c 256
 678 876 848 1043 848 1254 c 9
 961 1254 l 25
 961 0 l 1
 848 0 l 1
 848 942 l 17
 778 858 649 764 467 764 c 256
 171 764 96 938 95 1057 c 1
 96 1168 182 1254 292 1254 c 0
 406 1254 491 1164 491 1058 c 0
293 1142 m 0
 244 1142 208 1102 208 1058 c 0
 208 1013 244 973 293 973 c 0
 342 973 378 1013 378 1058 c 0
 378 1102 342 1142 293 1142 c 0
EndSplineSet
EndChar

StartChar: uni0E30
Encoding: 3632 3632 171
Width: 1120
VWidth: 2045
Flags: W
HStem: 42 148<257.001 546.496> 359 112<253.9 401.875> 683 151<253.535 545.842> 1000 112<254.111 401.761>
VStem: 131 113<200.926 348.388 843.029 989.587> 413 114<201.109 346.547 845.202 989.656> 787 113<326.692 489 966.455 1130>
LayerCount: 2
Fore
SplineSet
454 782 m 1
 617 796 787 931 787 1130 c 9
 900 1130 l 17
 900 884 697 683 448 683 c 0
 205 683 131 817 131 906 c 0
 131 1036 227 1112 328 1112 c 0
 436 1112 527 1026 527 908 c 1
 528 861 504 819 454 782 c 1
328 1000 m 0
 279 1000 244 963 244 917 c 0
 244 871 279 834 328 834 c 0
 376 834 413 871 413 917 c 0
 413 967 373 1000 328 1000 c 0
454 139 m 1
 617 154 787 290 787 489 c 9
 900 489 l 17
 900 246 700 42 448 42 c 0
 204 42 131 176 131 265 c 0
 131 395 226 471 328 471 c 0
 437 471 527 381 527 266 c 1
 528 219 504 177 454 139 c 1
328 359 m 0
 279 359 244 320 244 275 c 0
 244 226 283 190 328 190 c 0
 377 190 413 230 413 275 c 0
 413 325 372 359 328 359 c 0
EndSplineSet
EndChar

StartChar: uni0E31
Encoding: 3633 3633 172
Width: 0
VWidth: 2045
Flags: W
HStem: 1384 150<-645.841 -355.164> 1701 111<-647.904 -499.004>
VStem: -771 113<1543.73 1690.54> -489 114<1545.05 1690.61> -116 113<1669.1 1831>
AnchorPoint: "AboveMark" -322 2040 basemark 0
AnchorPoint: "AboveBase" -44 1370 mark 0
LayerCount: 2
Fore
SplineSet
-448 1482 m 1
 -285 1494 -116 1631 -116 1831 c 9
 -3 1831 l 17
 -3 1589 -200 1384 -454 1384 c 0
 -699 1384 -771 1518 -771 1607 c 0
 -771 1738 -675 1812 -574 1812 c 0
 -459 1812 -375 1719 -375 1607 c 1
 -374 1561 -399 1519 -448 1482 c 1
-575 1701 m 0
 -623 1701 -658 1662 -658 1618 c 0
 -658 1573 -625 1534 -575 1534 c 0
 -527 1534 -489 1572 -489 1618 c 0
 -489 1662 -526 1701 -575 1701 c 0
EndSplineSet
EndChar

StartChar: uni0E32
Encoding: 3634 3634 173
Width: 1082
VWidth: 2045
Flags: W
HStem: 0 21G<837 950> 1142 112<364.706 687.671>
VStem: 102 113<834 988.02> 837 113<0 987.947>
LayerCount: 2
Fore
SplineSet
526 1142 m 0
 346 1142 215 1001 215 834 c 9
 102 834 l 17
 102 1066 294 1254 526 1254 c 0
 755 1254 950 1068 950 832 c 10
 950 0 l 1
 837 0 l 1
 837 832 l 2
 837 1011 696 1142 526 1142 c 0
EndSplineSet
EndChar

StartChar: uni0E34
Encoding: 3636 3636 175
Width: 0
VWidth: 2045
Flags: W
HStem: 1767 112<-842.006 -482.564>
DStem2: -960 1621 -1136 1527 0.995505 -0.0947119<0 640.72>
AnchorPoint: "AboveMark" -226 2040 basemark 0
AnchorPoint: "AboveBase" -163 1370 mark 0
LayerCount: 2
Fore
SplineSet
-322 1562 m 17
 -424 1743 -579 1767 -662 1767 c 256
 -781 1767 -888 1715 -960 1621 c 1
 -322 1562 l 17
-1136 1527 m 1
 -1081 1710 -907 1879 -662 1879 c 256
 -389 1879 -189 1671 -169 1435 c 9
 -1136 1527 l 1
EndSplineSet
EndChar

StartChar: uni0E35
Encoding: 3637 3637 176
Width: 0
VWidth: 2045
Flags: W
HStem: 1764 112<-842.006 -481.951>
VStem: -282 113<1701 1935>
DStem2: -960 1618 -1136 1524 0.995505 -0.0947119<0 640.72>
AnchorPoint: "AboveBase" -159 1370 mark 0
AnchorPoint: "AboveMark" -226 2040 basemark 0
LayerCount: 2
Fore
SplineSet
-662 1876 m 256
 -502 1876 -371 1806 -282 1701 c 9
 -282 1935 l 1
 -169 1935 l 9
 -169 1432 l 9
 -1136 1524 l 1
 -1081 1707 -907 1876 -662 1876 c 256
-322 1559 m 17
 -424 1740 -579 1764 -662 1764 c 256
 -781 1764 -888 1712 -960 1618 c 1
 -322 1559 l 17
EndSplineSet
EndChar

StartChar: uni0E36
Encoding: 3638 3638 177
Width: 0
VWidth: 2045
Flags: W
HStem: 1762 112<-842.006 -568.635> 1966 112<-444.702 -298.061>
VStem: -570 113<1866.75 1955.57> -287 113<1807.29 1954.33>
DStem2: -960 1616 -1136 1522 0.995505 -0.0947119<0 640.72>
AnchorPoint: "AboveBase" -174 1370 mark 0
AnchorPoint: "AboveMark" -372 2040 basemark 0
LayerCount: 2
Fore
SplineSet
-174 1881 m 0
 -174 1774 -251 1722 -287 1703 c 1
 -231 1643 -179 1547 -169 1430 c 9
 -1136 1522 l 1
 -1081 1705 -907 1874 -662 1874 c 256
 -629 1874 -598 1871 -569 1866 c 1
 -570 1870 -570 1875 -570 1881 c 0
 -570 1996 -478 2078 -372 2078 c 0
 -260 2078 -174 1990 -174 1881 c 0
-372 1966 m 0
 -421 1966 -457 1926 -457 1881 c 0
 -457 1837 -421 1797 -372 1797 c 0
 -323 1797 -287 1837 -287 1881 c 0
 -287 1926 -323 1966 -372 1966 c 0
-322 1557 m 17
 -424 1738 -579 1762 -662 1762 c 256
 -781 1762 -888 1710 -960 1616 c 1
 -322 1557 l 17
EndSplineSet
EndChar

StartChar: uni0E37
Encoding: 3639 3639 178
Width: 0
VWidth: 2045
Flags: W
HStem: 1764 112<-842.006 -510.497>
VStem: -508 113<1852 1935> -282 113<1701 1935>
DStem2: -960 1618 -1136 1524 0.995505 -0.0947119<0 640.72>
AnchorPoint: "AboveMark" -339 2040 basemark 0
AnchorPoint: "AboveBase" -175 1370 mark 0
LayerCount: 2
Fore
SplineSet
-1136 1524 m 1
 -1081 1707 -907 1876 -662 1876 c 256
 -608 1876 -557 1868 -508 1852 c 9
 -508 1935 l 1
 -395 1935 l 1
 -395 1799 l 17
 -351 1772 -313 1739 -282 1701 c 9
 -282 1935 l 1
 -169 1935 l 9
 -169 1432 l 9
 -1136 1524 l 1
-322 1559 m 17
 -424 1740 -579 1764 -662 1764 c 256
 -781 1764 -888 1712 -960 1618 c 1
 -322 1559 l 17
EndSplineSet
EndChar

StartChar: uni0E38
Encoding: 3640 3640 179
Width: 0
VWidth: 2045
Flags: W
HStem: -474 112<-434.695 -285.2> -196 112<-435.148 -287.176>
VStem: -558 113<-351.595 -207.116> -276 113<-671 -456 -351.942 -206.961>
AnchorPoint: "BelowMark" -159 -88 mark 0
AnchorPoint: "BelowMark" -159 -723 basemark 0
AnchorPoint: "BelowBase" -159 -88 mark 0
LayerCount: 2
Fore
SplineSet
-558 -279 m 0
 -558 -175 -475 -84 -360 -84 c 0
 -253 -84 -163 -170 -163 -279 c 2
 -163 -671 l 1
 -276 -671 l 1
 -276 -456 l 1
 -301 -468 -329 -474 -360 -474 c 0
 -471 -474 -558 -386 -558 -279 c 0
-361 -362 m 0
 -317 -362 -276 -329 -276 -280 c 0
 -276 -235 -312 -196 -361 -196 c 0
 -405 -196 -445 -229 -445 -280 c 0
 -445 -325 -409 -362 -361 -362 c 0
EndSplineSet
Substitution2: "Thai Sara U Mai Ek Reordering" uni0E48.low
Substitution2: "Thai Sara U Mai Tho Reordering" uni0E49.low
Substitution2: "Thai Sara U Mai Tri Reordering" uni0E4A.low
Substitution2: "Thai Sara U Mai Chattawa Reordering" uni0E4B.low
Substitution2: "Thai Sara U Thanthakhat Reordering" uni0E4C.low
Substitution2: "Thai Sara U Nikhahit Reordering" uni0E4D
EndChar

StartChar: uni0E39
Encoding: 3641 3641 180
Width: 0
VWidth: 2045
Flags: W
HStem: -669 112<-443 -274> -474 112<-716.089 -565.486> -196 112<-716.372 -567.947>
VStem: -839 113<-351.183 -207.116> -556 113<-557 -456 -352.045 -206.961> -274 113<-557 -84>
AnchorPoint: "BelowMark" -112 -85 mark 0
AnchorPoint: "BelowMark" -112 -723 basemark 0
AnchorPoint: "BelowBase" -112 -85 mark 0
LayerCount: 2
Fore
SplineSet
-839 -279 m 0
 -839 -175 -756 -84 -642 -84 c 0
 -534 -84 -443 -170 -443 -279 c 2
 -443 -557 l 1
 -274 -557 l 25
 -274 -84 l 1
 -161 -84 l 1
 -161 -669 l 9
 -556 -669 l 1
 -556 -456 l 1
 -582 -468 -610 -474 -640 -474 c 0
 -755 -474 -839 -384 -839 -279 c 0
-642 -362 m 0
 -593 -362 -556 -325 -556 -280 c 0
 -556 -235 -593 -196 -642 -196 c 0
 -686 -196 -726 -229 -726 -280 c 0
 -726 -325 -690 -362 -642 -362 c 0
EndSplineSet
Substitution2: "Thai Sara UU Mai Ek Reordering" uni0E48.low
Substitution2: "Thai Sara UU Mai Tho Reordering" uni0E49.low
Substitution2: "Thai Sara UU Mai Tri Reordering" uni0E4A.low
Substitution2: "Thai Sara UU Mai Chattawa Reordering" uni0E4B.low
Substitution2: "Thai Sara UU Thanthakhat Reordering" uni0E4C.low
Substitution2: "Thai Sara UU Nikhahit Reordering" uni0E4D
EndChar

StartChar: uni0E3A
Encoding: 3642 3642 181
Width: 0
VWidth: 2045
Flags: W
HStem: -359 277<-422.314 -217.182>
VStem: -460 280<-322.517 -118.976>
AnchorPoint: "BelowMark" -186 -86 mark 0
AnchorPoint: "BelowMark" -185 -413 basemark 0
AnchorPoint: "BelowBase" -185 -86 mark 0
LayerCount: 2
Fore
SplineSet
-320 -359 m 0
 -400 -359 -460 -296 -460 -220 c 0
 -460 -140 -395 -82 -320 -82 c 0
 -238 -82 -180 -147 -180 -220 c 0
 -180 -302 -245 -359 -320 -359 c 0
EndSplineSet
Substitution2: "Thai Phinthu Maitaikhu Reordering" uni0E47
Substitution2: "Thai Phinthu Mai Ek Reordering" uni0E48.low
Substitution2: "Thai Phinthu Mai Tho Reordering" uni0E49.low
Substitution2: "Thai Phinthu Mai Tri Reordering" uni0E4A.low
Substitution2: "Thai Phinthu Mai Chattawa Reordering" uni0E4B.low
Substitution2: "Thai Phinthu Thanthakhat Reordering" uni0E4C.low
Substitution2: "Thai Phinthu Nikhahit Reordering" uni0E4D
EndChar

StartChar: uni0E3F
Encoding: 3647 3647 182
Width: 1364
VWidth: 2045
Flags: W
HStem: 0 136<284 518 654 955.292> 692 127<284 518 654 918.385> 1314 136<284 518 654 923.704>
VStem: 156 128<136 692 819 1314> 518 136<-133 0 136 692 819 1314 1450 1595> 1040 137<922.027 1208.72> 1101 146<270.81 561.102>
LayerCount: 2
Fore
SplineSet
973 772 m 1xfc
 1164 714 1247 570 1247 435 c 0xfa
 1247 234 1147 0 747 0 c 2
 654 0 l 25
 654 -133 l 1
 518 -133 l 1
 518 0 l 25
 156 0 l 1
 156 1450 l 1
 518 1450 l 25
 518 1595 l 9
 654 1595 l 17
 654 1450 l 25
 692 1450 l 2
 1122 1450 1177 1191 1177 1078 c 0
 1177 1000 1144 856 973 772 c 1xfc
721 819 m 2
 847 819 1040 866 1040 1056 c 0xfc
 1040 1211 952 1314 698 1314 c 2
 654 1314 l 17
 654 819 l 25
 721 819 l 2
1101 420 m 0xfa
 1101 609 917 692 744 692 c 2
 654 692 l 17
 654 136 l 25
 768 136 l 2
 1058 136 1101 334 1101 420 c 0xfa
518 136 m 25
 518 692 l 9
 284 692 l 1
 284 136 l 1
 518 136 l 25
518 819 m 25
 518 1314 l 9
 284 1314 l 1
 284 819 l 1
 518 819 l 25
EndSplineSet
EndChar

StartChar: uni0E40
Encoding: 3648 3648 183
Width: 629
VWidth: 2045
Flags: W
HStem: 0 112<288.019 436.111> 279 112<287.066 436.226> 1234 20G<165 278>
VStem: 165 113<124.234 269.588 373 1254> 447 113<123.164 268.104>
LayerCount: 2
Fore
SplineSet
361 112 m 0
 405 112 447 145 447 195 c 0
 447 240 409 279 361 279 c 0
 316 279 278 245 278 195 c 0
 278 151 311 112 361 112 c 0
362 0 m 0
 251 0 165 88 165 196 c 10
 165 1254 l 9
 278 1254 l 17
 278 373 l 17
 305 385 333 391 363 391 c 0
 473 391 560 304 560 196 c 0
 560 88 473 0 362 0 c 0
EndSplineSet
EndChar

StartChar: uni0E41
Encoding: 3649 3649 184
Width: 1173
VWidth: 2045
Flags: W
HStem: 0 112<288.019 436.111 851.954 1000.11> 279 112<287.066 436.226 850.973 1000.23> 1234 20G<165 278 729 842>
VStem: 165 113<124.234 269.588 373 1254> 447 113<123.164 268.104> 729 113<124.234 269.387 373 1254> 1011 113<123.164 268.104>
LayerCount: 2
Fore
SplineSet
925 112 m 0
 969 112 1011 145 1011 195 c 0
 1011 240 973 279 925 279 c 0
 879 279 842 244 842 195 c 0
 842 146 879 112 925 112 c 0
926 0 m 0
 815 0 729 88 729 196 c 10
 729 1254 l 9
 842 1254 l 17
 842 373 l 17
 869 385 897 391 927 391 c 0
 1037 391 1124 304 1124 196 c 0
 1124 88 1037 0 926 0 c 0
361 112 m 0
 405 112 447 145 447 195 c 0
 447 240 409 279 361 279 c 0
 316 279 278 245 278 195 c 0
 278 151 311 112 361 112 c 0
362 0 m 0
 251 0 165 88 165 196 c 10
 165 1254 l 9
 278 1254 l 17
 278 373 l 17
 305 385 333 391 363 391 c 0
 473 391 560 304 560 196 c 0
 560 88 473 0 362 0 c 0
EndSplineSet
EndChar

StartChar: uni0E42
Encoding: 3650 3650 185
Width: 757
VWidth: 2045
Flags: W
HStem: 0 112<457.484 605.558> 279 112<457.285 605.622> 1619 112<-40 306.005> 1927 112<93.2118 414.075>
VStem: 334 113<124.234 268.581 373 1593.47> 552 110<1724.87 1789.31> 616 113<122.642 268.301>
LayerCount: 2
Fore
SplineSet
532 112 m 0xfa
 581 112 616 149 616 195 c 0
 616 244 577 279 532 279 c 0
 483 279 447 240 447 195 c 0
 447 145 487 112 532 112 c 0xfa
532 0 m 0
 420 0 334 88 334 196 c 2
 334 1507 l 10
 334 1566 285 1619 221 1619 c 2
 -172 1619 l 1
 -172 1851 18 2039 252 2039 c 0
 463 2039 611 1895 662 1728 c 9
 552 1704 l 17xfc
 527 1791 432 1927 252 1927 c 0
 77 1927 -13 1799 -40 1731 c 9
 221 1731 l 1
 351 1728 447 1630 447 1507 c 18
 447 373 l 1
 472 385 500 391 531 391 c 0
 643 391 729 303 729 196 c 0
 729 88 642 0 532 0 c 0
EndSplineSet
EndChar

StartChar: uni0E43
Encoding: 3651 3651 186
Width: 867
VWidth: 2045
Flags: W
HStem: 0 112<533.484 681.558> 279 112<533.285 681.622> 1501 112<110.123 254.754> 1781 112<136.853 254.045> 1924 112<137.222 355.186>
VStem: -41 139<1623.09 1770.55> 265 113<1623.94 1770.58> 410 113<124.234 268.581 373 1865.98> 692 113<122.642 268.301>
LayerCount: 2
Fore
SplineSet
410 1755 m 2
 410 1851 334 1924 241 1924 c 0
 200 1924 165 1912 136 1888 c 1
 151 1891 166 1893 181 1893 c 0
 289 1893 378 1807 378 1697 c 0
 378 1589 292 1501 181 1501 c 0
 99 1501 -41 1552 -41 1755 c 0
 -41 1911 84 2036 241 2036 c 0
 394 2036 523 1914 523 1755 c 2
 523 373 l 1
 548 385 576 391 607 391 c 0
 719 391 805 303 805 196 c 0
 805 88 718 0 608 0 c 0
 496 0 410 88 410 196 c 2
 410 1755 l 2
181 1781 m 0
 133 1781 98 1742 98 1698 c 0
 98 1653 133 1613 181 1613 c 0
 225 1613 265 1648 265 1698 c 0
 265 1742 229 1781 181 1781 c 0
608 112 m 0
 657 112 692 149 692 195 c 0
 692 244 653 279 608 279 c 0
 559 279 523 240 523 195 c 0
 523 145 563 112 608 112 c 0
EndSplineSet
EndChar

StartChar: uni0E44
Encoding: 3652 3652 187
Width: 811
VWidth: 2045
Flags: W
HStem: 0 112<479.954 628.111> 279 112<478.973 628.226>
VStem: -46 113<1674 2121.04> 357 113<124.234 269.387 373 1868> 639 113<123.164 268.104>
DStem2: 67 1674 76 1521 0.629448 0.777043<0 333.286>
LayerCount: 2
Fore
SplineSet
554 0 m 0
 443 0 357 88 357 196 c 2
 357 1868 l 17
 76 1521 l 25
 -46 1521 l 25
 -46 1997 l 2
 -46 2051 -65 2097 -104 2136 c 9
 -24 2214 l 17
 37 2154 67 2082 67 1997 c 2
 67 1674 l 9
 357 2032 l 9
 470 2032 l 25
 470 373 l 1
 497 385 525 391 555 391 c 0
 665 391 752 304 752 196 c 0
 752 88 665 0 554 0 c 0
553 112 m 0
 597 112 639 145 639 195 c 0
 639 240 601 279 553 279 c 0
 507 279 470 244 470 195 c 0
 470 146 507 112 553 112 c 0
EndSplineSet
EndChar

StartChar: uni0E45
Encoding: 3653 3653 188
Width: 1082
VWidth: 2045
Flags: W
HStem: 1142 112<238.074 554.798>
VStem: -27 113<834 987.608> 707 113<832 987.123>
LayerCount: 2
Fore
SplineSet
396 1142 m 0
 568 1142 707 1006 707 832 c 10
 707 -548 l 9
 820 -548 l 25
 820 832 l 18
 820 1066 632 1254 396 1254 c 0
 160 1254 -27 1065 -27 834 c 9
 86 834 l 17
 86 1009 227 1142 396 1142 c 0
EndSplineSet
EndChar

StartChar: uni0E46
Encoding: 3654 3654 189
Width: 1173
VWidth: 2045
Flags: W
HStem: 618 113<295.058 443.659> 899 110<295.391 442.646> 1234 20G<359.5 463.771 668.711 728>
VStem: 123 162<741.803 993.273> 454 113<741.142 888.42> 846 113<-548 1068.68>
LayerCount: 2
Fore
SplineSet
370 618 m 0
 214 618 123 738 123 912 c 0
 123 1108 288 1236 431 1254 c 1
 567 1171 l 1
 701 1254 l 1
 755 1246 959 1185 959 908 c 2
 959 -548 l 1
 846 -548 l 1
 846 906 l 2
 846 1025 814 1097 704 1124 c 1
 567 1039 l 1
 418 1130 l 17
 349 1120 249 1067 235 946 c 1
 268 987 313 1009 370 1009 c 0
 488 1009 567 916 567 814 c 0
 567 706 480 618 370 618 c 0
370 899 m 0
 318 899 285 857 285 814 c 0
 285 764 325 731 370 731 c 0
 420 731 454 768 454 814 c 0
 454 859 421 899 370 899 c 0
EndSplineSet
EndChar

StartChar: uni0E47
Encoding: 3655 3655 190
Width: 0
VWidth: 2045
Flags: W
HStem: 1398 86<-475.038 -367.167> 1502 110<-772.641 -651.076> 1596 83<-474.025 -365.885> 1761 101<-865.899 -380.057>
VStem: -1024 112<1515.85 1716.63> -561 84<1510.65 1594.01> -364 83<1487.19 1594.01>
AnchorPoint: "AboveMark" -653 2040 basemark 0
AnchorPoint: "AboveBase" -281 1370 mark 0
LayerCount: 2
Fore
SplineSet
-560 1510 m 1xde
 -561 1518 -561 1528 -561 1540 c 0
 -561 1616 -500 1679 -421 1679 c 0xbe
 -342 1679 -281 1616 -281 1540 c 0
 -281 1478 -325 1398 -436 1398 c 8
 -613 1398 -633 1502 -718 1502 c 0
 -764 1502 -779 1460 -779 1415 c 0
 -779 1409 -779 1404 -778 1398 c 1
 -886 1401 -1024 1443 -1024 1621 c 0
 -1024 1717 -963 1862 -691 1862 c 0
 -669 1862 -625 1860 -582 1860 c 0
 -454 1860 -393 1865 -314 1978 c 1
 -238 1905 l 1
 -340 1772 -431 1759 -568 1759 c 0
 -606 1759 -625 1761 -662 1761 c 0
 -805 1761 -912 1737 -912 1621 c 0
 -912 1559 -891 1518 -845 1504 c 1
 -845 1545 -816 1612 -748 1612 c 0
 -665 1612 -622 1516 -560 1510 c 1xde
-420 1484 m 0
 -387 1484 -364 1509 -364 1540 c 0
 -364 1571 -387 1596 -420 1596 c 0
 -454 1596 -477 1571 -477 1540 c 0
 -477 1509 -454 1484 -420 1484 c 0
EndSplineSet
Substitution2: "Thai Mark High Variant" uni0E47.high
Substitution2: "Thai Phinthu Maitaikhu Reordering" uni0E3A
EndChar

StartChar: uni0E48
Encoding: 3656 3656 191
Width: 0
VWidth: 2045
Flags: W
HStem: 2117 305<-282 -169>
VStem: -282 113<2117 2422>
AnchorPoint: "AboveMark" -226 2512 basemark 0
AnchorPoint: "AboveMark" -226 2040 mark 0
LayerCount: 2
Fore
SplineSet
-282 2422 m 25
 -169 2422 l 1
 -169 2117 l 1
 -282 2117 l 1
 -282 2422 l 25
EndSplineSet
MultipleSubs2: "Thai Tone Nikhahit Attachment" uni0E4D uni0E48
Substitution2: "Thai Tone Low Variant" uni0E48.low
Substitution2: "Thai Sara U Mai Ek Reordering" uni0E38
Substitution2: "Thai Sara UU Mai Ek Reordering" uni0E39
Substitution2: "Thai Phinthu Mai Ek Reordering" uni0E3A
EndChar

StartChar: uni0E49
Encoding: 3657 3657 192
Width: 0
VWidth: 2045
Flags: W
HStem: 2067 89<-306 -147.601> 2212 57<-379.761 -352> 2359 68<-382.092 -295.554>
VStem: -451 67<2271.75 2357.07> -294 68<2270.34 2357.81> -1 91<2301.75 2458>
AnchorPoint: "AboveMark" -226 2512 basemark 0
AnchorPoint: "AboveMark" -226 2040 mark 0
LayerCount: 2
Back
SplineSet
-32 2546 m 273
 -32 2286 -240 2057 -527 2057 c 10
 -640 2057 l 1
 -640 2168 l 1
 -585 2238 l 17
 -634 2238 -709 2276 -709 2366 c 0
 -709 2448 -645 2507 -568 2507 c 0
 -486 2507 -427 2443 -427 2366 c 0
 -427 2332 -434 2305 -448 2285 c 2
 -527 2168 l 1
 -316 2168 -146 2338 -146 2546 c 265
 -32 2546 l 273
-568 2422 m 0
 -601 2422 -625 2396 -625 2366 c 0
 -625 2337 -601 2310 -568 2310 c 0
 -535 2310 -512 2337 -512 2366 c 0
 -512 2396 -534 2422 -568 2422 c 0
EndSplineSet
Fore
SplineSet
90 2458 m 273
 90 2250 -76 2067 -306 2067 c 10
 -396 2067 l 1
 -396 2156 l 1
 -352 2212 l 17
 -391 2212 -451 2242 -451 2314 c 0
 -451 2380 -400 2427 -338 2427 c 0
 -273 2427 -226 2376 -226 2314 c 0
 -226 2287 -231 2265 -242 2249 c 2
 -306 2156 l 1
 -137 2156 -1 2292 -1 2458 c 265
 90 2458 l 273
-338 2359 m 0
 -365 2359 -384 2338 -384 2314 c 0
 -384 2291 -365 2269 -338 2269 c 0
 -312 2269 -294 2291 -294 2314 c 0
 -294 2338 -311 2359 -338 2359 c 0
EndSplineSet
MultipleSubs2: "Thai Tone Nikhahit Attachment" uni0E4D uni0E49
Substitution2: "Thai Tone Low Variant" uni0E49.low
Substitution2: "Thai Sara U Mai Tho Reordering" uni0E38
Substitution2: "Thai Sara UU Mai Tho Reordering" uni0E39
Substitution2: "Thai Phinthu Mai Tho Reordering" uni0E3A
EndChar

StartChar: uni0E4A
Encoding: 3658 3658 193
Width: 0
VWidth: 2045
Flags: W
HStem: 2067 89<-134 -56.6914> 2067 67<-414.532 -329.633> 2224 68<-415.532 -328.382> 2335 90<-434.089 -274.462 -212.801 -56.9394>
VStem: -534 84<2246 2315.31> -327 68<2135.87 2221.96> -44 91<2212.5 2320.57> 171 91<2302.85 2458>
AnchorPoint: "AboveMark" -226 2512 basemark 0
AnchorPoint: "AboveMark" -226 2040 mark 0
LayerCount: 2
Back
SplineSet
-345 2178 m 5,0,-1
-345 2514 m 12,1,-1
 -213 2514 -119 2413 -119 2290 c 20,4,-1
 -119 2276 -120 2262 -122 2248 c 5,7,-1
 -34 2313 36 2422 36 2556 c 269,10,-1
 150 2556 l 277,11,-1
 150 2272 -82 2067 -345 2067 c 13,14,-1
 -345 2178 l 21,15,-1
 -278 2191 -232 2223 -232 2290 c 28,18,-1
 -232 2350 -282 2402 -345 2402 c 28,21,-1
 -385 2402 -417 2384 -446 2343 c 5,24,-1
 -519 2343 l 5,25,-1
 -530 2361 -560 2402 -622 2402 c 28,28,-1
 -694 2402 -740 2335 -740 2290 c 5,31,-1
 -723 2329 -687 2348 -633 2348 c 4,34,-1
 -561 2348 -500 2289 -501 2206 c 4,37,-1
 -501 2126 -565 2067 -642 2067 c 4,40,-1
 -732 2067 -845 2117 -845 2290 c 28,43,-1
 -845 2413 -751 2514 -619 2514 c 20,46,-1
 -566 2514 -521 2499 -482 2468 c 5,49,-1
 -443 2499 -398 2514 -345 2514 c 12,1,-1
-642 2263 m 4,52,-1
 -672 2263 -699 2240 -699 2207 c 4,55,-1
 -699 2176 -675 2151 -642 2151 c 4,58,-1
 -614 2151 -586 2173 -586 2207 c 4,61,-1
 -586 2240 -612 2263 -642 2263 c 4,52,-1
EndSplineSet
Fore
SplineSet
-134 2156 m 1,0,-1
-134 2425 m 8,1,-1
 -28 2425 47 2344 47 2246 c 16,4,-1
 47 2234 46 2223 44 2212 c 1,7,-1
 115 2264 171 2351 171 2458 c 265,10,-1
 262 2458 l 273,11,-1
 262 2231 76 2067 -134 2067 c 9,14,-1
 -134 2156 l 17,15,-1
 -80 2166 -44 2192 -44 2246 c 24,18,-1
 -44 2294 -84 2335 -134 2335 c 24,21,-1
 -166 2335 -192 2321 -215 2288 c 1,24,-1
 -273 2288 l 1,25,-1
 -282 2302 -306 2335 -356 2335 c 24,28,-1
 -413 2335 -450 2282 -450 2246 c 1,31,-1
 -436 2277 -408 2292 -364 2292 c 0,34,-1
 -307 2292 -259 2245 -259 2178 c 0,37,-1
 -259 2114 -310 2067 -372 2067 c 0,40,-1
 -444 2067 -534 2107 -534 2246 c 24,43,-1
 -534 2344 -459 2425 -353 2425 c 16,46,-1
 -311 2425 -275 2413 -244 2388 c 1,49,-1
 -212 2413 -176 2425 -134 2425 c 8,1,-1
-372 2224 m 0,52,-1
 -396 2224 -417 2206 -417 2179 c 0,55,-1
 -417 2154 -398 2134 -372 2134 c 0,58,-1
 -349 2134 -327 2152 -327 2179 c 0,61,-1
 -327 2206 -348 2224 -372 2224 c 0,52,-1
EndSplineSet
MultipleSubs2: "Thai Tone Nikhahit Attachment" uni0E4D uni0E4A
Substitution2: "Thai Tone Low Variant" uni0E4A.low
Substitution2: "Thai Sara U Mai Tri Reordering" uni0E38
Substitution2: "Thai Sara UU Mai Tri Reordering" uni0E39
Substitution2: "Thai Phinthu Mai Tri Reordering" uni0E3A
EndChar

StartChar: uni0E4B
Encoding: 3659 3659 194
Width: 0
VWidth: 2045
Flags: W
HStem: 2220 111<-393 -284 -172 -64>
VStem: -284 112<2097 2220 2331 2455>
AnchorPoint: "AboveMark" -226 2512 basemark 0
AnchorPoint: "AboveMark" -226 2040 mark 0
LayerCount: 2
Back
SplineSet
-186 2246 m 1
 -335 2246 l 1
 -335 2097 l 1
 -448 2097 l 1
 -448 2246 l 1
 -598 2246 l 1
 -598 2358 l 1
 -448 2358 l 1
 -448 2508 l 1
 -335 2508 l 1
 -335 2358 l 1
 -186 2358 l 1
 -186 2246 l 1
EndSplineSet
Fore
SplineSet
-64 2220 m 1
 -172 2220 l 1
 -172 2097 l 1
 -284 2097 l 1
 -284 2220 l 1
 -393 2220 l 1
 -393 2331 l 1
 -284 2331 l 1
 -284 2455 l 1
 -172 2455 l 1
 -172 2331 l 1
 -64 2331 l 1
 -64 2220 l 1
EndSplineSet
MultipleSubs2: "Thai Tone Nikhahit Attachment" uni0E4D uni0E4B
Substitution2: "Thai Tone Low Variant" uni0E4B.low
Substitution2: "Thai Sara U Mai Chattawa Reordering" uni0E38
Substitution2: "Thai Sara UU Mai Chattawa Reordering" uni0E39
Substitution2: "Thai Phinthu Mai Chattawa Reordering" uni0E3A
EndChar

StartChar: uni0E4C
Encoding: 3660 3660 195
Width: 0
VWidth: 2045
Flags: W
HStem: 2079 89<-405.13 -277.654> 2302 88<-404.234 -277.534 -199 46.601>
VStem: -500 90<2173.42 2296.66> -273 90<2173.42 2297.54>
AnchorPoint: "AboveMark" -226 2512 basemark 0
AnchorPoint: "AboveMark" -226 2040 mark 0
LayerCount: 2
Back
SplineSet
-729 2274 m 0
 -729 2381 -643 2468 -531 2468 c 10
 -180 2468 l 2
 -125 2468 -79 2487 -40 2526 c 9
 40 2447 l 17
 -21 2387 -95 2357 -180 2357 c 2
 -352 2357 l 17
 -339 2332 -332 2304 -332 2274 c 0
 -332 2168 -418 2079 -530 2079 c 0
 -644 2079 -729 2168 -729 2274 c 0
-530 2357 m 0
 -580 2357 -616 2319 -616 2274 c 0
 -616 2228 -580 2190 -530 2190 c 0
 -481 2190 -445 2228 -445 2274 c 0
 -445 2319 -481 2357 -530 2357 c 0
EndSplineSet
Fore
SplineSet
-500 2235 m 0
 -500 2321 -431 2390 -342 2390 c 10
 -61 2390 l 2
 -17 2390 20 2406 51 2437 c 9
 115 2374 l 17
 66 2326 7 2302 -61 2302 c 2
 -199 2302 l 17
 -188 2282 -183 2259 -183 2235 c 0
 -183 2150 -251 2079 -341 2079 c 0
 -432 2079 -500 2150 -500 2235 c 0
-341 2302 m 0
 -381 2302 -410 2271 -410 2235 c 0
 -410 2198 -381 2168 -341 2168 c 0
 -302 2168 -273 2198 -273 2235 c 0
 -273 2271 -302 2302 -341 2302 c 0
EndSplineSet
MultipleSubs2: "Thai Tone Nikhahit Attachment" uni0E4D uni0E4C
Substitution2: "Thai Tone Low Variant" uni0E4C.low
Substitution2: "Thai Sara U Thanthakhat Reordering" uni0E38
Substitution2: "Thai Sara UU Thanthakhat Reordering" uni0E39
Substitution2: "Thai Phinthu Thanthakhat Reordering" uni0E3A
EndChar

StartChar: uni0E4D
Encoding: 3661 3661 196
Width: 0
VWidth: 2045
Flags: W
HStem: 1401 112<-468.729 -319.725> 1681 112<-467.097 -318.791>
VStem: -592 113<1524.58 1670.18> -308 113<1523.59 1669.06>
AnchorPoint: "AboveMark" -394 2040 basemark 0
AnchorPoint: "AboveBase" -195 1370 mark 0
LayerCount: 2
Back
SplineSet
-394 1359 m 4
 -508 1359 -592 1449 -592 1555 c 4
 -592 1666 -502 1751 -394 1751 c 4
 -279 1751 -195 1661 -195 1555 c 4
 -195 1444 -285 1359 -394 1359 c 4
-393 1639 m 4
 -443 1639 -479 1599 -479 1554 c 4
 -479 1504 -437 1471 -393 1471 c 4
 -345 1471 -308 1509 -308 1554 c 4
 -308 1603 -348 1639 -393 1639 c 4
EndSplineSet
Fore
SplineSet
-394 1401 m 0
 -508 1401 -592 1491 -592 1597 c 0
 -592 1708 -502 1793 -394 1793 c 0
 -279 1793 -195 1703 -195 1597 c 0
 -195 1486 -285 1401 -394 1401 c 0
-393 1681 m 0
 -443 1681 -479 1641 -479 1596 c 0
 -479 1546 -437 1513 -393 1513 c 0
 -345 1513 -308 1551 -308 1596 c 0
 -308 1645 -348 1681 -393 1681 c 0
EndSplineSet
Substitution2: "Thai Mark High Variant" uni0E4D.high
Substitution2: "Thai Sara U Nikhahit Reordering" uni0E38
Substitution2: "Thai Sara UU Nikhahit Reordering" uni0E39
Substitution2: "Thai Phinthu Nikhahit Reordering" uni0E3A
EndChar

StartChar: uni0E4E
Encoding: 3662 3662 197
Width: 0
VWidth: 2045
Flags: W
HStem: 1420 112<-565.047 -477> 1756 112<-565.583 -461.341> 1993 112<-325.523 -150.218>
VStem: -703 113<1555.44 1731.26> -463 113<1866 1970.05> -125 113<1881 1966.62>
AnchorPoint: "AboveMark" -358 2162 basemark 0
AnchorPoint: "AboveBase" -140 1370 mark 0
LayerCount: 2
Back
SplineSet
-238 1849 m 4
 -300 1849 -350 1799 -350 1736 c 4
 -350 1705 -339 1679 -317 1658 c 5
 -317 1578 l 5
 -396 1578 l 5
 -419 1601 -446 1612 -476 1612 c 4
 -539 1612 -590 1561 -590 1499 c 4
 -590 1437 -539 1388 -477 1388 c 5
 -477 1276 l 5
 -602 1276 -703 1374 -703 1499 c 4
 -703 1624 -603 1723 -477 1724 c 4
 -472 1724 -468 1723 -463 1722 c 5
 -463 1737 l 6
 -463 1860 -365 1961 -237 1961 c 4
 -107 1961 -12 1857 -12 1737 c 5
 -125 1737 l 5
 -125 1796 -173 1849 -238 1849 c 4
EndSplineSet
Fore
SplineSet
-238 1993 m 0
 -300 1993 -350 1943 -350 1880 c 0
 -350 1849 -339 1823 -317 1802 c 1
 -317 1722 l 1
 -396 1722 l 1
 -419 1745 -446 1756 -476 1756 c 0
 -539 1756 -590 1705 -590 1643 c 0
 -590 1581 -539 1532 -477 1532 c 1
 -477 1420 l 1
 -602 1420 -703 1518 -703 1643 c 0
 -703 1768 -603 1867 -477 1868 c 0
 -472 1868 -468 1867 -463 1866 c 1
 -463 1999 -374 2105 -237 2105 c 0
 -107 2105 -12 2001 -12 1881 c 1
 -125 1881 l 1
 -125 1940 -173 1993 -238 1993 c 0
EndSplineSet
Substitution2: "Thai Mark High Variant" uni0E4E.high
EndChar

StartChar: uni0E4F
Encoding: 3663 3663 198
Width: 977
VWidth: 2045
Flags: W
HStem: 0 112<320.109 656.32> 225 112<397.432 578.083> 560 112<397.706 578.147> 782 112<319.68 656.097>
VStem: 37 110<281.825 611.747> 262 113<361.341 535.678> 601 113<361.074 535.41> 829 110<282.253 612.381>
LayerCount: 2
Fore
SplineSet
488 560 m 0
 426 560 375 511 375 448 c 0
 375 385 427 337 488 337 c 0
 550 337 601 386 601 448 c 0
 601 512 549 560 488 560 c 0
488 225 m 0
 356 225 262 328 262 448 c 0
 262 571 358 672 488 672 c 0
 618 672 714 569 714 448 c 0
 714 326 617 225 488 225 c 0
488 782 m 0
 298 782 147 633 147 447 c 0
 147 260 299 112 488 112 c 0
 678 112 829 261 829 447 c 0
 829 634 677 782 488 782 c 0
488 0 m 0
 238 0 37 203 37 447 c 0
 37 690 237 894 488 894 c 0
 739 894 939 692 939 447 c 0
 939 204 739 0 488 0 c 0
EndSplineSet
EndChar

StartChar: uni0E50
Encoding: 3664 3664 199
Width: 1267
VWidth: 2045
Flags: W
HStem: 0 112<441.607 822.774> 782 112<442.226 823.186>
VStem: 122 116<296.559 597.841> 1028 114<295.998 597.802>
LayerCount: 2
Fore
SplineSet
633 782 m 0
 407 782 238 628 238 447 c 0
 238 266 407 112 633 112 c 0
 859 112 1028 268 1028 447 c 0
 1028 626 859 782 633 782 c 0
632 0 m 0
 343 0 122 209 122 447 c 0
 122 687 346 894 632 894 c 0
 920 894 1142 689 1142 447 c 0
 1142 204 918 0 632 0 c 0
EndSplineSet
EndChar

StartChar: uni0E51
Encoding: 3665 3665 200
Width: 1318
VWidth: 2045
Flags: W
HStem: 0 102<377.368 579.846> 384 112<571.161 718.14> 782 112<463.409 842.629>
VStem: 124 114<243.521 569.374> 447 113<229.183 373.795> 729 113<230.873 373.619> 1081 110<164.998 548.9>
LayerCount: 2
Fore
SplineSet
644 496 m 0
 744 496 842 425 842 277 c 0
 842 146 695 0 520 0 c 0
 267 0 124 183 124 414 c 0
 124 621 320 894 654 894 c 0
 899 894 1191 723 1191 364 c 0
 1191 63 969 -83 827 -137 c 1
 793 -50 l 1
 954 10 1081 158 1081 356 c 0
 1081 595 901 782 654 782 c 0
 411 782 238 594 238 418 c 0
 238 176 420 102 519 102 c 0
 550 102 572 109 584 121 c 1
 552 124 447 170 447 301 c 0
 447 410 537 496 644 496 c 0
644 384 m 0
 596 384 560 345 560 300 c 0
 560 255 596 218 644 218 c 0
 688 218 729 251 729 300 c 0
 729 345 693 384 644 384 c 0
EndSplineSet
EndChar

StartChar: uni0E52
Encoding: 3666 3666 201
Width: 1519
VWidth: 2045
Flags: W
HStem: 0 112<299 1190.25> 237 112<560.054 708.519> 517 109<558.88 707.933> 779 115<587.674 853.561 1020.38 1236.82> 1205 112<72 159.891>
VStem: 184 115<112 1181.58> 406 90<553 684.999> 720 112<360.236 504.656> 884 113<547 746.588> 1308 113<250.828 698.375>
LayerCount: 2
Fore
SplineSet
1128 782 m 16
 1023 782 997 719 997 637 c 2
 997 547 l 1
 884 547 l 1
 884 637 l 2
 884 722 844 779 720 779 c 0
 574 779 495 653 496 553 c 1
 531 601 577 626 634 626 c 0
 753 626 832 537 832 433 c 0
 832 324 747 237 634 237 c 0
 587 237 406 263 406 533 c 0
 406 780 589 894 732 894 c 0
 816 894 886 861 942 794 c 1
 1001 861 1063 894 1128 894 c 24
 1245 894 1421 814 1421 453 c 0
 1421 198 1268 0 1082 0 c 10
 184 0 l 1
 184 1094 l 10
 184 1162 132 1205 72 1205 c 9
 72 1317 l 17
 197 1317 297 1219 297 1094 c 18
 299 112 l 1
 1084 112 l 18
 1171 112 1308 197 1308 483 c 0
 1308 740 1200 782 1128 782 c 16
634 517 m 0
 585 517 549 478 549 434 c 0
 549 389 585 349 634 349 c 0
 683 349 720 389 720 434 c 0
 720 478 683 517 634 517 c 0
EndSplineSet
EndChar

StartChar: uni0E53
Encoding: 3667 3667 202
Width: 1519
VWidth: 2045
Flags: W
HStem: 0 112<344.298 492.54> 279 112<344.08 492.334> 782 112<359.655 671.778 929.183 1179.94>
VStem: 113 113<298.499 639.507> 503 113<122.642 268.383> 744 113<586 709.441> 1253 113<586 705.422>
LayerCount: 2
Fore
SplineSet
418 391 m 0
 317 391 266 325 250 296 c 1
 234 324 226 370 226 435 c 0
 226 612 290 782 547 782 c 16
 653 782 744 700 744 586 c 2
 744 0 l 1
 857 0 l 1
 857 586 l 2
 857 701 949 782 1055 782 c 0
 1168 782 1253 694 1253 586 c 2
 1253 0 l 1
 1366 0 l 1
 1366 586 l 2
 1366 755 1230 894 1055 894 c 0
 892 894 821 788 802 763 c 1
 779 789 707 894 547 894 c 8
 266 894 113 712 113 440 c 0
 113 106 296 0 418 0 c 0
 530 0 616 88 616 196 c 0
 616 303 529 391 418 391 c 0
419 112 m 0
 371 112 334 149 334 195 c 0
 334 245 375 279 419 279 c 0
 468 279 503 240 503 195 c 0
 503 149 468 112 419 112 c 0
EndSplineSet
EndChar

StartChar: uni0E54
Encoding: 3668 3668 203
Width: 1519
VWidth: 2045
Flags: W
HStem: 0 112<395.663 765 884.143 1332> 275 112<768.332 893.029> 553 112<746.264 893.648> 782 112<392.063 1290>
VStem: 110 113<283.381 609.638> 592 143<328.583 542.587> 904 113<397.527 541.707> 1366 113<971 1091>
LayerCount: 2
Fore
SplineSet
1168 894 m 2
 1281 894 1366 984 1366 1091 c 9
 1479 1091 l 17
 1479 921 1342 782 1168 782 c 2
 564 782 l 2
 367 782 223 630 223 447 c 0
 223 252 380 112 561 112 c 2
 765 112 l 17
 647 193 592 333 592 443 c 0
 592 560 682 665 820 665 c 0
 931 665 1017 576 1017 470 c 0
 1017 361 928 275 820 275 c 0
 799 275 781 276 768 279 c 1
 779 245 810 209 863 170 c 0
 916 131 996 112 1104 112 c 10
 1332 112 l 1
 1332 0 l 1
 561 0 l 2
 312 0 110 202 110 447 c 0
 110 683 300 894 564 894 c 2
 1168 894 l 2
819 553 m 0
 771 553 735 514 735 470 c 0
 735 424 771 387 819 387 c 0
 863 387 904 420 904 470 c 0
 904 514 868 553 819 553 c 0
EndSplineSet
EndChar

StartChar: uni0E55
Encoding: 3669 3669 204
Width: 1519
VWidth: 2045
Flags: W
HStem: 0 112<395.663 765 884.143 1332> 275 112<768.332 893.029> 553 112<746.264 893.648> 782 135<596.815 745.185> 782 112<837 1290> 1084 112<595.665 746.092>
VStem: 110 113<283.381 612.356> 473 113<927.373 1072.65> 592 143<328.583 542.587> 756 113<927.655 1072.44> 904 113<397.527 541.707> 1366 113<971 1091>
LayerCount: 2
Fore
SplineSet
670 1196 m 0xeff0
 785 1196 869 1106 869 1000 c 0
 869 961 858 925 837 894 c 9
 1168 894 l 2
 1281 894 1366 984 1366 1091 c 9
 1479 1091 l 17
 1479 921 1342 782 1168 782 c 2
 564 782 l 2
 367 782 223 630 223 447 c 0
 223 252 380 112 561 112 c 2
 765 112 l 17
 647 193 592 333 592 443 c 0
 592 560 682 665 820 665 c 0
 931 665 1017 576 1017 470 c 0
 1017 361 928 275 820 275 c 0
 799 275 781 276 768 279 c 1
 779 245 810 209 863 170 c 0
 916 131 996 112 1104 112 c 10
 1332 112 l 1
 1332 0 l 1
 561 0 l 2
 312 0 110 202 110 447 c 0
 110 681 293 868 506 891 c 1
 484 923 473 959 473 1000 c 0
 473 1107 558 1196 670 1196 c 0xeff0
671 1084 m 0
 627 1084 586 1051 586 1002 c 0
 586 957 622 917 671 917 c 0xf7f0
 720 917 756 957 756 1002 c 0
 756 1051 715 1084 671 1084 c 0
819 553 m 0
 771 553 735 514 735 470 c 0
 735 424 771 387 819 387 c 0
 863 387 904 420 904 470 c 0
 904 514 868 553 819 553 c 0
EndSplineSet
EndChar

StartChar: uni0E56
Encoding: 3670 3670 205
Width: 1412
VWidth: 2045
Flags: W
HStem: 0 112<474.975 873.043> 396 112<326.927 477.596> 782 112<396.336 937.32>
VStem: 175 113<807 1291.51> 196 121<240.685 384.184> 488 113<238.678 384.362> 1137 116<340.737 612.465>
LayerCount: 2
Fore
SplineSet
1137 474 m 0xee
 1137 655 941 782 742 782 c 0
 387 782 247 678 175 622 c 9
 175 1168 l 2
 175 1221 156 1268 117 1307 c 9
 197 1385 l 17
 258 1324 288 1251 288 1168 c 2
 288 807 l 1xf6
 369 850 475 894 730 894 c 0
 972 894 1253 743 1253 474 c 0
 1253 285 1040 0 607 0 c 0
 267 0 196 187 196 291 c 0
 196 440 311 508 402 508 c 0
 517 508 601 418 601 312 c 0
 601 201 518 146 470 127 c 1
 489 115 631 112 647 112 c 0
 996 112 1137 364 1137 474 c 0xee
402 396 m 0
 353 396 317 358 317 312 c 0xee
 317 267 353 228 402 228 c 0
 452 228 488 267 488 312 c 0
 488 358 452 396 402 396 c 0
EndSplineSet
EndChar

StartChar: uni0E57
Encoding: 3671 3671 206
Width: 1385
VWidth: 2045
Flags: W
HStem: 0 112<299.471 446.45 1009 1107.75> 279 112<298.195 446.656> 782 112<255.944 462.146 651.617 856.34>
VStem: 82 112<299.407 715.576> 457 113<122.642 268.476> 500 113<476 744.791> 896 113<112 743.702> 1150 113<153.141 1158.52>
LayerCount: 2
Fore
SplineSet
1009 112 m 17xfb
 1088 112 1150 177 1150 251 c 2
 1150 1033 l 2
 1150 1123 1180 1196 1241 1251 c 9
 1320 1172 l 17
 1281 1135 1263 1089 1263 1033 c 2
 1263 251 l 18
 1263 112 1149 0 1009 0 c 2
 896 0 l 1
 896 643 l 2
 896 720 836 782 754 782 c 0
 673 782 613 719 613 643 c 2
 613 476 l 1
 500 476 l 1
 500 643 l 2xf7
 500 723 436 782 360 782 c 0
 210 782 194 616 194 475 c 0
 194 398 200 323 204 296 c 1
 220 325 271 391 372 391 c 0
 484 391 570 303 570 196 c 0
 570 88 483 0 372 0 c 0
 169 0 82 223 82 445 c 0
 82 673 130 894 360 894 c 0
 439 894 501 865 558 801 c 1
 575 822 637 894 754 894 c 0
 898 894 1009 780 1009 643 c 2
 1009 112 l 17xfb
374 279 m 0
 325 279 288 241 288 195 c 0
 288 145 328 112 374 112 c 0
 423 112 457 149 457 195 c 0xfb
 457 241 423 279 374 279 c 0
EndSplineSet
EndChar

StartChar: uni0E58
Encoding: 3672 3672 207
Width: 1519
VWidth: 2045
Flags: W
HStem: 0 142<962.568 1192.16> 0 104<894.018 992> 308 116<451.491 600.926 1043.31 1194.3> 782 112<340.35 494 1168 1288.73>
VStem: 86 121<267.31 644.495> 330 85<159 274.01> 924 110<152.405 298.261> 1204 113<152.486 296.987> 1366 113<970.156 1091>
LayerCount: 2
Fore
SplineSet
494 894 m 2x7f80
 254 894 86 691 86 482 c 0
 86 333 153 82 415 0 c 1x7f80
 426 222 440 308 515 308 c 0
 550 308 621 257 728 154 c 0
 836 51 946 0 1057 0 c 0xbf80
 1221 0 1317 110 1317 218 c 0
 1317 339 1225 420 1119 420 c 0
 1011 420 924 336 924 236 c 0
 924 174 945 131 992 104 c 1
 863 100 686 424 510 424 c 16
 353 424 330 253 330 180 c 0
 330 173 331 166 331 159 c 1
 225 263 207 366 207 484 c 0
 207 678 351 782 494 782 c 2
 1168 782 l 2
 1339 782 1479 919 1479 1091 c 9
 1366 1091 l 17
 1366 976 1274 894 1168 894 c 2
 494 894 l 2x7f80
1204 225 m 0
 1204 175 1164 142 1119 142 c 0xbf80
 1071 142 1034 179 1034 225 c 0
 1034 275 1074 308 1119 308 c 0
 1167 308 1204 271 1204 225 c 0
EndSplineSet
EndChar

StartChar: uni0E59
Encoding: 3673 3673 208
Width: 1519
VWidth: 2045
Flags: W
HStem: 0 151<400.95 652.266> 319 111<503.298 649.46> 782 112<407.334 802.744 1017.18 1276.84>
VStem: 116 113<234.316 611.629> 378 113<161.672 308.519> 662 113<161.89 308.436> 997 113<0 590.279> 1320 113<698 737.532 846 1291.51>
LayerCount: 2
Fore
SplineSet
605 782 m 0
 327 782 229 594 229 447 c 24
 229 168 379 113 427 106 c 1
 394 138 378 181 378 235 c 0
 378 348 470 430 576 430 c 0
 683 430 775 347 775 236 c 0
 775 214 773 129 692 61 c 0
 643 20 564 0 454 0 c 0
 318 0 116 115 116 447 c 24
 116 629 241 894 605 894 c 0
 712 894 799 885 915 794 c 1
 986 861 1060 894 1137 894 c 0
 1220 894 1281 878 1320 846 c 9
 1320 1168 l 2
 1320 1251 1351 1324 1412 1385 c 9
 1491 1307 l 17
 1452 1272 1433 1225 1433 1168 c 2
 1433 698 l 25
 1320 646 l 17
 1307 739 1242 782 1137 782 c 0
 1086 782 1041 762 1000 723 c 1
 1038 688 1110 557 1110 402 c 2
 1110 0 l 1
 997 0 l 1
 997 402 l 2
 997 628 844 782 605 782 c 0
576 319 m 0
 527 319 491 279 491 234 c 0
 491 184 531 151 576 151 c 0
 620 151 662 184 662 234 c 0
 662 278 626 319 576 319 c 0
EndSplineSet
EndChar

StartChar: uni0E5A
Encoding: 3674 3674 209
Width: 1276
VWidth: 2045
Flags: W
HStem: 0 21G<825 938 1031 1144> 764 112<363.584 619.034> 1142 112<197.071 342.94>
VStem: 73 113<984.587 1131.68> 354 113<983.597 1131.89> 825 113<0 942 1080.93 1254> 1031 113<0 1249>
LayerCount: 2
Fore
SplineSet
1031 1249 m 25
 1144 1254 l 25
 1144 0 l 1
 1031 0 l 1
 1031 1249 l 25
467 1058 m 0
 467 981 428 920 360 882 c 1
 385 878 413 876 444 876 c 256
 655 876 825 1043 825 1254 c 9
 938 1254 l 25
 938 0 l 1
 825 0 l 1
 825 942 l 17
 745 850 619 764 444 764 c 256
 146 764 73 940 73 1057 c 0
 73 1170 163 1254 270 1254 c 0
 377 1254 467 1170 467 1058 c 0
270 1142 m 0
 226 1142 186 1107 186 1058 c 0
 186 1013 221 973 270 973 c 0
 314 973 354 1008 354 1058 c 0
 354 1102 319 1142 270 1142 c 0
EndSplineSet
EndChar

StartChar: uni0E5B
Encoding: 3675 3675 210
Width: 2472
VWidth: 2045
Flags: W
HStem: 0 109<420.594 797.305> 345 113<583.744 730.073> 432 112<2224.52 2395> 625 112<583.542 729.803> 944 114<399.861 716.602>
VStem: 81 113<343.424 722.996> 460 113<469.689 614.582> 859 101<604.668 806.31>
DStem2: 1026 394 1114 361 0.354408 0.935091<-182.444 261.226> 1262 737 1209 604 0.323993 -0.946059<108.654 385.811> 1387 372 1441 239 0.323993 0.946059<0 276.833> 1619 737 1564 604 0.323993 -0.946059<108.006 385.811> 1744 372 1796 239 0.323993 0.946059<0 276.833> 1974 737 1921 604 0.323993 -0.946059<108.654 385.811>
LayerCount: 2
Fore
SplineSet
194 532 m 0xdf
 194 345 330 109 612 109 c 0
 797 109 965 233 1026 394 c 10
 1156 737 l 9
 1262 737 l 17
 1387 372 l 25
 1512 737 l 9
 1619 737 l 17
 1744 372 l 25
 1868 737 l 9
 1974 737 l 17
 2099 372 l 17
 2152 487 2210 544 2274 544 c 2
 2395 544 l 1
 2395 432 l 1
 2282 432 l 26xbf
 2243 432 2200 368 2153 239 c 9
 2046 239 l 17
 1921 604 l 25
 1796 239 l 9
 1689 239 l 17
 1564 604 l 25
 1441 239 l 9
 1334 239 l 17
 1209 604 l 25
 1114 361 l 2
 1068 241 909 0 602 0 c 0
 284 0 81 257 81 532 c 0
 81 820 312 1058 557 1058 c 0
 741 1058 960 940 960 665 c 0
 960 486 808 345 680 345 c 0
 536 345 460 438 460 542 c 0
 460 649 547 737 657 737 c 0
 792 737 836 630 839 601 c 1
 851 613 859 638 859 671 c 0
 859 789 756 944 546 944 c 0
 399 944 194 786 194 532 c 0xdf
741 542 m 0
 741 588 705 625 657 625 c 0
 609 625 573 588 573 542 c 0
 573 498 608 458 657 458 c 0xdf
 701 458 741 493 741 542 c 0
EndSplineSet
EndChar

StartChar: zerowidthjoiner
Encoding: 8205 8205 211
Width: 0
VWidth: 2045
Flags: W
LayerCount: 2
Back
SplineSet
37 -275 m 1
 -37 -275 l 1
 -37 1113 l 1
 -171 977 l 1
 -220 1027 l 1
 -49 1196 l 1
 -220 1362 l 1
 -171 1412 l 1
 0 1242 l 1
 171 1412 l 1
 220 1362 l 1
 49 1196 l 1
 220 1027 l 1
 171 977 l 1
 37 1113 l 1
 37 -275 l 1
EndSplineSet
EndChar

StartChar: afii299
Encoding: 8206 8206 212
Width: 0
VWidth: 2045
Flags: W
LayerCount: 2
Back
SplineSet
430 1198 m 1
 213 983 l 1
 165 1033 l 1
 300 1163 l 1
 35 1163 l 1
 35 -275 l 1
 -37 -275 l 1
 -37 1232 l 1
 300 1232 l 1
 165 1362 l 1
 213 1412 l 1
 430 1198 l 1
EndSplineSet
EndChar

StartChar: afii300
Encoding: 8207 8207 213
Width: 0
VWidth: 2045
Flags: W
LayerCount: 2
Back
SplineSet
35 -275 m 1
 -37 -275 l 1
 -37 1163 l 1
 -302 1163 l 1
 -165 1033 l 1
 -213 983 l 1
 -430 1198 l 1
 -213 1412 l 1
 -165 1362 l 1
 -302 1232 l 1
 35 1232 l 1
 35 -275 l 1
EndSplineSet
EndChar

StartChar: uni2010
Encoding: 8208 8208 214
Width: 971
VWidth: 2045
Flags: W
HStem: 594 136<189 814>
VStem: 189 625<594 730>
LayerCount: 2
Fore
SplineSet
189 730 m 1
 814 730 l 1
 814 594 l 1
 189 594 l 1
 189 730 l 1
EndSplineSet
EndChar

StartChar: endash
Encoding: 8211 8211 215
Width: 1123
VWidth: 2045
Flags: W
HStem: 594 136<-3 1121>
LayerCount: 2
Fore
SplineSet
1121 594 m 1
 -3 594 l 1
 -3 730 l 1
 1121 730 l 1
 1121 594 l 1
EndSplineSet
EndChar

StartChar: emdash
Encoding: 8212 8212 216
Width: 1882
VWidth: 2045
Flags: W
HStem: 594 136<-3 1863>
LayerCount: 2
Fore
SplineSet
1863 594 m 1
 -3 594 l 1
 -3 730 l 1
 1863 730 l 1
 1863 594 l 1
EndSplineSet
EndChar

StartChar: horizontalbar
Encoding: 8213 8213 217
Width: 1858
VWidth: 2045
Flags: W
HStem: 594 136<110 1750>
LayerCount: 2
Fore
SplineSet
1750 594 m 1
 110 594 l 1
 110 730 l 1
 1750 730 l 1
 1750 594 l 1
EndSplineSet
EndChar

StartChar: underscoredbl
Encoding: 8215 8215 218
Width: 1115
VWidth: 2045
Flags: W
HStem: -423 130<-15 1133> -211 130<-15 1133>
LayerCount: 2
Fore
SplineSet
1133 -211 m 1
 -15 -211 l 1
 -15 -81 l 1
 1133 -81 l 1
 1133 -211 l 1
1133 -423 m 1
 -15 -423 l 1
 -15 -293 l 1
 1133 -293 l 1
 1133 -423 l 1
EndSplineSet
EndChar

StartChar: quoteleft
Encoding: 8216 8216 219
Width: 448
VWidth: 2045
Flags: W
HStem: 997 559
VStem: -64 399
LayerCount: 2
Fore
SplineSet
335 997 m 1
 197 997 l 1
 -64 1556 l 1
 177 1556 l 1
 335 997 l 1
EndSplineSet
EndChar

StartChar: quoteright
Encoding: 8217 8217 220
Width: 577
VWidth: 2045
Flags: W
HStem: 997 559
VStem: 98 397
LayerCount: 2
Fore
SplineSet
495 1556 m 1
 235 997 l 1
 98 997 l 1
 253 1556 l 1
 495 1556 l 1
EndSplineSet
EndChar

StartChar: quotesinglbase
Encoding: 8218 8218 221
Width: 429
VWidth: 2045
Flags: W
HStem: -275 559
VStem: -12 398
LayerCount: 2
Fore
SplineSet
386 284 m 1
 125 -275 l 1
 -12 -275 l 1
 143 284 l 1
 386 284 l 1
EndSplineSet
EndChar

StartChar: quotereversed
Encoding: 8219 8219 222
Width: 429
VWidth: 2045
Flags: W
HStem: 997 559
VStem: -64 399
LayerCount: 2
Fore
SplineSet
335 1556 m 1
 177 997 l 1
 -64 997 l 1
 197 1556 l 1
 335 1556 l 1
EndSplineSet
EndChar

StartChar: quotedblleft
Encoding: 8220 8220 223
Width: 847
VWidth: 2045
Flags: W
HStem: 997 559
LayerCount: 2
Fore
SplineSet
724 997 m 1
 592 997 l 1
 329 1556 l 1
 567 1556 l 1
 724 997 l 1
331 997 m 1
 197 997 l 1
 -64 1556 l 1
 174 1556 l 1
 331 997 l 1
EndSplineSet
EndChar

StartChar: quotedblright
Encoding: 8221 8221 224
Width: 998
VWidth: 2045
Flags: W
HStem: 997 559
LayerCount: 2
Fore
SplineSet
895 1556 m 1
 634 997 l 1
 500 997 l 1
 657 1556 l 1
 895 1556 l 1
502 1556 m 1
 241 997 l 1
 107 997 l 1
 264 1556 l 1
 502 1556 l 1
EndSplineSet
EndChar

StartChar: quotedblbase
Encoding: 8222 8222 225
Width: 812
VWidth: 2045
Flags: W
HStem: -275 559
LayerCount: 2
Fore
SplineSet
781 284 m 1
 518 -275 l 1
 386 -275 l 1
 543 284 l 1
 781 284 l 1
387 284 m 1
 125 -275 l 1
 -8 -275 l 1
 149 284 l 1
 387 284 l 1
EndSplineSet
EndChar

StartChar: dagger
Encoding: 8224 8224 226
Width: 1115
VWidth: 2045
Flags: W
HStem: 1030 136<134 490 625 982>
VStem: 485 146<136 1036 1160 1556>
LayerCount: 2
Fore
SplineSet
982 1030 m 1
 625 1036 l 1
 631 136 l 1
 485 136 l 1
 490 1036 l 1
 134 1030 l 1
 134 1166 l 1
 490 1160 l 1
 485 1556 l 1
 631 1556 l 1
 625 1160 l 1
 982 1166 l 1
 982 1030 l 1
EndSplineSet
EndChar

StartChar: daggerdbl
Encoding: 8225 8225 227
Width: 1115
VWidth: 2045
Flags: W
HStem: 504 136<134 485 631 982> 1035 136<134 485 631 982>
VStem: 485 146<124 508 635 1035 1171 1556>
LayerCount: 2
Fore
SplineSet
982 504 m 1
 631 508 l 1
 637 124 l 1
 480 124 l 1
 485 508 l 1
 134 504 l 1
 134 640 l 1
 485 635 l 1
 485 1035 l 1
 134 1031 l 1
 134 1176 l 1
 485 1171 l 1
 480 1556 l 1
 637 1556 l 1
 631 1171 l 1
 982 1176 l 1
 982 1031 l 1
 631 1035 l 1
 631 635 l 1
 982 640 l 1
 982 504 l 1
EndSplineSet
EndChar

StartChar: bullet
Encoding: 8226 8226 228
Width: 948
VWidth: 2045
Flags: W
HStem: 311 701<298.074 631.512>
VStem: 113 704<491.525 830.47>
LayerCount: 2
Fore
SplineSet
463 1012 m 0
 658 1012 817 859 817 662 c 0
 817 475 667 311 465 311 c 0
 275 311 113 461 113 662 c 0
 113 861 274 1012 463 1012 c 0
EndSplineSet
EndChar

StartChar: ellipsis
Encoding: 8230 8230 229
Width: 1648
VWidth: 2045
Flags: W
HStem: 0 224<177 381 735 938 1291 1494>
VStem: 177 204<0 224> 735 203<0 224> 1291 203<0 224>
LayerCount: 2
Fore
SplineSet
1494 0 m 1
 1291 0 l 1
 1291 224 l 1
 1494 224 l 1
 1494 0 l 1
938 0 m 1
 735 0 l 1
 735 224 l 1
 938 224 l 1
 938 0 l 1
381 0 m 1
 177 0 l 1
 177 224 l 1
 381 224 l 1
 381 0 l 1
EndSplineSet
EndChar

StartChar: perthousand
Encoding: 8240 8240 230
Width: 2570
VWidth: 2045
Flags: W
HStem: -48 136<1284.59 1471.41 2036.59 2223.41> -9 21G<478 634.127> 588 136<1284.59 1471.41 2036.59 2223.41> 718 136<337.588 524.412> 1354 136<337.588 524.412>
VStem: 119 146<932.72 1275.28> 597 146<932.72 1275.28> 1066 146<166.72 509.28> 1544 146<166.72 509.28> 1818 146<166.72 509.28> 2296 146<166.72 509.28>
DStem2: 478 -9 624 -9 0.451731 0.892154<65.9527 1680.2>
LayerCount: 2
Back
SplineSet
454 1517 m 1x2fe0
 665 1517 805 1396 805 1075 c 0
 805 847 735 634 454 634 c 0
 243 634 102 755 102 1075 c 0
 102 1299 170 1515 454 1517 c 1x2fe0
1471 1489 m 1
 692 0 l 1
 527 0 l 1x4fe0
 1307 1489 l 1
 1471 1489 l 1
1543 853 m 0x9fe0
 1754 853 1895 729 1895 414 c 0
 1895 185 1825 -29 1543 -29 c 0
 1332 -29 1191 96 1191 411 c 0
 1191 640 1261 853 1543 853 c 0x9fe0
454 767 m 0x2fe0
 558 767 628 820 628 1075 c 0
 628 1331 559 1384 454 1384 c 0
 350 1384 281 1331 281 1075 c 0
 281 812 350 767 454 767 c 0x2fe0
1543 104 m 0x9fe0
 1647 104 1717 153 1717 414 c 0
 1717 673 1648 720 1544 720 c 0
 1450 720 1369 678 1369 412 c 0
 1369 152 1439 104 1543 104 c 0x9fe0
2387 853 m 0
 2668 853 2738 640 2738 414 c 0
 2738 94 2598 -29 2387 -29 c 0
 2175 -29 2034 96 2034 411 c 0
 2034 731 2175 853 2387 853 c 0
2387 104 m 0
 2491 104 2561 160 2561 414 c 0
 2561 667 2491 720 2387 720 c 0
 2281 720 2211 666 2211 412 c 0
 2211 154 2281 104 2387 104 c 0
EndSplineSet
Fore
SplineSet
2130 -48 m 259xafe0
 1958 -48 1818 120 1818 338 c 259
 1818 556 1958 724 2130 724 c 259
 2302 724 2442 556 2442 338 c 259
 2442 120 2302 -48 2130 -48 c 259xafe0
2130 588 m 259
 2058 588 1964 510 1964 338 c 259
 1964 166 2058 88 2130 88 c 259
 2202 88 2296 166 2296 338 c 259
 2296 510 2202 588 2130 588 c 259
1378 -48 m 259
 1206 -48 1066 120 1066 338 c 259
 1066 556 1206 724 1378 724 c 259
 1550 724 1690 556 1690 338 c 259
 1690 120 1550 -48 1378 -48 c 259
1378 588 m 259
 1306 588 1212 510 1212 338 c 259
 1212 166 1306 88 1378 88 c 259
 1450 88 1544 166 1544 338 c 259
 1544 510 1450 588 1378 588 c 259
431 718 m 259x1fe0
 259 718 119 886 119 1104 c 259
 119 1322 259 1490 431 1490 c 259
 603 1490 743 1322 743 1104 c 259
 743 886 603 718 431 718 c 259x1fe0
431 1354 m 259
 359 1354 265 1276 265 1104 c 259
 265 932 359 854 431 854 c 259
 503 854 597 932 597 1104 c 259
 597 1276 503 1354 431 1354 c 259
1237 1490 m 1
 1383 1490 l 1
 624 -9 l 1
 478 -9 l 1x4fe0
 1237 1490 l 1
EndSplineSet
EndChar

StartChar: minute
Encoding: 8242 8242 231
Width: 600
VWidth: 2045
Flags: W
HStem: 870 619
VStem: 137 433
LayerCount: 2
Fore
SplineSet
570 1489 m 1
 273 870 l 1
 137 870 l 1
 331 1489 l 1
 570 1489 l 1
EndSplineSet
EndChar

StartChar: second
Encoding: 8243 8243 232
Width: 969
VWidth: 2045
Flags: W
HStem: 870 619
LayerCount: 2
Fore
SplineSet
567 1489 m 1
 268 870 l 1
 137 870 l 1
 331 1489 l 1
 567 1489 l 1
960 1489 m 1
 662 870 l 1
 531 870 l 1
 724 1489 l 1
 960 1489 l 1
EndSplineSet
EndChar

StartChar: guilsinglleft
Encoding: 8249 8249 233
Width: 782
VWidth: 2045
Flags: W
VStem: 122 511
DStem2: 122 698 302 652 0.762933 0.646478<107.59 541.781> 302 652 122 607 0.761461 -0.648211<0 433.543>
LayerCount: 2
Fore
SplineSet
633 172 m 1
 122 607 l 1
 122 698 l 1
 633 1131 l 1
 633 933 l 1
 302 652 l 1
 633 372 l 1
 633 172 l 1
EndSplineSet
EndChar

StartChar: guilsinglright
Encoding: 8250 8250 234
Width: 782
VWidth: 2045
Flags: W
VStem: 151 509
DStem2: 151 1131 151 933 0.761681 -0.647952<128.295 562.486> 151 372 151 172 0.760205 0.649684<0 433.539>
LayerCount: 2
Fore
SplineSet
660 607 m 1
 151 172 l 1
 151 372 l 1
 482 652 l 1
 151 933 l 1
 151 1131 l 1
 660 698 l 1
 660 607 l 1
EndSplineSet
EndChar

StartChar: uni203E
Encoding: 8254 8254 236
Width: 1115
VWidth: 2045
Flags: W
HStem: 1658 130<-49 1116>
LayerCount: 2
Fore
SplineSet
1116 1658 m 1
 -49 1658 l 1
 -49 1788 l 1
 1116 1788 l 1
 1116 1658 l 1
EndSplineSet
EndChar

StartChar: fraction
Encoding: 8260 8260 237
Width: 884
VWidth: 2045
Flags: W
HStem: 0 21G<-29 146.463>
DStem2: -29 0 136 0 0.463562 0.886064<76.4878 1680.46>
LayerCount: 2
Fore
SplineSet
915 1489 m 1
 136 0 l 1
 -29 0 l 1
 750 1489 l 1
 915 1489 l 1
EndSplineSet
EndChar

StartChar: uni207F
Encoding: 8319 8319 238
Width: 1007
VWidth: 2045
Flags: W
HStem: 1395 124<376.812 704.689>
VStem: 125 127<565 1310.82 1387 1488> 762 127<565 1332.82>
LayerCount: 2
Fore
SplineSet
585 1519 m 3
 738 1519 889 1478 889 1163 c 2
 889 565 l 1
 762 565 l 1
 762 1115 l 2
 762 1303 748 1395 540 1395 c 3
 447 1395 380 1381 252 1281 c 1
 252 565 l 1
 125 565 l 1
 125 1488 l 1
 252 1488 l 1
 252 1387 l 1
 398 1514 483 1519 585 1519 c 3
EndSplineSet
EndChar

StartChar: dottedcircle
Encoding: 9676 9676 239
Width: 1253
VWidth: 2045
Flags: W
HStem: 6 121<552.025 668.979> 68 121<846.77 962.541> 98 121<288.541 404.456> 234 121<1011.2 1128.54> 249 121<144.993 261.635> 444 121<23.3647 140.852 1089.79 1201.93> 680 121<39.7485 156.271 1072.88 1189.12> 867 121<145.286 260.861> 891 121<966.134 1083.33> 1010 121<333.712 451.099> 1033 121<778.071 893.554> 1078 121<560.141 676.041>
VStem: 21 122<446.709 562.713> 37 122<682.353 798.552> 143 121<251.291 367.777 869.433 985.998> 287 120<100.109 217.219> 332 121<1012.07 1128.86> 550 121<8.06602 124.782 1082.94 1193.99> 776 120<1035.09 1151.86> 845 120<70.079 186.929> 964 122<893.544 1009.67> 1009 122<236.206 352.728> 1070 122<682.061 798.41> 1086 120<440.061 556.85>
LayerCount: 2
Fore
SplineSet
203 867 m 0x070240
 170 867 143 893 143 928 c 0
 143 952 155 988 203 988 c 0
 240 988 264 962 263 927 c 0
 263 896 238 867 203 867 c 0x070240
392 1010 m 0x0640c0
 356 1010 332 1034 332 1071 c 0
 332 1109 361 1131 392 1131 c 0
 426 1131 453 1106 453 1071 c 0
 453 1034 427 1010 392 1010 c 0x0640c0
617 1078 m 0x061040
 589 1078 558 1101 558 1139 c 0
 558 1174 586 1199 618 1199 c 0
 650 1199 678 1177 678 1139 c 0
 678 1096 644 1078 617 1078 c 0x061040
81 444 m 0
 46 444 21 475 21 504 c 0
 21 539 49 565 82 565 c 0
 112 565 143 543 143 504 c 0x060840
 143 471 115 444 81 444 c 0
203 249 m 0x0e0240
 166 249 143 276 143 310 c 0
 143 345 170 370 203 370 c 0
 236 370 264 344 264 308 c 0
 264 274 236 249 203 249 c 0x0e0240
346 98 m 0x260140
 314 98 287 118 287 158 c 0
 287 199 314 219 346 219 c 0
 383 219 406 194 407 157 c 0
 407 125 382 98 346 98 c 0x260140
611 6 m 0x860040
 579 6 550 30 550 66 c 0
 550 101 573 127 610 127 c 0
 645 127 671 102 671 66 c 0
 671 30 642 6 611 6 c 0x860040
904 68 m 0x460050
 870 68 845 92 845 128 c 0
 845 165 870 189 904 189 c 0x460050
 941 189 965 161 965 127 c 0x860050
 965 98 942 68 904 68 c 0x460050
1070 234 m 0x160042
 1030 234 1009 266 1009 294 c 0x160044
 1009 322 1030 355 1070 355 c 0x160042
 1107 355 1131 327 1131 293 c 0x160044
 1131 264 1108 234 1070 234 c 0x160042
1145 438 m 0
 1112 438 1086 459 1086 497 c 0
 1086 534 1110 559 1145 559 c 0
 1178 559 1206 536 1206 497 c 0x060041
 1206 462 1180 438 1145 438 c 0
1131 680 m 0x060044
 1093 680 1070 707 1070 739 c 0x060042
 1070 768 1094 801 1131 801 c 0x060044
 1167 801 1192 770 1192 739 c 0x060042
 1192 704 1168 680 1131 680 c 0x060044
1023 891 m 0x068048
 989 891 964 916 964 952 c 0
 964 978 984 1012 1024 1012 c 0
 1064 1012 1085 979 1086 952 c 1
 1086 914 1056 891 1023 891 c 0x068048
837 1033 m 0x062060
 803 1033 776 1057 776 1094 c 0
 776 1127 800 1154 837 1154 c 0
 875 1154 896 1123 896 1094 c 0
 896 1063 872 1033 837 1033 c 0x062060
96 680 m 0
 56 680 37 710 37 739 c 0
 37 767 59 801 98 801 c 0
 132 801 159 772 159 738 c 0x060440
 159 703 132 680 96 680 c 0
EndSplineSet
EndChar

StartChar: uni0E10.descless
Encoding: 63232 63232 240
Width: 1192
VWidth: 2045
Flags: W
HStem: 0 21G<701.675 817.356> 296 112<416.385 565.096> 574 112<416.55 563.641> 764 112<247 810.359> 1142 112<434.444 789.98>
VStem: 293 113<418.789 563.582> 837 113<564.764 737.139>
DStem2: 758 266 813 0 0.212831 0.977089<0 387.744>
LayerCount: 2
Fore
SplineSet
117 764 m 1
 117 1019 325 1254 611 1254 c 256
 810 1254 960 1143 1040 1006 c 9
 944 949 l 17
 844 1122 681 1142 611 1142 c 256
 427 1142 290 1015 247 876 c 1
 724 876 l 2
 845 876 950 783 950 652 c 16
 950 634 948 619 945 606 c 10
 813 0 l 1
 707 0 l 1
 617 338 l 17
 590 310 548 296 491 296 c 0
 380 296 293 385 293 491 c 0
 293 598 380 686 491 686 c 0
 565 686 653 646 685 529 c 2
 758 266 l 17
 835 631 l 18
 836 634 837 638 837 646 c 0
 837 710 793 764 724 764 c 2
 117 764 l 1
489 574 m 0
 440 574 406 537 406 491 c 0
 406 442 443 408 489 408 c 0
 533 408 575 441 575 491 c 0
 575 541 533 574 489 574 c 0
EndSplineSet
EndChar

StartChar: uni0E34.left
Encoding: 63233 63233 241
Width: 0
VWidth: 2045
Flags: W
HStem: 1767 112<-1087.01 -727.564>
DStem2: -1205 1621 -1381 1527 0.995505 -0.0947119<0 640.72>
LayerCount: 2
Back
SplineSet
-779 1486 m 21
 -782.333 1492 -785.333 1498 -788 1504 c 4
 -822 1561.33 -868.333 1607 -927 1641 c 132
 -985.667 1675 -1049.67 1692 -1119 1692 c 260
 -1188.33 1692 -1252 1674.67 -1310 1640 c 20
 -1351.33 1616 -1387.33 1585 -1418 1547 c 5
 -779 1486 l 21
-626 1359 m 13
 -1593 1452 l 5
 -1581.67 1488.67 -1566 1524.33 -1546 1559 c 12
 -1501.33 1634.33 -1441.33 1693.83 -1366 1737.5 c 132
 -1290.67 1781.17 -1208.33 1803.33 -1119 1804 c 260
 -1029.67 1804 -946.833 1782 -870.5 1738 c 132
 -794.167 1694 -734.333 1634.33 -691 1559 c 4
 -653.667 1497.67 -632 1431 -626 1359 c 13
EndSplineSet
Fore
Refer: 175 3636 N 1 0 0 1 -245 0 2
EndChar

StartChar: uni0E35.left
Encoding: 63234 63234 242
Width: 0
VWidth: 2045
Flags: W
HStem: 1764 112<-1087.01 -726.951>
VStem: -527 113<1701 1935>
DStem2: -1205 1618 -1381 1524 0.995505 -0.0947119<0 640.72>
LayerCount: 2
Back
SplineSet
-626 1361 m 13
 -1593 1453 l 5
 -1581.67 1491 -1566 1527.33 -1546 1562 c 12
 -1501.33 1636.67 -1441.33 1695.83 -1366 1739.5 c 132
 -1290.67 1783.17 -1208.33 1805 -1119 1805 c 260
 -1029.67 1805 -947 1783.33 -871 1740 c 4
 -819.667 1710 -775.667 1673.33 -739 1630 c 13
 -739 1864 l 5
 -626 1864 l 13
 -626 1361 l 13
-779 1488 m 21
 -782.333 1492.67 -785.333 1498 -788 1504 c 4
 -822 1562.67 -868.333 1608.83 -927 1642.5 c 132
 -985.667 1676.17 -1049.67 1693 -1119 1693 c 260
 -1188.33 1693 -1252 1676.33 -1310 1643 c 20
 -1351.33 1618.33 -1387.33 1586.33 -1418 1547 c 5
 -779 1488 l 21
EndSplineSet
Fore
Refer: 176 3637 N 1 0 0 1 -245 0 2
EndChar

StartChar: uni0E36.left
Encoding: 63235 63235 243
Width: 0
VWidth: 2045
Flags: W
HStem: 1762 112<-1072.01 -798.635> 1966 112<-674.702 -528.061>
VStem: -800 113<1866.75 1955.57> -517 113<1807.29 1954.33>
DStem2: -1190 1616 -1366 1522 0.995505 -0.0947119<0 640.72>
LayerCount: 2
Back
SplineSet
-744 1634 m 1
 -723.333 1612 -705.667 1588 -691 1562 c 0
 -654.333 1499.33 -633 1432.33 -627 1361 c 9
 -1593 1453 l 1
 -1581.67 1491 -1566 1527.33 -1546 1562 c 8
 -1501.33 1636.67 -1441.33 1695.83 -1366 1739.5 c 128
 -1290.67 1783.17 -1208.33 1805 -1119 1805 c 256
 -1086.33 1805 -1055.33 1802.33 -1026 1797 c 1
 -1027.33 1801 -1028 1806 -1028 1812 c 0
 -1028 1866.67 -1008.67 1913.17 -970 1951.5 c 128
 -931.333 1989.83 -884.5 2009 -829.5 2009 c 128
 -774.5 2009 -727.667 1989.83 -689 1951.5 c 128
 -650.333 1913.17 -631 1866.83 -631 1812.5 c 128
 -631 1758.17 -650.333 1712 -689 1674 c 0
 -706.333 1657.33 -724.667 1644 -744 1634 c 1
-915 1812.5 m 128
 -915 1789.5 -906.5 1769.67 -889.5 1753 c 128
 -872.5 1736.33 -852.333 1728 -829 1728 c 128
 -805.667 1728 -785.667 1736.33 -769 1753 c 128
 -752.333 1769.67 -744 1789.5 -744 1812.5 c 128
 -744 1835.5 -752.333 1855.33 -769 1872 c 128
 -785.667 1888.67 -805.667 1897 -829 1897 c 128
 -852.333 1897 -872.5 1888.67 -889.5 1872 c 128
 -906.5 1855.33 -915 1835.5 -915 1812.5 c 128
-779 1488 m 17
 -782.333 1492.67 -785.333 1498 -788 1504 c 0
 -822 1562.67 -868.333 1608.83 -927 1642.5 c 128
 -985.667 1676.17 -1049.67 1693 -1119 1693 c 256
 -1188.33 1693 -1252 1676.33 -1310 1643 c 16
 -1351.33 1618.33 -1387.33 1586.33 -1418 1547 c 1
 -779 1488 l 17
EndSplineSet
Fore
Refer: 177 3638 N 1 0 0 1 -230 0 2
EndChar

StartChar: uni0E37.left
Encoding: 63236 63236 244
Width: 0
VWidth: 2045
Flags: W
HStem: 1764 112<-1071.01 -739.497>
VStem: -737 113<1852 1935> -511 113<1701 1935>
DStem2: -1189 1618 -1365 1524 0.995505 -0.0947119<0 640.72>
LayerCount: 2
Back
SplineSet
-852 1728 m 17
 -808 1700.67 -770.333 1668 -739 1630 c 9
 -739 1864 l 1
 -626 1864 l 9
 -626 1361 l 9
 -1593 1453 l 1
 -1581.67 1491 -1566 1527.33 -1546 1562 c 8
 -1501.33 1636.67 -1441.33 1695.83 -1366 1739.5 c 128
 -1290.67 1783.17 -1208.33 1805 -1119 1805 c 256
 -1065 1805 -1013.67 1797 -965 1781 c 9
 -965 1864 l 1
 -852 1864 l 1
 -852 1728 l 17
-779 1488 m 17
 -782.333 1492.67 -785.333 1498 -788 1504 c 0
 -822 1562.67 -868.333 1608.83 -927 1642.5 c 128
 -985.667 1676.17 -1049.67 1693 -1119 1693 c 256
 -1188.33 1693 -1252 1676.33 -1310 1643 c 16
 -1351.33 1618.33 -1387.33 1586.33 -1418 1547 c 1
 -779 1488 l 17
EndSplineSet
Fore
Refer: 178 3639 N 1 0 0 1 -229 0 2
EndChar

StartChar: uni0E48.low_left
Encoding: 63237 63237 245
Width: 0
VWidth: 2045
Flags: W
HStem: 1444 448<-515 -404>
VStem: -515 111<1444 1892>
LayerCount: 2
Back
SplineSet
-604 1568 m 1
 -482 1568 l 1
 -482 1293 l 1
 -604 1293 l 1
 -604 1568 l 1
EndSplineSet
Fore
Refer: 250 63242 N 1 0 0 1 -198 0 2
EndChar

StartChar: uni0E49.low_left
Encoding: 63238 63238 246
Width: 0
VWidth: 2045
Flags: W
HStem: 1421 112<-808 -637.154> 1604 72<-901.232 -866> 1788 83<-903.815 -796.073>
VStem: -990 84<1678.12 1785.16> -793 85<1677.56 1785.41> -427 114<1742.77 1911>
LayerCount: 2
Back
SplineSet
-313 1761 m 273x48
 -313 1501 -521 1272 -808 1272 c 10x88
 -921 1272 l 1x48
 -921 1383 l 1
 -866 1453 l 17
 -915 1453 -990 1491 -990 1581 c 0xa8
 -990 1663 -926 1722 -849 1722 c 0
 -767 1722 -708 1658 -708 1581 c 0
 -708 1547 -715 1520 -729 1500 c 2
 -808 1383 l 1xb2
 -597 1383 -427 1553 -427 1761 c 265x43
 -313 1761 l 273x48
-849 1637 m 0x36
 -882 1637 -906 1611 -906 1581 c 0
 -906 1552 -882 1525 -849 1525 c 0
 -816 1525 -793 1552 -793 1581 c 0
 -793 1611 -815 1637 -849 1637 c 0x36
EndSplineSet
Fore
Refer: 251 63243 N 1 0 0 1 -281 0 2
EndChar

StartChar: uni0E4A.low_left
Encoding: 63239 63239 247
Width: 0
VWidth: 2045
Flags: W
HStem: 1418 83<-964.628 -857.962> 1418 112<-615 -526.208> 1613 88<-966.849 -857.705> 1754 112<-982.79 -800.189 -704.194 -525.633>
VStem: -1115 104<1643 1723.72> -855 83<1504.43 1609.51> -502 113<1602.23 1729.99> -233 112<1740.17 1908>
LayerCount: 2
Back
SplineSet
-619 1380 m 1,0,-1
-619 1716 m 8,1,-1
 -487 1716 -393 1615 -393 1492 c 16,4,-1
 -393 1478 -394 1464 -396 1450 c 1,7,-1
 -308 1515 -238 1624 -238 1758 c 265,10,-1
 -124 1758 l 273,11,-1
 -124 1474 -356 1269 -619 1269 c 9,14,-1
 -619 1380 l 17,15,-1
 -552 1393 -506 1425 -506 1492 c 24,18,-1
 -506 1552 -556 1604 -619 1604 c 24,21,-1
 -659 1604 -691 1586 -720 1545 c 1,24,-1
 -793 1545 l 1,25,-1
 -804 1563 -834 1604 -896 1604 c 24,28,-1
 -968 1604 -1014 1537 -1014 1492 c 1,31,-1
 -997 1531 -961 1550 -907 1550 c 0,34,-1
 -835 1550 -774 1491 -775 1408 c 0,37,-1
 -775 1328 -839 1269 -916 1269 c 0,40,-1
 -1006 1269 -1119 1319 -1119 1492 c 24,43,-1
 -1119 1615 -1025 1716 -893 1716 c 16,46,-1
 -840 1716 -795 1701 -756 1670 c 1,49,-1
 -717 1701 -672 1716 -619 1716 c 8,1,-1
-916 1465 m 0,52,-1
 -946 1465 -973 1442 -973 1409 c 0,55,-1
 -973 1378 -949 1353 -916 1353 c 0,58,-1
 -888 1353 -860 1375 -860 1409 c 0,61,-1
 -860 1442 -886 1465 -916 1465 c 0,52,-1
EndSplineSet
Fore
Refer: 252 63244 N 1 0 0 1 -273 0 2
EndChar

StartChar: uni0E4B.low_left
Encoding: 63240 63240 248
Width: 0
VWidth: 2045
Flags: W
HStem: 1599 112<-820 -671 -558 -409>
VStem: -671 113<1430 1599 1711 1878>
LayerCount: 2
Back
SplineSet
-409 1445 m 1
 -558 1445 l 1
 -558 1296 l 1
 -671 1296 l 1
 -671 1445 l 1
 -821 1445 l 1
 -821 1557 l 1
 -671 1557 l 1
 -671 1707 l 1
 -558 1707 l 1
 -558 1557 l 1
 -409 1557 l 1
 -409 1445 l 1
EndSplineSet
Fore
Refer: 253 63245 N 1 0 0 1 -302 0 2
EndChar

StartChar: uni0E4C.low_left
Encoding: 63241 63241 249
Width: 0
VWidth: 2045
Flags: W
HStem: 1420 112<-642.39 -493.813> 1701 112<-640.044 -491.845 -389 -91.957>
VStem: -766 113<1543.98 1690.29> -482 113<1542.33 1690.87>
LayerCount: 2
Back
SplineSet
-897 1458 m 0
 -897 1565 -811 1652 -699 1652 c 10
 -348 1652 l 2
 -293 1652 -247 1671 -208 1710 c 9
 -128 1631 l 17
 -189 1571 -263 1541 -348 1541 c 2
 -520 1541 l 17
 -507 1516 -500 1488 -500 1458 c 0
 -500 1352 -586 1263 -698 1263 c 0
 -812 1263 -897 1352 -897 1458 c 0
-698 1541 m 0
 -748 1541 -784 1503 -784 1458 c 0
 -784 1412 -748 1374 -698 1374 c 0
 -649 1374 -613 1412 -613 1458 c 0
 -613 1503 -649 1541 -698 1541 c 0
EndSplineSet
Fore
Refer: 254 63246 N 1 0 0 1 -37 0 2
EndChar

StartChar: uni0E48.low
Encoding: 63242 63242 250
Width: 0
VWidth: 2045
Flags: W
HStem: 1444 448<-317 -206>
VStem: -317 111<1444 1892>
AnchorPoint: "AboveMark" -262 2040 basemark 0
AnchorPoint: "AboveBase" -206 1370 mark 0
LayerCount: 2
Fore
SplineSet
-317 1892 m 25
 -206 1892 l 1
 -206 1444 l 1
 -317 1444 l 1
 -317 1892 l 25
EndSplineSet
EndChar

StartChar: uni0E49.low
Encoding: 63243 63243 251
Width: 0
VWidth: 2045
Flags: W
HStem: 1421 112<-527 -356.154> 1604 72<-620.232 -585> 1788 83<-622.815 -515.073>
VStem: -709 84<1678.12 1785.16> -512 85<1677.56 1785.41> -146 114<1742.77 1911>
AnchorPoint: "AboveMark" -470 2040 basemark 0
AnchorPoint: "AboveBase" -123 1370 mark 0
LayerCount: 2
Fore
SplineSet
-32 1911 m 273
 -32 1641 -252 1421 -527 1421 c 10
 -640 1421 l 1
 -640 1533 l 1
 -585 1604 l 17
 -635 1604 -709 1645 -709 1732 c 0
 -709 1812 -645 1871 -568 1871 c 0
 -490 1871 -427 1812 -427 1732 c 0
 -427 1697 -434 1670 -448 1649 c 2
 -527 1533 l 1
 -311 1537 -146 1706 -146 1911 c 265
 -32 1911 l 273
-568 1788 m 0
 -598 1788 -625 1765 -625 1732 c 0
 -625 1698 -598 1676 -568 1676 c 0
 -534 1676 -512 1701 -512 1732 c 0
 -512 1762 -534 1788 -568 1788 c 0
EndSplineSet
EndChar

StartChar: uni0E4A.low
Encoding: 63244 63244 252
Width: 0
VWidth: 2045
Flags: W
HStem: 1418 112<-342 -253.208> 1418 83<-691.628 -584.962> 1613 88<-693.849 -584.705> 1754 112<-709.79 -527.189 -431.194 -252.633>
VStem: -842 104<1643 1723.72> -582 83<1504.43 1609.51> -229 113<1602.23 1729.99> 40 112<1740.17 1908>
AnchorPoint: "AboveMark" -479 2040 basemark 0
AnchorPoint: "AboveBase" -131 1370 mark 0
LayerCount: 2
Fore
SplineSet
-342 1530 m 1,0,-1
-342 1866 m 9,1,-1
 -215 1866 -116 1765 -116 1642 c 16,4,-1
 -116 1627 -117 1613 -120 1601 c 1,7,-1
 -28 1665 40 1774 40 1908 c 265,10,-1
 152 1908 l 273,11,-1
 152 1639 -64 1418 -342 1418 c 9,14,-1
 -342 1530 l 17,15,-1
 -272 1543 -229 1575 -229 1642 c 24,18,-1
 -229 1707 -282 1754 -342 1754 c 24,21,-1
 -402 1754 -433 1710 -442 1695 c 1,24,-1
 -517 1695 l 1,25,-1
 -525 1709 -556 1754 -619 1754 c 24,28,-1
 -692 1754 -738 1686 -738 1643 c 1,31,-1
 -719 1682 -684 1701 -631 1701 c 1,34,-1
 -559 1698 -499 1640 -499 1559 c 0,37,-1
 -499 1477 -563 1418 -640 1418 c 0,40,-1
 -738 1418 -842 1476 -842 1642 c 24,43,-1
 -842 1765 -743 1865 -616 1866 c 16,46,-1
 -564 1866 -518 1851 -479 1820 c 1,49,-1
 -440 1850 -395 1865 -342 1866 c 9,1,-1
-640 1613 m 0,52,-1
 -669 1613 -695 1591 -695 1558 c 0,55,-1
 -695 1528 -673 1501 -640 1501 c 0,58,-1
 -606 1501 -582 1528 -582 1558 c 0,61,-1
 -582 1588 -607 1613 -640 1613 c 0,52,-1
EndSplineSet
EndChar

StartChar: uni0E4B.low
Encoding: 63245 63245 253
Width: 0
VWidth: 2045
Flags: W
HStem: 1599 112<-518 -369 -256 -107>
VStem: -369 113<1430 1599 1711 1878>
AnchorPoint: "AboveMark" -312 2040 basemark 0
AnchorPoint: "AboveBase" -102 1370 mark 0
LayerCount: 2
Fore
SplineSet
-107 1599 m 1
 -256 1599 l 1
 -256 1430 l 1
 -369 1430 l 1
 -369 1599 l 1
 -518 1599 l 1
 -518 1711 l 1
 -369 1711 l 1
 -369 1878 l 1
 -256 1878 l 1
 -256 1711 l 1
 -107 1711 l 1
 -107 1599 l 1
EndSplineSet
EndChar

StartChar: uni0E4C.low
Encoding: 63246 63246 254
Width: 0
VWidth: 2045
Flags: W
HStem: 1420 112<-605.39 -456.813> 1701 112<-603.044 -454.845 -352 -54.957>
VStem: -729 113<1543.98 1690.29> -445 113<1542.33 1690.87>
AnchorPoint: "AboveMark" -367 2040 basemark 0
AnchorPoint: "AboveBase" -367 1370 mark 0
LayerCount: 2
Fore
SplineSet
-729 1617 m 0
 -729 1728 -639 1813 -531 1813 c 10
 -180 1813 l 2
 -125 1813 -79 1832 -40 1870 c 9
 40 1792 l 17
 -21 1731 -95 1701 -180 1701 c 2
 -352 1701 l 17
 -339 1675 -332 1647 -332 1617 c 0
 -332 1502 -424 1420 -530 1420 c 0
 -644 1420 -729 1510 -729 1617 c 0
-530 1701 m 0
 -580 1701 -616 1662 -616 1617 c 0
 -616 1571 -580 1532 -530 1532 c 0
 -481 1532 -445 1571 -445 1617 c 0
 -445 1662 -481 1701 -530 1701 c 0
EndSplineSet
EndChar

StartChar: uni0E0D.descless
Encoding: 63247 63247 255
Width: 1864
VWidth: 2045
Flags: W
HStem: 0 112<373.641 523.099 1098 1565> 279 112<374.009 523.423> 764 112<240 251 364 476> 1142 112<424.175 780.412>
VStem: 251 113<125.058 268.581 373 764> 534 113<123.11 267.934> 985 113<112 934.233> 1565 113<112 1254>
LayerCount: 2
Fore
SplineSet
604 1254 m 256
 873 1254 1098 1039 1098 764 c 2
 1098 112 l 1
 1565 112 l 1
 1565 1254 l 1
 1678 1254 l 1
 1678 0 l 17
 985 0 l 1
 985 764 l 2
 985 973 814 1142 604 1142 c 256
 486 1142 316 1087 240 876 c 1
 476 876 l 1
 476 764 l 1
 364 764 l 1
 364 373 l 1
 391 385 419 391 449 391 c 0
 561 391 647 303 647 196 c 0
 647 88 561 0 448 0 c 0
 334 0 251 90 251 196 c 2
 251 764 l 1
 110 764 l 1
 110 1034 332 1254 604 1254 c 256
449 279 m 0
 400 279 364 240 364 195 c 0
 364 145 404 112 449 112 c 0
 497 112 534 149 534 195 c 0
 534 245 493 279 449 279 c 0
EndSplineSet
EndChar

StartChar: uni0E4D.left
Encoding: 63249 63249 257
Width: 0
VWidth: 2045
Flags: W
HStem: 1401 112<-677.729 -528.725> 1681 112<-676.097 -527.791>
VStem: -801 113<1524.58 1670.18> -517 113<1523.59 1669.06>
LayerCount: 2
Back
SplineSet
-930 1555 m 132
 -930 1609 -910.667 1655.17 -872 1693.5 c 132
 -833.333 1731.83 -786.5 1751 -731.5 1751 c 132
 -676.5 1751 -629.833 1731.83 -591.5 1693.5 c 132
 -553.167 1655.17 -533.833 1609 -533.5 1555 c 132
 -533.167 1501 -552.333 1454.83 -591 1416.5 c 132
 -629.667 1378.17 -676.5 1359 -731.5 1359 c 132
 -786.5 1359 -833.333 1378.17 -872 1416.5 c 132
 -910.667 1454.83 -930 1501 -930 1555 c 132
-817 1554 m 132
 -817 1530.67 -808.667 1511 -792 1495 c 132
 -775.333 1479 -755.333 1471 -732 1471 c 132
 -708.667 1471 -688.5 1479 -671.5 1495 c 132
 -654.5 1511 -646 1530.67 -646 1554 c 132
 -646 1577.33 -654.5 1597.33 -671.5 1614 c 132
 -688.5 1630.67 -708.667 1639 -732 1639 c 132
 -755.333 1639 -775.333 1630.67 -792 1614 c 132
 -808.667 1597.33 -817 1577.33 -817 1554 c 132
EndSplineSet
Fore
Refer: 196 3661 N 1 0 0 1 -209 0 2
EndChar

StartChar: uni0E47.left
Encoding: 63250 63250 258
Width: 0
VWidth: 2045
Flags: W
HStem: 1398 86<-598.038 -490.167> 1502 110<-895.641 -774.076> 1596 83<-597.025 -488.885> 1761 101<-988.899 -503.057>
VStem: -1147 112<1515.85 1716.63> -684 84<1510.65 1594.01> -487 83<1487.19 1594.01>
LayerCount: 2
Back
SplineSet
-752 1676 m 0xde
 -715 1676 -696 1674 -658 1674 c 0
 -521 1674 -430 1687 -328 1820 c 1
 -404 1893 l 1
 -483 1780 -544 1775 -672 1775 c 0
 -715 1775 -759 1777 -781 1777 c 0
 -1053 1777 -1114 1632 -1114 1536 c 0
 -1114 1358 -976 1316 -868 1313 c 1
 -871 1335 -868 1358 -860 1381 c 0
 -853 1405 -835 1417 -808 1417 c 0xde
 -723 1417 -703 1313 -526 1313 c 16
 -415 1313 -371 1393 -371 1455 c 0
 -371 1531 -432 1594 -511 1594 c 0xbe
 -590 1594 -651 1531 -651 1455 c 0
 -651 1443 -651 1433 -650 1425 c 1
 -710 1431 -755 1525 -834 1527 c 16
 -905 1530 -935 1461 -935 1419 c 1
 -981 1433 -1002 1474 -1002 1536 c 0
 -1002 1652 -895 1676 -752 1676 c 0xde
-510 1399 m 0
 -544 1399 -567 1424 -567 1455 c 0
 -567 1486 -544 1511 -510 1511 c 0xbe
 -477 1511 -454 1486 -454 1455 c 0
 -454 1424 -477 1399 -510 1399 c 0
EndSplineSet
Fore
Refer: 190 3655 N 1 0 0 1 -123 0 2
EndChar

StartChar: uni0E48.left
Encoding: 63251 63251 259
Width: 0
VWidth: 2045
Flags: W
HStem: 2117 305<-527 -414>
VStem: -527 113<2117 2422>
LayerCount: 2
Back
SplineSet
-509 1924 m 1
 -387 1924 l 1
 -387 1649 l 1
 -509 1649 l 1
 -509 1924 l 1
EndSplineSet
Fore
Refer: 191 3656 N 1 0 0 1 -245 0 2
EndChar

StartChar: uni0E38.low
Encoding: 63256 63256 264
Width: 0
VWidth: 2045
Flags: W
HStem: -1011 112<-504.695 -355.2> -733 112<-505.148 -357.176>
VStem: -628 113<-888.595 -744.116> -346 113<-1208 -993 -888.942 -743.961>
LayerCount: 2
Back
SplineSet
-564 -822 m 0
 -564 -935 -473 -1018 -367 -1018 c 0
 -337 -1018 -309 -1012 -284 -1000 c 1
 -284 -1213 l 1
 -171 -1213 l 1
 -171 -822 l 2
 -171 -712 -259 -625 -368 -625 c 0
 -474 -625 -564 -710 -564 -822 c 0
-367 -906 m 0
 -411 -906 -451 -871 -451 -822 c 0
 -451 -777 -416 -737 -367 -737 c 0
 -319 -737 -284 -777 -284 -822 c 0
 -284 -866 -319 -906 -367 -906 c 0
EndSplineSet
Fore
Refer: 179 3640 N 1 0 0 1 -70 -537 2
EndChar

StartChar: uni0E39.low
Encoding: 63257 63257 265
Width: 0
VWidth: 2045
Flags: W
HStem: -1209 112<-560 -391> -1014 112<-833.089 -682.486> -736 112<-833.372 -684.947>
VStem: -956 113<-891.183 -747.116> -673 113<-1097 -996 -892.045 -746.961> -391 113<-1097 -624>
LayerCount: 2
Back
SplineSet
-851 -826 m 0
 -851 -934 -763 -1021 -654 -1021 c 0
 -623 -1021 -595 -1015 -570 -1003 c 1
 -570 -1216 l 1
 -174 -1216 l 17
 -174 -631 l 1
 -287 -631 l 1
 -287 -1104 l 25
 -457 -1104 l 1
 -457 -826 l 2
 -457 -717 -546 -631 -654 -631 c 0
 -765 -631 -851 -720 -851 -826 c 0
-654 -909 m 0
 -703 -909 -738 -872 -738 -826 c 0
 -738 -780 -703 -743 -654 -743 c 0
 -605 -743 -570 -780 -570 -826 c 0
 -570 -872 -605 -909 -654 -909 c 0
EndSplineSet
Fore
Refer: 180 3641 N 1 0 0 1 -117 -540 2
EndChar

StartChar: uniF71C
Encoding: 63260 63260 266
Width: 698
VWidth: 2045
Flags: W
HStem: -423 269
VStem: 107 378
LayerCount: 2
Fore
SplineSet
107 -423 m 1
 244 -154 l 1
 485 -154 l 1
 244 -423 l 1
 107 -423 l 1
EndSplineSet
EndChar

StartChar: uniF71D
Encoding: 63261 63261 267
Width: 798
VWidth: 2045
Flags: W
HStem: -236 211<183 265 531 616> -127 102<265 531>
VStem: 183 82<-236 -127> 531 85<-236 -127>
LayerCount: 2
Fore
SplineSet
616 -236 m 1xb0
 531 -236 l 1xb0
 531 -127 l 1
 265 -127 l 1x70
 265 -236 l 1
 183 -236 l 1
 183 -25 l 1
 616 -25 l 1
 616 -236 l 1xb0
EndSplineSet
EndChar

StartChar: zerowidthnonjoiner
Encoding: 8204 8204 268
Width: 0
VWidth: 2045
Flags: W
LayerCount: 2
Back
SplineSet
37 1288 m 1
 37 -275 l 1
 -37 -275 l 1
 -37 1288 l 1
 37 1288 l 1
EndSplineSet
EndChar

StartChar: uni0E3A.low
Encoding: 63258 63258 271
Width: 0
VWidth: 2045
Flags: W
HStem: -898 277<-466.314 -261.182>
VStem: -504 280<-861.517 -657.976>
LayerCount: 2
Back
SplineSet
-428 -734 m 0
 -428 -656 -366 -599 -294 -599 c 0
 -215 -599 -160 -669 -160 -734 c 0
 -160 -819 -236 -868 -294 -868 c 0
 -363 -868 -428 -813 -428 -734 c 0
EndSplineSet
Fore
Refer: 181 3642 N 1 0 0 1 -44 -539 2
EndChar

StartChar: uniF71B
Encoding: 63259 63259 272
Width: 998
VWidth: 2045
Flags: W
HStem: 1064 20G<215 829>
VStem: 215 614<60 1084>
LayerCount: 2
Fore
SplineSet
829 1084 m 1
 829 60 l 1
 215 60 l 1
 215 1084 l 1
 829 1084 l 1
EndSplineSet
EndChar

StartChar: uni0E47.high
Encoding: 63263 63263 274
Width: 0
VWidth: 2045
Flags: W
HStem: 2061 92<-508.479 -452.156> 2141 110<-742.096 -640.085> 2213 89<-510.465 -452.185> 2339 104<-828.08 -443.206>
VStem: -957 112<2175.21 2318.6> -602 91<2177.58 2211.21> -451 90<2153.85 2212.74>
AnchorPoint: "AboveMark" -659 2512 basemark 0
AnchorPoint: "AboveMark" -659 2040 mark 0
LayerCount: 2
Back
SplineSet
-588.08 2159.68 m 1
 -588.848 2165.82 -588.848 2173.5 -588.848 2182.72 c 0
 -588.848 2241.09 -542 2289.47 -481.328 2289.47 c 0xbe
 -420.656 2289.47 -373.808 2241.09 -373.808 2182.72 c 0
 -373.808 2135.1 -407.6 2073.66 -492.848 2073.66 c 8
 -628.784 2073.66 -644.145 2153.54 -709.424 2153.54 c 0xde
 -744.752 2153.54 -756.272 2121.28 -756.272 2086.72 c 0
 -756.272 2082.11 -756.272 2078.27 -755.504 2073.66 c 1
 -838.448 2075.97 -944.432 2108.22 -944.432 2244.93 c 0
 -944.432 2318.66 -897.584 2430.02 -688.688 2430.02 c 0
 -671.792 2430.02 -638 2428.48 -604.976 2428.48 c 0
 -506.672 2428.48 -459.824 2432.32 -399.152 2519.1 c 1
 -340.784 2463.04 l 1
 -419.12 2360.9 -489.008 2350.91 -594.224 2350.91 c 0
 -623.408 2350.91 -638 2352.45 -666.416 2352.45 c 0xde
 -776.24 2352.45 -858.416 2334.02 -858.416 2244.93 c 0
 -858.416 2197.31 -842.288 2165.82 -806.96 2155.07 c 1
 -806.96 2186.56 -784.688 2238.02 -732.464 2238.02 c 0
 -668.72 2238.02 -635.696 2164.29 -588.08 2159.68 c 1
-480.56 2139.71 m 0
 -455.216 2139.71 -437.552 2158.91 -437.552 2182.72 c 0
 -437.552 2206.53 -455.216 2225.73 -480.56 2225.73 c 0xbe
 -506.672 2225.73 -524.336 2206.53 -524.336 2182.72 c 0
 -524.336 2158.91 -506.672 2139.71 -480.56 2139.71 c 0
EndSplineSet
Fore
SplineSet
-323 2464 m 1x5e
 -406 2356 -481 2338 -594 2338 c 0
 -624 2338 -638 2339 -666 2339 c 0
 -777 2339 -845 2321 -845 2245 c 0
 -845 2208 -835 2185 -818 2174 c 1
 -811 2209 -784 2251 -732 2251 c 0x5e
 -670 2251 -632 2192 -602 2177 c 1
 -602 2246 -553 2302 -481 2302 c 0
 -413 2302 -361 2248 -361 2183 c 0
 -361 2130 -400 2061 -493 2061 c 0xbe
 -635 2061 -657 2141 -709 2141 c 0
 -733 2141 -743 2121 -743 2087 c 0
 -743 2076 -741 2069 -740 2060 c 1
 -835 2063 -957 2090 -957 2245 c 0
 -957 2325 -904 2443 -689 2443 c 0
 -671 2443 -638 2441 -605 2441 c 0
 -496 2441 -458 2454 -401 2539 c 1
 -323 2464 l 1x5e
-481 2153 m 0xbe
 -463 2153 -451 2166 -451 2183 c 0
 -451 2200 -463 2213 -481 2213 c 0
 -500 2213 -511 2200 -511 2183 c 0
 -511 2166 -500 2153 -481 2153 c 0xbe
EndSplineSet
EndChar

StartChar: ff
Encoding: 64256 64256 276
Width: 1136
VWidth: 2045
Flags: W
HStem: 0 21G<177 304 745 872> 936 124<18 177 304 745 872 1103> 1391 124<382.65 770.692 943.934 1205.56>
VStem: 177 127<0 936 1060 1312.86> 745 127<0 936 1060 1317.44>
LayerCount: 2
Back
SplineSet
580 1391 m 3
 451 1391 304 1366 304 1170 c 2
 304 1060 l 1
 735 1060 l 1
 735 936 l 1
 304 936 l 1
 304 0 l 1
 177 0 l 1
 177 936 l 1
 18 936 l 1
 18 1060 l 1
 177 1060 l 1
 177 1175 l 2
 177 1447 353 1515 566 1515 c 3
 751 1515 803 1442 854 1424 c 1
 854 1299 l 1
 801 1318 755 1391 580 1391 c 3
1068 1391 m 3
 1019 1391 872 1366 872 1170 c 2
 872 1060 l 1
 1103 1060 l 1
 1103 936 l 1
 872 936 l 1
 872 0 l 1
 745 0 l 1
 745 936 l 1
 586 936 l 1
 586 1060 l 1
 745 1060 l 1
 745 1175 l 2
 745 1447 921 1515 1054 1515 c 3
 1105 1515 1157 1506 1208 1488 c 1
 1208 1363 l 1
 1155 1382 1109 1391 1068 1391 c 3
EndSplineSet
Fore
SplineSet
1068 1391 m 3
 1019 1391 872 1366 872 1170 c 2
 872 1060 l 1
 1103 1060 l 1
 1103 936 l 1
 872 936 l 1
 872 0 l 1
 745 0 l 1
 745 936 l 1
 304 936 l 1
 304 0 l 1
 177 0 l 1
 177 936 l 1
 18 936 l 1
 18 1060 l 1
 177 1060 l 1
 177 1175 l 2
 177 1447 353 1515 566 1515 c 3
 728 1515 787 1459 834 1433 c 1
 897 1495 982 1515 1054 1515 c 3
 1105 1515 1157 1506 1208 1488 c 1
 1208 1363 l 1
 1155 1382 1109 1391 1068 1391 c 3
580 1391 m 3
 451 1391 304 1366 304 1170 c 2
 304 1060 l 1
 745 1060 l 1
 745 1175 l 2
 745 1244 757 1300 776 1345 c 1
 735 1368 677 1391 580 1391 c 3
EndSplineSet
LCarets2: 1 0 
Ligature2: "'liga' Standard Ligatures lookup 0" f f
EndChar

StartChar: fi
Encoding: 64257 64257 277
Width: 1022
VWidth: 2045
Flags: W
HStem: 0 21G<177 304 727 854> 936 124<18 177 304 727> 1391 124<382.65 770.925>
VStem: 177 127<0 936 1060 1312.86> 727 127<0 936>
LayerCount: 2
Back
SplineSet
727 0 m 1
 727 1060 l 1
 854 1060 l 1
 854 0 l 1
 727 0 l 1
580 1391 m 3
 451 1391 304 1366 304 1170 c 2
 304 1060 l 1
 735 1060 l 1
 735 936 l 1
 304 936 l 1
 304 0 l 1
 177 0 l 1
 177 936 l 1
 18 936 l 1
 18 1060 l 1
 177 1060 l 1
 177 1175 l 2
 177 1447 353 1515 566 1515 c 3
 751 1515 803 1442 854 1424 c 1
 854 1299 l 1
 801 1318 755 1391 580 1391 c 3
EndSplineSet
Fore
SplineSet
580 1391 m 3
 451 1391 304 1366 304 1170 c 2
 304 1060 l 1
 854 1060 l 1
 854 0 l 1
 727 0 l 1
 727 936 l 1
 304 936 l 1
 304 0 l 1
 177 0 l 1
 177 936 l 1
 18 936 l 1
 18 1060 l 1
 177 1060 l 1
 177 1175 l 2
 177 1447 353 1515 566 1515 c 3
 751 1515 803 1442 854 1424 c 1
 854 1299 l 1
 801 1318 755 1391 580 1391 c 3
EndSplineSet
LCarets2: 1 0 
Ligature2: "'liga' Standard Ligatures lookup 0" f i
EndChar

StartChar: fl
Encoding: 64258 64258 278
Width: 1022
VWidth: 2045
Flags: W
HStem: 0 21G<177 304 730 857> 936 124<18 177 304 535> 1391 124<382.65 729.02>
VStem: 177 127<0 936 1060 1312.86> 730 127<0 1385.63>
LayerCount: 2
Back
SplineSet
580 1391 m 3
 451 1391 304 1366 304 1170 c 2
 304 1060 l 1
 535 1060 l 1
 535 936 l 1
 304 936 l 1
 304 0 l 1
 177 0 l 1
 177 936 l 1
 18 936 l 1
 18 1060 l 1
 177 1060 l 1
 177 1175 l 2
 177 1447 353 1515 566 1515 c 3
 751 1515 803 1481 854 1465 c 1
 854 1340 l 1
 801 1357 755 1391 580 1391 c 3
730 0 m 1
 730 1465 l 1
 857 1465 l 1
 857 0 l 1
 730 0 l 1
EndSplineSet
Fore
SplineSet
580 1391 m 3
 451 1391 304 1366 304 1170 c 2
 304 1060 l 1
 535 1060 l 1
 535 936 l 1
 304 936 l 1
 304 0 l 1
 177 0 l 1
 177 936 l 1
 18 936 l 1
 18 1060 l 1
 177 1060 l 1
 177 1175 l 2
 177 1447 353 1515 566 1515 c 3
 751 1515 803 1481 854 1465 c 1
 857 1465 l 1
 857 0 l 1
 730 0 l 1
 730 1379 l 1
 693 1386 646 1391 580 1391 c 3
EndSplineSet
LCarets2: 1 0 
Ligature2: "'liga' Standard Ligatures lookup 0" f l
EndChar

StartChar: ffi
Encoding: 64259 64259 279
Width: 1590
VWidth: 2045
Flags: W
HStem: 0 21G<177 304 745 872 1295 1422> 936 124<18 177 304 745 872 1295> 1391 124<382.65 772.906 951.501 1338.93>
VStem: 177 127<0 936 1060 1312.86> 745 127<0 936 1060 1312.86> 1295 127<0 936>
LayerCount: 2
Back
SplineSet
580 1391 m 3
 451 1391 304 1366 304 1170 c 2
 304 1060 l 1
 735 1060 l 1
 735 936 l 1
 304 936 l 1
 304 0 l 1
 177 0 l 1
 177 936 l 1
 18 936 l 1
 18 1060 l 1
 177 1060 l 1
 177 1175 l 2
 177 1447 353 1515 566 1515 c 3
 751 1515 803 1442 854 1424 c 1
 854 1299 l 1
 801 1318 755 1391 580 1391 c 3
1295 0 m 1
 1295 1060 l 1
 1422 1060 l 1
 1422 0 l 1
 1295 0 l 1
1148 1391 m 3
 1019 1391 872 1366 872 1170 c 2
 872 1060 l 1
 1303 1060 l 1
 1303 936 l 1
 872 936 l 1
 872 0 l 1
 745 0 l 1
 745 936 l 1
 586 936 l 1
 586 1060 l 1
 745 1060 l 1
 745 1175 l 2
 745 1447 921 1515 1134 1515 c 3
 1319 1515 1371 1442 1422 1424 c 1
 1422 1299 l 1
 1369 1318 1323 1391 1148 1391 c 3
EndSplineSet
Fore
SplineSet
1148 1391 m 3
 1019 1391 872 1366 872 1170 c 2
 872 1060 l 1
 1422 1060 l 1
 1422 0 l 1
 1295 0 l 1
 1295 936 l 1
 872 936 l 1
 872 0 l 1
 745 0 l 1
 745 936 l 1
 304 936 l 1
 304 0 l 1
 177 0 l 1
 177 936 l 1
 18 936 l 1
 18 1060 l 1
 177 1060 l 1
 177 1175 l 2
 177 1447 353 1515 566 1515 c 3
 733 1515 792 1456 839 1431 c 1
 911 1495 1017 1515 1134 1515 c 3
 1319 1515 1371 1442 1422 1424 c 1
 1422 1299 l 1
 1369 1318 1323 1391 1148 1391 c 3
580 1391 m 3
 451 1391 304 1366 304 1170 c 2
 304 1060 l 1
 745 1060 l 1
 745 1175 l 2
 745 1244 757 1300 777 1345 c 1
 736 1368 678 1391 580 1391 c 3
EndSplineSet
LCarets2: 2 0 0 
Ligature2: "'liga' Standard Ligatures lookup 0" ff i
Ligature2: "'liga' Standard Ligatures lookup 0" f f i
EndChar

StartChar: ffl
Encoding: 64260 64260 280
Width: 1590
VWidth: 2045
Flags: W
HStem: 0 21G<177 304 745 872 1298 1425> 936 124<18 177 304 745 872 1103> 1391 124<382.65 772.906 951.501 1297.02>
VStem: 177 127<0 936 1060 1312.86> 745 127<0 936 1060 1312.86> 1298 127<0 1385.63>
LayerCount: 2
Back
SplineSet
580 1391 m 3
 451 1391 304 1366 304 1170 c 2
 304 1060 l 1
 735 1060 l 1
 735 936 l 1
 304 936 l 1
 304 0 l 1
 177 0 l 1
 177 936 l 1
 18 936 l 1
 18 1060 l 1
 177 1060 l 1
 177 1175 l 2
 177 1447 353 1515 566 1515 c 3
 751 1515 803 1442 854 1424 c 1
 854 1299 l 1
 801 1318 755 1391 580 1391 c 3
1148 1391 m 3
 1019 1391 872 1366 872 1170 c 2
 872 1060 l 1
 1103 1060 l 1
 1103 936 l 1
 872 936 l 1
 872 0 l 1
 745 0 l 1
 745 936 l 1
 586 936 l 1
 586 1060 l 1
 745 1060 l 1
 745 1175 l 2
 745 1447 921 1515 1134 1515 c 3
 1319 1515 1371 1481 1422 1465 c 1
 1422 1340 l 1
 1369 1357 1323 1391 1148 1391 c 3
1298 0 m 1
 1298 1465 l 1
 1425 1465 l 1
 1425 0 l 1
 1298 0 l 1
EndSplineSet
Fore
SplineSet
1148 1391 m 3
 1019 1391 872 1366 872 1170 c 2
 872 1060 l 1
 1103 1060 l 1
 1103 936 l 1
 872 936 l 1
 872 0 l 1
 745 0 l 1
 745 936 l 1
 304 936 l 1
 304 0 l 1
 177 0 l 1
 177 936 l 1
 18 936 l 1
 18 1060 l 1
 177 1060 l 1
 177 1175 l 2
 177 1447 353 1515 566 1515 c 3
 733 1515 792 1456 839 1431 c 1
 911 1495 1017 1515 1134 1515 c 3
 1319 1515 1371 1481 1422 1465 c 1
 1425 1465 l 1
 1425 0 l 1
 1298 0 l 1
 1298 1379 l 1
 1261 1386 1214 1391 1148 1391 c 3
580 1391 m 3
 451 1391 304 1366 304 1170 c 2
 304 1060 l 1
 745 1060 l 1
 745 1175 l 2
 745 1244 757 1300 777 1345 c 1
 736 1368 678 1391 580 1391 c 3
EndSplineSet
LCarets2: 2 0 0 
Ligature2: "'liga' Standard Ligatures lookup 0" ff l
Ligature2: "'liga' Standard Ligatures lookup 0" f f l
EndChar

StartChar: dotlessi
Encoding: 305 305 281
Width: 454
VWidth: 2045
Flags: W
HStem: 0 21G<159 286> 1040 20G<159 286>
VStem: 159 127<0 1060>
LayerCount: 2
Fore
SplineSet
159 0 m 1
 159 1060 l 1
 286 1060 l 1
 286 0 l 1
 159 0 l 1
EndSplineSet
EndChar

StartChar: dotlessj
Encoding: 567 567 282
Width: 454
VWidth: 2045
Flags: W
HStem: -429 124<-92.5075 125.332> 1040 20G<188 315>
VStem: 188 127<-236.633 1060>
LayerCount: 2
Fore
SplineSet
315 -57 m 2
 315 -250 260 -429 40 -429 c 0
 -1 -429 -46 -423 -95 -411 c 1
 -95 -296 l 1
 -37 -305 -17 -305 3 -305 c 0
 59 -305 188 -298 188 -54 c 2
 188 1060 l 1
 315 1060 l 1
 315 -57 l 2
EndSplineSet
EndChar

StartChar: AE
Encoding: 198 198 283
Width: 1844
Flags: W
HStem: 0 136<1014 1764> 500 136<451 868> 670 136<1014 1588> 1314 136<754 868 1014 1764>
VStem: 868 146<136 500 636 670 806 1314>
DStem2: -2 0 166 0 0.406957 0.913447<68.3687 615.437 765.304 1508.84>
LayerCount: 2
Back
SplineSet
868 0 m 1
 868 1450 l 1
 1764 1450 l 1
 1764 1314 l 1
 1014 1314 l 1
 1014 806 l 1
 1588 806 l 1
 1588 670 l 1
 1014 670 l 1
 1014 136 l 1
 1764 136 l 1
 1764 0 l 1
 868 0 l 1
934 500 m 1
 388 500 l 1
 166 0 l 1
 -2 0 l 1
 644 1450 l 1
 903 1450 l 1
 886 1314 l 1
 754 1315 l 1
 451 636 l 1
 908 636 l 1
 934 500 l 1
EndSplineSet
Fore
SplineSet
644 1450 m 1
 1764 1450 l 1
 1764 1314 l 1
 1014 1314 l 1
 1014 806 l 1
 1588 806 l 1
 1588 670 l 1
 1014 670 l 1
 1014 136 l 1
 1764 136 l 1
 1764 0 l 1
 868 0 l 1
 868 500 l 1
 388 500 l 1
 166 0 l 1
 -2 0 l 1
 644 1450 l 1
868 1314 m 1
 754 1315 l 1
 451 636 l 1
 868 636 l 1
 868 1314 l 1
EndSplineSet
EndChar

StartChar: ae
Encoding: 230 230 284
Width: 1808
Flags: W
HStem: -12 124<282.58 645.672 1115.49 1427.75> 502 124<962 1579> 557 126<673.269 820> 971 124<329.388 724.652 1123.97 1442.15>
VStem: 74 127<185.9 384.451> 107 124<787.572 871.151> 820 139<288.415 502>
LayerCount: 2
Back
SplineSet
959 502 m 1xd2
 965 217 1121 112 1274 112 c 3
 1420 112 1512 203 1551 321 c 1
 1713 321 l 1
 1669 126 1508 -12 1273 -12 c 3
 970 -12 820 194 820 528 c 3
 820 867 965 1095 1275 1095 c 3
 1558 1095 1723 915 1723 564 c 3
 1723 544 1722 523 1721 502 c 1
 959 502 l 1xd2
1579 626 m 1
 1568 761 1524 971 1277 971 c 3
 1092 971 973 813 962 626 c 1
 1579 626 l 1
947 706 m 2
 947 470 l 2
 947 201 729 -12 418 -12 c 3
 144 -12 74 179 74 299 c 3xba
 74 648 508 571 820 683 c 1
 820 832 792 971 534 971 c 3
 344 971 269 914 231 769 c 1
 107 790 l 1xb6
 151 1005 315 1095 559 1095 c 3
 926 1095 947 925 947 706 c 2
201 287 m 3
 201 230 253 112 453 112 c 3
 751 112 820 286 820 557 c 1
 612 466 201 498 201 287 c 3
EndSplineSet
Fore
SplineSet
201 287 m 0xba
 201 230 253 112 453 112 c 3
 751 112 820 286 820 557 c 1
 612 466 201 498 201 287 c 0xba
1579 626 m 1xd2
 1568 761 1524 971 1277 971 c 3
 1092 971 973 813 962 626 c 1
 1579 626 l 1xd2
959 502 m 1
 965 217 1121 112 1274 112 c 3
 1420 112 1512 203 1551 321 c 1
 1713 321 l 1
 1669 126 1508 -12 1273 -12 c 3
 1078 -12 946 73 877 223 c 1
 789 82 624 -12 418 -12 c 3
 144 -12 74 179 74 299 c 0xda
 74 648 508 571 820 683 c 1
 820 832 792 971 534 971 c 3
 344 971 269 914 231 769 c 1
 107 790 l 1xb6
 151 1005 315 1095 559 1095 c 3
 789 1095 883 1029 921 925 c 1
 996 1033 1113 1095 1275 1095 c 3
 1558 1095 1723 915 1723 564 c 3
 1723 544 1722 523 1721 502 c 1
 959 502 l 1
EndSplineSet
EndChar

StartChar: OE
Encoding: 338 338 285
Width: 2076
Flags: W
HStem: -12 136<505.291 847.302 1246 1996> 668 136<1246 1820> 1314 136<1246 1996> 1344 136<499.531 845.947>
VStem: 104 146<441.631 1031.12> 1100 146<135 228 443.226 668 804 1018.1 1241 1314>
LayerCount: 2
Back
SplineSet
1996 0 m 1
 1100 0 l 1
 1100 1450 l 1
 1996 1450 l 1
 1996 1314 l 1
 1246 1314 l 1
 1246 804 l 1
 1820 804 l 1
 1820 668 l 1
 1246 668 l 1
 1246 135 l 1
 1996 135 l 1
 1996 0 l 1
1246 731 m 3
 1246 284 973 -12 676 -12 c 3
 362 -12 104 313 104 714 c 3
 104 1182 356 1480 677 1480 c 3
 990 1480 1246 1170 1246 731 c 3
1100 732 m 3
 1100 1087 934 1344 678 1344 c 3
 350 1344 250 1013 250 711 c 3
 250 368 427 124 675 124 c 3
 929 124 1100 369 1100 732 c 3
EndSplineSet
Fore
SplineSet
1996 0 m 1xec
 1100 0 l 1
 1100 228 l 1
 993 76 838 -12 676 -12 c 3
 362 -12 104 313 104 714 c 3
 104 1182 356 1480 677 1480 c 3xdc
 844 1480 996 1391 1100 1241 c 1
 1100 1450 l 1
 1996 1450 l 1
 1996 1314 l 1
 1246 1314 l 1
 1246 804 l 1
 1820 804 l 1
 1820 668 l 1
 1246 668 l 1
 1246 135 l 1
 1996 135 l 1
 1996 0 l 1xec
1100 732 m 3
 1100 1087 934 1344 678 1344 c 3
 350 1344 250 1013 250 711 c 3
 250 368 427 124 675 124 c 3
 929 124 1100 369 1100 732 c 3
EndSplineSet
EndChar

StartChar: oe
Encoding: 339 339 286
Width: 1876
Flags: W
HStem: -12 124<395.685 695.923 1185.86 1495.54> 502 124<1030 1647> 971 124<387.664 687.253 1190.91 1509.95>
VStem: 68 156<296.921 774.093> 859 168<306.023 502 626 774.03>
LayerCount: 2
Back
SplineSet
1027 502 m 5
 1033 217 1189 112 1342 112 c 7
 1487 112 1580 203 1619 321 c 5
 1781 321 l 5
 1737 126 1576 -12 1341 -12 c 7
 1038 -12 859 194 859 528 c 7
 859 867 1033 1095 1343 1095 c 7
 1625 1095 1791 916 1791 565 c 7
 1791 545 1790 523 1789 502 c 5
 1027 502 l 5
1647 626 m 5
 1636 761 1592 971 1345 971 c 7
 1160 971 1041 813 1030 626 c 5
 1647 626 l 5
1015 551 m 7
 1015 127 781 -12 542 -12 c 7
 241 -12 68 200 68 536 c 7
 68 867 239 1095 542 1095 c 7
 832 1095 1015 874 1015 551 c 7
859 542 m 7
 859 869 668 971 542 971 c 7
 333 971 224 781 224 536 c 7
 224 199 417 112 542 112 c 7
 751 112 859 295 859 542 c 7
EndSplineSet
Fore
SplineSet
859 542 m 3
 859 869 668 971 542 971 c 3
 333 971 224 781 224 536 c 3
 224 199 417 112 542 112 c 3
 751 112 859 295 859 542 c 3
1647 626 m 1
 1636 761 1592 971 1345 971 c 3
 1160 971 1041 813 1030 626 c 1
 1647 626 l 1
1027 502 m 1
 1033 217 1189 112 1342 112 c 3
 1487 112 1580 203 1619 321 c 1
 1781 321 l 1
 1737 126 1576 -12 1341 -12 c 3
 1156 -12 1017 65 937 201 c 1
 848 46 696 -12 542 -12 c 3
 241 -12 68 200 68 536 c 3
 68 867 239 1095 542 1095 c 3
 721 1095 858 1011 938 871 c 1
 1018 1012 1156 1095 1343 1095 c 3
 1625 1095 1791 916 1791 565 c 3
 1791 545 1790 523 1789 502 c 1
 1027 502 l 1
EndSplineSet
EndChar

